<svg width="29" height="30" viewBox="0 0 29 30" fill="none" xmlns="http://www.w3.org/2000/svg">
<path d="M28.4 15.2184C28.4 22.8565 22.1793 29.0531 14.5 29.0531C6.82069 29.0531 0.6 22.8565 0.6 15.2184C0.6 7.58024 6.82069 1.38369 14.5 1.38369C22.1793 1.38369 28.4 7.58024 28.4 15.2184Z" stroke="white" stroke-width="1.2"/>
<path d="M14.6292 11.3733C12.7334 11.3733 11.1626 12.9101 11.1626 14.8243C11.1626 16.7386 12.7063 18.2754 14.6292 18.2754C16.5521 18.2754 18.0958 16.7116 18.0958 14.8243C18.0958 12.937 16.525 11.3733 14.6292 11.3733ZM14.6292 17.0352C13.4105 17.0352 12.4084 16.0376 12.4084 14.8243C12.4084 13.6111 13.4105 12.6135 14.6292 12.6135C15.8479 12.6135 16.85 13.6111 16.85 14.8243C16.85 16.0376 15.8479 17.0352 14.6292 17.0352Z" fill="white"/>
<path d="M18.2312 12.0745C18.665 12.0745 19.0166 11.7244 19.0166 11.2926C19.0166 10.8608 18.665 10.5107 18.2312 10.5107C17.7974 10.5107 17.4458 10.8608 17.4458 11.2926C17.4458 11.7244 17.7974 12.0745 18.2312 12.0745Z" fill="white"/>
<path d="M20.2625 9.27045C19.5583 8.5425 18.5563 8.16504 17.4188 8.16504L11.8396 8.16504C9.48342 8.16504 7.9126 9.72879 7.9126 12.0744L7.9126 17.6015C7.9126 18.7608 8.29176 19.7584 9.05009 20.4863C9.78133 21.1873 10.7563 21.5378 11.8667 21.5378L17.3917 21.5378C18.5563 21.5378 19.5313 21.1603 20.2354 20.4863C20.9667 19.7853 21.3458 18.7878 21.3458 17.6284L21.3458 12.0744C21.3458 10.942 20.9667 9.97144 20.2625 9.27045ZM20.1542 17.6284C20.1542 18.4642 19.8563 19.1382 19.3688 19.5966C18.8813 20.0549 18.2042 20.2976 17.3917 20.2976L11.8667 20.2976C11.0542 20.2976 10.3772 20.0549 9.88967 19.5966C9.40217 19.1113 9.15842 18.4373 9.15842 17.6015L9.15842 12.0744C9.15842 11.2656 9.40217 10.5915 9.88967 10.1062C10.3501 9.64791 11.0542 9.40525 11.8667 9.40525L17.4459 9.40525C18.2583 9.40525 18.9354 9.64791 19.4229 10.1332C19.8833 10.6185 20.1542 11.2925 20.1542 12.0744L20.1542 17.6284Z" fill="white"/>
</svg>
