<svg width="112" height="82" viewBox="0 0 112 82" fill="none" xmlns="http://www.w3.org/2000/svg">
<path d="M31.4255 42.0784H51.3685L55.9011 81.7278H43.2099L42.607 74.6474H40.1899L39.5833 81.7278H26.8945L31.4255 42.0784ZM42.3038 67.5674L41.6994 49.1587H41.0952L40.4907 67.5674H42.3038Z" fill="#E02C88"/>
<path d="M87.3093 42.0784H107.252L111.785 81.7278H99.0934L98.4892 74.6474H96.0718L95.4668 81.7278H82.7781L87.3093 42.0784ZM98.1871 67.5674L97.5826 49.1587H96.9787L96.3742 67.5674H98.1871Z" fill="#E02C88"/>
<path d="M13.4277 58.0685C13.3656 58.0957 13.2819 58.1532 13.2751 58.2047C13.2379 58.4857 13.2311 58.7704 13.1942 59.0516C13.1845 59.1532 13.2028 59.2555 13.247 59.3473C13.2912 59.4392 13.3596 59.5169 13.4447 59.572C13.5807 59.6777 13.6948 59.8092 13.7805 59.9592C14.137 60.6985 14.3895 61.4844 14.5308 62.2941C14.6347 62.8535 14.7017 63.4197 14.7662 63.9851C14.8472 64.687 14.9376 65.39 14.9676 66.0946C15.0205 67.3444 15.0491 68.5951 15.0532 69.8467C15.0572 70.7625 15.0041 71.6782 14.9865 72.5943C14.9741 73.2431 14.9819 73.8924 14.9746 74.5415C14.9703 74.9142 14.5208 75.0864 14.3537 75.0864C14.0357 75.1082 13.7012 75.1232 13.5122 75.1327C13.0173 75.1575 12.7981 75.1891 12.3027 75.1916C12.1942 75.1864 12.0906 75.145 12.0079 75.0738C11.9253 75.0027 11.8684 74.9059 11.8462 74.7987C11.8236 74.6841 11.8131 74.5675 11.8149 74.4507C11.8136 70.3483 11.8136 66.2458 11.8149 62.1431H11.8132C11.8132 58.1573 11.8132 54.1716 11.8132 50.186C11.8104 49.9655 11.8185 49.7451 11.8375 49.5255C11.8377 49.4049 11.8851 49.2893 11.9692 49.2037C12.0534 49.1181 12.1676 49.0694 12.287 49.0683C12.7272 49.0452 13.1684 49.0502 13.608 49.0832C13.7211 49.1009 13.8247 49.1573 13.9015 49.2429C13.9783 49.3285 14.0236 49.4382 14.0297 49.5535C14.0408 49.793 14.0529 50.0331 14.0532 50.2732C14.0554 51.9347 14.0554 53.5964 14.0532 55.2582C14.0532 55.4137 14.0324 55.5693 14.0367 55.7246C14.0405 55.8753 14.1177 55.9644 14.2986 55.9546C14.4574 55.9462 14.6172 55.9524 14.7765 55.9524H25.9858V50.5745C25.9858 45.8822 21.9275 42.0784 16.9211 42.0784H9.0649C4.05851 42.0784 0 45.8822 0 50.5745V73.2314C0 77.9237 4.05851 81.7278 9.06517 81.7278H10.878C13.2954 81.7278 15.3499 81.0482 16.9211 79.8586V81.7278H25.9858V58.0603L13.6113 58.0628C13.5502 58.0533 13.488 58.0552 13.4277 58.0685Z" fill="#E02C88"/>
<path d="M69.1585 58.0685C69.0964 58.0957 69.0127 58.1532 69.006 58.2047C68.9687 58.4857 68.962 58.7704 68.925 59.0516C68.9153 59.1532 68.9336 59.2555 68.9778 59.3473C69.022 59.4392 69.0904 59.5169 69.1755 59.572C69.3115 59.6776 69.4256 59.8092 69.5114 59.9592C69.8678 60.6985 70.1203 61.4844 70.2616 62.2941C70.3653 62.8535 70.4325 63.4197 70.4968 63.9851C70.5778 64.687 70.6685 65.39 70.6984 66.0946C70.7514 67.3444 70.7799 68.5951 70.784 69.8467C70.7881 70.7625 70.7349 71.6782 70.7173 72.5943C70.7049 73.2431 70.7125 73.8924 70.7052 74.5415C70.7011 74.9142 70.2516 75.0864 70.0843 75.0864C69.7662 75.1082 69.4317 75.1232 69.2427 75.1327C68.7476 75.1575 68.5284 75.1891 68.0333 75.1916C67.9248 75.1864 67.8211 75.145 67.7385 75.0738C67.6559 75.0027 67.599 74.9059 67.5767 74.7987C67.5542 74.6841 67.5437 74.5675 67.5454 74.4507C67.544 70.3483 67.5435 66.2458 67.5441 62.1431H67.5427C67.5427 58.1573 67.5427 54.1716 67.5427 50.186C67.5398 49.9655 67.5478 49.7451 67.5667 49.5255C67.5671 49.4049 67.6145 49.2893 67.6987 49.2037C67.7829 49.1181 67.8971 49.0695 68.0165 49.0683C68.4566 49.0452 68.8978 49.0502 69.3372 49.0832C69.4504 49.1008 69.554 49.1571 69.6308 49.2428C69.7076 49.3285 69.7529 49.4382 69.7589 49.5535C69.7703 49.793 69.7824 50.0331 69.7827 50.2732C69.7849 51.9347 69.7849 53.5964 69.7827 55.2582C69.7827 55.4137 69.7622 55.5693 69.7662 55.7246C69.7703 55.8753 69.8472 55.9644 70.0284 55.9546C70.1871 55.9462 70.3469 55.9524 70.5062 55.9524H81.7155V50.5745C81.7155 45.8822 77.6573 42.0784 72.6509 42.0784H64.7979C59.7918 42.0784 55.7333 45.8822 55.7333 50.5745V73.2314C55.7333 77.9237 59.7918 81.7278 64.7982 81.7278H66.6113C69.0287 81.7278 71.0832 81.0482 72.6544 79.8586V81.7278H81.719V58.0603L69.3443 58.0628C69.2825 58.053 69.2195 58.055 69.1585 58.0685Z" fill="#E02C88"/>
<path d="M28.6598 32.8587V39.8824H10.4679V0.549072H21.6629V32.8587H28.6598Z" fill="#E02C88"/>
<path d="M33.6967 0.549072H52.1689L56.367 39.8827H44.612L44.0524 32.859H41.8132L41.2536 39.8827H29.4987L33.6967 0.549072ZM43.7724 25.8351L43.2125 7.57302H42.6529L42.0929 25.8351H43.7724Z" fill="#E02C88"/>
<path d="M81.2761 8.97738V31.4539C81.2761 36.5111 77.9177 39.8824 72.88 39.8824H57.2067V0.549072H72.88C77.9188 0.549072 81.2761 3.92018 81.2761 8.97738ZM70.0812 7.57275H68.4019V32.8587H70.0812V7.57275Z" fill="#E02C88"/>
<path d="M108.306 0.549072L100.189 26.1157V39.8824H88.9938V26.1157L80.8773 0.549072H92.6322L94.3115 16.0016H94.8714L96.5506 0.549072H108.306Z" fill="#E02C88"/>
</svg>
