<svg width="132" height="48" viewBox="0 0 132 48" fill="none" xmlns="http://www.w3.org/2000/svg">
<path d="M14 20.3978C13.336 20.947 12.5614 21.1667 12.008 21.1667C10.9014 21.2765 9.68408 20.947 9.02009 20.0683C8.46677 19.4093 8.13478 18.4208 7.47079 17.652C6.47481 16.4438 5.03617 15.675 3.48686 16.0045C0.388255 16.5537 -0.93972 20.0683 0.720249 22.4847C3.15487 25.8895 8.79876 25.3403 11.5654 22.924C12.4507 22.1552 13.336 21.3863 14 20.3978Z" fill="white"/>
<path d="M118 20.3978C118.664 20.947 119.439 21.1667 119.992 21.1667C121.099 21.2765 122.316 20.947 122.98 20.0683C123.533 19.2995 123.865 18.4208 124.529 17.652C125.415 16.4438 126.964 15.675 128.513 16.0045C131.612 16.5537 132.94 20.0683 131.28 22.4847C128.845 25.8895 123.201 25.3403 120.435 22.924C119.549 22.1552 118.664 21.3863 118 20.3978Z" fill="white"/>
<path d="M107.526 1.99097C107.421 1.99097 100.474 1.99097 100.474 1.99097C99.7368 1.99097 99.1053 2.71185 99 3.43272C99 4.1536 99.6316 4.87448 100.474 4.97746C100.579 4.97746 107.526 4.97746 107.526 4.97746C108.263 4.97746 108.895 4.25658 109 3.53571C109 2.81483 108.368 2.09395 107.526 1.99097Z" fill="white"/>
<path d="M60.7868 17.3248C60.6765 16.8752 60.6765 16.538 60.5662 16.0884C60.5662 15.5264 60.5662 14.6273 60.5662 13.8405C60.6765 11.1431 61.1176 6.42248 57.4779 6.42248C55.0515 6.42248 53.5074 8.55798 53.1765 9.23234C53.0662 7.32163 51.6324 5.9729 49.3162 5.9729C47.8824 5.9729 47 7.09685 47 7.09685C47 7.09685 48.4338 7.54642 48.4338 9.45713C48.4338 10.8059 48.4338 17.4371 48.4338 17.5495C48.4338 18.7859 49.3162 19.7974 50.75 19.7974C52.1838 19.7974 53.1765 18.6735 53.1765 17.5495V11.5926C53.3971 10.5811 53.9485 9.68192 54.7206 9.68192C55.8235 9.68192 55.8235 10.9183 55.8235 10.9183V16.6504C55.8235 16.8752 55.8235 16.9876 55.9338 17.2124C55.9338 17.5495 56.0441 17.7743 56.1544 17.9991C56.7059 19.1231 57.9191 19.9098 59.6838 19.9098C61.1176 19.9098 62 18.7859 62 18.7859C62 18.7859 61.2279 18.3363 60.7868 17.3248Z" fill="white"/>
<path d="M96.6743 17.4899C96.5538 17.0499 96.5538 16.7199 96.4332 16.2799V2.41999C96.4332 1.09999 95.228 0 93.7818 0C92.3356 0 91.0098 1.09999 91.0098 2.41999V14.6299C91.0098 15.7299 90.8893 16.8299 91.4919 17.9299C92.0945 19.0299 93.6613 19.9099 95.4691 19.9099C97.0358 19.9099 98 18.8099 98 18.8099C98 18.8099 97.1564 18.4799 96.6743 17.4899Z" fill="white"/>
<path d="M40.5 17.0063C39.2213 17.0063 38.582 15.4965 38.582 12.9414C38.582 10.5024 39.3279 8.99257 40.3934 8.87643C41.459 8.87643 42.2049 10.3863 42.2049 12.9414C42.3115 15.3803 41.7787 16.8902 40.5 17.0063ZM40.5 5.9729C36.877 5.9729 34 9.10871 34 12.9414C34 16.774 36.877 19.9098 40.5 19.9098C44.1229 19.9098 47 16.774 47 12.9414C47 9.10871 44.0164 5.9729 40.5 5.9729Z" fill="white"/>
<path d="M68.5815 16.685C67.2696 16.685 66.6136 15.3678 66.6136 13.3919C66.6136 11.4161 67.3789 10.0988 68.4722 10.0988C69.5655 10.0988 70.3308 11.4161 70.3308 13.3919C70.4401 15.3678 69.7842 16.685 68.5815 16.685ZM75.9067 17.4534C75.7974 17.0144 75.7974 16.685 75.688 16.246V2.41494C75.688 1.0977 74.5947 0 73.1734 0C71.7521 0 70.6588 1.0977 70.6588 2.41494V9.00114C70.1122 8.23275 68.8002 6.80574 66.7229 6.80574C61.0377 6.80574 60.7097 16.7948 64.5363 19.2098C65.6296 19.8684 67.2696 20.0879 68.5815 19.7586C69.4562 19.5391 70.7681 18.6609 70.9868 17.673C70.9868 17.7827 71.0961 17.7827 71.0961 17.8925C71.6428 18.9902 73.0641 19.8684 74.7041 19.8684C76.1254 19.8684 77 18.7707 77 18.7707C77 18.7707 76.2347 18.4414 75.9067 17.4534Z" fill="white"/>
<path d="M82.2857 12.1284C82.3929 11.0831 82.7143 9.68941 83.5714 8.99257C84.4286 8.528 85.5 9.10871 85.5 10.154C85.5 11.1992 84.8571 12.0122 83.8929 12.2445C83.8929 12.1284 82.2857 12.2445 82.2857 12.1284ZM89.3571 15.6126C89.3571 15.6126 88.6071 16.6579 85.9286 16.6579C83.1429 16.6579 82.6071 14.3351 82.6071 14.3351C86.5714 14.3351 90 14.1028 90 10.6185C90 7.13431 86.3571 5.9729 84.2143 5.9729C80.6786 5.9729 78 8.99257 78 13.0575C78 17.587 81.4286 19.9098 84.2143 19.9098C89.1429 19.9098 89.3571 15.6126 89.3571 15.6126Z" fill="white"/>
<path d="M102.393 12.1284C102.5 11.0831 102.821 9.68941 103.679 8.99257C104.429 8.528 105.5 9.10871 105.5 10.154C105.5 11.1992 104.857 12.0122 103.893 12.2445C103.893 12.1284 102.393 12.2445 102.393 12.1284ZM109.357 15.6126C109.357 15.6126 108.607 16.6579 105.929 16.6579C103.25 16.6579 102.607 14.3351 102.607 14.3351C106.571 14.3351 110 14.1028 110 10.6185C110 7.13431 106.357 5.9729 104.214 5.9729C100.679 5.9729 98 8.99257 98 13.0575C98 17.587 101.429 19.9098 104.214 19.9098C109.143 19.9098 109.357 15.6126 109.357 15.6126Z" fill="white"/>
<path d="M118.544 16.1837H115.673C115.894 16.1837 117.992 14.3685 118.654 13.8012C120.531 12.2128 123.732 9.94377 122.849 7.10744C122.628 6.42671 122.187 5.9729 122.187 5.9729C122.187 5.9729 121.966 6.54017 121.304 6.76708C121.083 6.88053 120.752 6.88053 120.531 6.88053C120.31 6.88053 112.582 6.88053 112.582 6.88053C111.589 6.88053 110.705 7.6747 110.705 8.69578C110.705 9.71687 111.478 10.511 112.582 10.511H117.108C115.011 11.6456 112.582 13.1205 111.257 15.1626C110.485 16.4106 109.822 18.2259 110.043 19.7008C111.037 18.7931 113.686 17.999 115.673 18.3393C116.446 18.4528 117.219 18.9066 117.881 19.247C121.635 21.6295 123.843 16.9779 122.076 14.9357C121.966 15.1626 120.862 16.1837 118.544 16.1837Z" fill="white"/>
<path d="M34.0368 18.9838C31.7206 16.5786 31.0588 12.4241 30.8382 9.80027C30.7279 7.50438 30.8382 3.45926 32.7132 2.25665C32.0515 1.49135 30.8382 1.16337 29.8456 1.16337C27.75 1.16337 26.6471 2.58463 25.9853 3.56858C25.7647 3.89657 22.125 8.70699 22.125 8.70699C22.125 8.70699 19.1471 4.00589 18.8162 3.45926C18.2647 2.69396 17.3824 1.2727 15.6176 1.05404C14.8456 0.944716 12.9706 0.835388 11.9779 2.25665C13.7426 3.67791 13.7426 7.1764 13.3015 9.58161C12.1985 16.7972 9 17.4532 9 17.4532C10.6544 21.717 14.7353 19.9678 15.9485 16.6879C16.7206 14.5014 17.1618 11.7682 17.2721 9.47229L21.7941 16.2506L26.9779 9.47229C26.0956 21.4983 30.3971 24.8875 34.0368 24.8875C37.6765 24.8875 39 21.6077 39 21.6077C37.0147 21.2797 35.3603 20.2957 34.0368 18.9838Z" fill="white"/>
<path d="M45.6 22.9935C45.6 23.212 45.72 23.3213 45.72 23.5398C45.72 23.5398 45.72 29.7677 45.72 29.877C45.72 30.4233 46.32 30.8603 46.8 30.8603C47.4 30.8603 48 30.4233 48 29.877C48 29.7677 48 24.1954 48 24.1954C48 23.7583 48 23.212 47.76 22.775C47.52 22.3379 46.8 21.9009 46.08 21.9009C45.36 21.9009 45 22.3379 45 22.3379C45 22.3379 45.48 22.5564 45.6 22.9935Z" fill="white"/>
<path d="M113.4 29.7677C113.4 29.5492 113.28 29.4399 113.28 29.2214C113.28 29.2214 113.28 22.9935 113.28 22.8842C113.28 22.3379 112.68 21.9009 112.2 21.9009C111.6 21.9009 111 22.3379 111 22.8842C111 22.9935 111 28.5658 111 28.5658C111 29.0029 111 29.5492 111.24 29.9862C111.48 30.4233 112.2 30.8603 112.92 30.8603C113.64 30.8603 114 30.4233 114 30.4233C114 30.4233 113.52 30.2048 113.4 29.7677Z" fill="white"/>
<path d="M74.7361 25.2132C73.7264 25.2132 73.1205 26.082 72.9186 26.4078C72.9186 26.082 72.9186 25.8648 72.9186 25.8648C72.9186 25.3218 72.4137 24.9961 72.0098 24.8875C71.5049 24.8875 71 25.3218 71 25.8648C71 25.9734 71 29.7744 71 29.883C71 30.426 71.5049 30.8604 71.9088 30.8604C72.4137 30.8604 72.9186 30.426 72.9186 29.883C72.9186 29.883 72.9186 28.5798 72.9186 27.4938C73.0195 27.0594 73.2215 26.625 73.5244 26.625C73.9283 26.625 74.0293 27.168 74.0293 27.168V29.883C74.0293 30.426 74.5342 30.8604 74.9381 30.8604C75.443 30.8604 75.9479 30.426 75.9479 29.883V28.4712C76.0488 26.9508 76.1498 25.2132 74.7361 25.2132Z" fill="white"/>
<path d="M101.736 25.2132C100.726 25.2132 100.121 26.082 99.9186 26.4078C99.9186 26.082 99.9186 25.8648 99.9186 25.8648C99.9186 25.3218 99.4137 24.9961 99.0098 24.8875C98.5049 24.8875 98 25.3218 98 25.8648C98 25.9734 98 29.7744 98 29.883C98 30.426 98.5049 30.8604 98.9088 30.8604C99.4137 30.8604 99.9186 30.426 99.9186 29.883C99.9186 29.883 99.9186 28.5798 99.9186 27.4938C100.02 27.0594 100.221 26.625 100.524 26.625C100.928 26.625 101.029 27.168 101.029 27.168V29.883C101.029 30.426 101.534 30.8604 101.938 30.8604C102.443 30.8604 102.948 30.426 102.948 29.883V28.4712C103.049 26.9508 103.15 25.2132 101.736 25.2132Z" fill="white"/>
<path d="M52.7679 25.2132C51.7496 25.2132 51.1385 26.082 50.9349 26.4078C50.9349 26.082 50.9349 25.8648 50.9349 25.8648C50.9349 25.3218 50.4257 24.9961 50.0184 24.8875C49.5092 24.8875 49 25.3218 49 25.8648C49 25.9734 49 29.7744 49 29.883C49 30.426 49.5092 30.8604 49.9165 30.8604C50.4257 30.8604 50.9349 30.426 50.9349 29.883C50.9349 29.883 50.9349 28.5798 50.9349 27.4938C51.0367 27.0594 51.2404 26.625 51.5459 26.625C51.9532 26.625 52.0551 27.168 52.0551 27.168V29.883C52.0551 30.426 52.5642 30.8604 52.9716 30.8604C53.4808 30.8604 53.9899 30.426 53.9899 29.883V28.4712C53.9899 26.9508 54.1936 25.2132 52.7679 25.2132Z" fill="white"/>
<path d="M94 29.5331C93.4444 29.5331 93.1111 28.8694 93.1111 27.8739C93.1111 26.7678 93.4444 26.2148 94 26.1042C94.4444 26.1042 94.8889 26.7678 94.8889 27.8739C94.8889 28.8694 94.5556 29.5331 94 29.5331ZM94 24.8875C92.3333 24.8875 91 26.2148 91 27.8739C91 29.5331 92.3333 30.8604 94 30.8604C95.6667 30.8604 97 29.5331 97 27.8739C97 26.2148 95.6667 24.8875 94 24.8875Z" fill="white"/>
<path d="M79.3835 29.4453C78.9323 29.4453 78.6617 28.9027 78.6617 27.926C78.6617 27.0578 78.9323 26.5152 79.3835 26.4067C79.7444 26.4067 80.1053 26.9493 80.1053 27.926C80.1053 28.9027 79.8346 29.4453 79.3835 29.4453ZM82 25.8641C82 25.3215 81.5489 24.8875 81.0977 24.8875C80.6466 24.8875 80.1955 25.3215 80.1955 25.8641V25.9726C80.015 25.6471 79.4737 24.996 78.7519 24.996C76.6767 24.996 76.4963 29.4453 77.9399 30.5305C78.3008 30.856 78.9323 30.9645 79.3835 30.7475C79.6541 30.639 80.015 30.4219 80.1955 30.0964C80.2857 30.5305 80.6466 30.856 81.0075 30.856C81.4586 30.856 81.9098 30.4219 81.9098 29.8793C82 29.8793 82 25.9726 82 25.8641Z" fill="white"/>
<path d="M106.86 29.2093C106.319 29.2093 105.994 28.5763 105.994 27.4368C105.994 26.424 106.319 25.7909 106.86 25.6643C107.293 25.6643 107.726 26.2974 107.726 27.4368C107.726 28.5763 107.402 29.2093 106.86 29.2093ZM110 25.0313C110 24.3983 109.459 23.8918 108.917 23.8918C108.376 23.8918 107.835 24.3983 107.835 25.0313V25.1579C107.618 24.7781 106.968 24.0185 106.102 24.0185C103.612 24.0185 103.396 29.2093 105.128 30.4754C105.561 30.8552 106.319 30.9818 106.86 30.7286C107.185 30.602 107.618 30.3488 107.835 29.9689C107.943 30.4754 108.376 30.8552 108.809 30.8552C109.35 30.8552 109.892 30.3488 109.892 29.7157C110 29.7157 110 25.1579 110 25.0313Z" fill="white"/>
<path d="M90 25.9845C90 25.375 89.6 25.0093 89.1 24.8875H89C88.6 24.8875 88 25.375 88 25.8626V27.9349C88 28.5444 88 29.7633 88 29.7633C88 30.3728 88.4 30.7385 88.9 30.8604H89C89.4 30.8604 90 30.3728 90 29.8852V28.0568C90 27.4473 90 25.9845 90 25.9845Z" fill="white"/>
<path d="M90 22.8964C90 23.4494 89.6 23.8919 89 23.8919C88.5 23.8919 88 23.4494 88 22.8964C88 22.3433 88.4 21.9009 89 21.9009C89.6 21.9009 90 22.3433 90 22.8964Z" fill="white"/>
<path d="M68.9434 25.1047C68.3737 25.1047 68.0888 25.539 67.804 26.1906C67.804 26.1906 67.804 25.9734 67.804 25.8648C67.804 25.3218 67.3293 24.8875 66.9495 24.8875C66.4747 24.8875 66 25.3218 66 25.8648V27.3852V29.883C66 30.426 66.4747 30.8604 66.8545 30.8604C67.3293 30.8604 67.804 30.426 67.804 29.883V27.3852C67.804 27.0594 67.9939 26.5164 68.2787 26.5164C68.6585 26.5164 68.2787 27.4938 69.1333 27.4938C70.2726 27.6024 70.3676 25.1047 68.9434 25.1047Z" fill="white"/>
<path d="M61.04 27.59C61.16 27.1396 61.28 26.464 61.76 26.2387C62.12 26.0135 62.72 26.2387 62.72 26.6892C62.72 27.1396 62.36 27.4774 61.88 27.59H61.04ZM64.64 29.0539C64.64 29.0539 64.28 29.5043 62.96 29.5043C61.52 29.5043 61.28 28.4909 61.28 28.4909C63.32 28.4909 65 28.3783 65 26.9144C65 25.4505 63.2 24.8875 62.12 24.8875C60.32 24.8875 59 26.2387 59 27.9278C59 29.8422 60.68 30.8556 62.12 30.8556C64.52 30.9682 64.64 29.0539 64.64 29.0539Z" fill="white"/>
<path d="M59 29.6352C59 29.6352 58.4737 30.8604 57.5263 30.8604C56.6842 30.8604 55.7368 30.0028 55.7368 28.9001C55.7368 28.9001 55.7368 27.1848 55.7368 25.837H55.4211C55.3158 25.837 55 25.7145 55 25.3469C55 24.9794 55.3158 24.8568 55.4211 24.8568H55.6316C55.6316 24.3668 55.6316 23.9992 55.6316 23.9992C55.6316 23.3866 56.1579 22.8965 56.6842 22.8965C57.2105 22.8965 57.6316 23.3866 57.6316 23.9992V24.7343H58.4737C58.5789 24.7343 58.8947 24.8568 58.8947 25.2244C58.8947 25.7145 58.5789 25.7145 58.4737 25.7145H57.6316V28.2875C57.6316 29.1451 58.2632 29.6352 59 29.6352Z" fill="white"/>
<path d="M87 29.7882C87 29.7882 86.4737 30.8603 85.5263 30.8603C84.6842 30.8603 83.7368 30.1099 83.7368 29.145C83.7368 29.145 83.7368 27.6441 83.7368 26.4648H83.421C83.3158 26.4648 83 26.3576 83 26.036C83 25.7144 83.3158 25.6072 83.421 25.6072H83.6316C83.6316 25.1783 83.6316 24.8567 83.6316 24.8567C83.6316 24.3207 84.1579 23.8918 84.6842 23.8918C85.2105 23.8918 85.6316 24.3207 85.6316 24.8567V25.5H86.4737C86.5789 25.5 86.8947 25.6072 86.8947 25.9288C86.8947 26.3576 86.5789 26.3576 86.4737 26.3576H85.6316V28.609C85.7368 29.3594 86.3684 29.7882 87 29.7882Z" fill="white"/>
<path d="M5.88679 45.3503C5.88679 45.4609 5.88679 45.4609 5.88679 45.5715C5.88679 45.6821 5.88679 45.6821 5.77358 45.7927C5.77358 45.7927 5.66038 45.9033 5.66038 46.0139C5.54717 46.3458 5.32075 46.567 5.09434 46.7882C4.86792 46.8988 4.75472 47.0094 4.5283 47.12C4.30189 47.2307 4.07547 47.3413 3.96226 47.4519C3.73585 47.5625 3.50943 47.6731 3.28302 47.6731C3.0566 47.6731 2.9434 47.6731 2.71698 47.6731C2.60377 47.6731 2.37736 47.6731 2.26415 47.6731C1.92453 47.6731 1.92453 47.6731 1.58491 47.5625C1.24528 47.4519 1.01887 47.2307 0.792453 46.8988C0.792453 46.8988 0.792453 47.0094 0.792453 47.12C0.792453 47.2307 0.792453 47.3413 0.792453 47.4519C0.792453 47.5625 0.679245 47.7837 0.566038 47.7837C0.45283 47.7837 0.339623 47.7837 0.226415 47.6731C0.113208 47.5625 0.113208 47.4519 0.113208 47.4519C0.113208 47.3413 0.113208 47.2307 0.113208 47.12C0.113208 47.0094 0.113208 46.8988 0.113208 46.6776C0.113208 46.567 0.113208 46.1245 0.113208 45.7927C0.113208 45.2397 0.113208 44.6866 0.113208 44.576C0.113208 44.4654 0.113208 44.2442 0.226415 44.1336C0.226415 44.0229 0.226415 44.0229 0.339623 44.0229L0.45283 43.9123L0.566038 44.0229C0.679245 44.1336 0.679245 44.2442 0.679245 44.3548C0.679245 44.4654 0.679245 44.7972 0.679245 45.0184C0.679245 45.2397 0.679245 45.4609 0.679245 45.6821C0.679245 45.9033 0.679245 46.0139 0.792453 46.1245C0.90566 46.2352 1.01887 46.3458 1.13208 46.567C1.24528 46.7882 1.35849 46.7882 1.58491 46.8988C1.69811 46.8988 2.15094 47.0094 2.26415 47.0094C2.49057 47.0094 2.49057 46.8988 2.71698 46.8988C2.9434 46.7882 3.16981 46.8988 3.28302 46.7882C3.39623 46.6776 3.62264 46.567 3.62264 46.4564C3.73585 46.3458 3.73585 46.2352 3.73585 46.1245C3.73585 46.0139 3.73585 46.0139 3.73585 45.9033C3.62264 45.6821 3.50943 45.5715 3.50943 45.4609C3.39623 45.0184 3.39623 44.7972 3.28302 44.576C3.0566 44.2442 2.71698 43.9123 2.37736 43.5805C2.15094 43.2487 1.81132 42.9168 1.4717 42.6956C1.13208 42.3638 0.90566 42.032 0.566038 41.7001C0.339623 41.3683 0.226415 40.9258 0.113208 40.4834C0.113208 40.2622 0 39.8197 0 39.4879C0 39.0455 0.226415 38.7136 0.45283 38.2712C0.679245 37.9394 1.01887 37.6075 1.35849 37.3863C1.69811 37.1651 1.92453 37.1651 2.37736 37.0545C2.60377 37.0545 2.71698 36.9439 2.9434 36.9439C3.16981 36.9439 3.28302 36.9439 3.39623 37.0545C3.50943 37.0545 3.73585 37.1651 3.96226 37.2757C4.18868 37.3863 4.41509 37.3863 4.5283 37.6075C4.5283 37.3863 4.5283 37.1651 4.64151 37.0545C4.64151 36.9439 4.64151 36.9439 4.75472 36.9439C4.75472 36.9439 4.86792 36.8333 4.98113 36.8333L5.09434 36.9439C5.20755 37.0545 5.20755 37.1651 5.20755 37.2757C5.20755 37.3863 5.20755 37.9394 5.20755 38.2712C5.20755 38.603 5.20755 38.8242 5.20755 39.0455C5.20755 39.4879 5.20755 39.5985 5.20755 40.041C5.20755 40.2622 5.20755 40.7046 4.86792 40.7046C4.75472 40.7046 4.64151 40.7046 4.5283 40.594C4.41509 40.4834 4.41509 40.3728 4.41509 40.3728C4.41509 40.2622 4.41509 40.1516 4.41509 40.041C4.41509 39.9303 4.41509 39.8197 4.41509 39.5985C4.41509 39.4879 4.41509 39.2667 4.41509 39.0455C4.41509 38.9349 4.41509 38.7136 4.30189 38.603C4.18868 38.3818 4.18868 38.2712 3.96226 38.1606C3.84906 38.05 3.73585 37.9394 3.50943 37.9394C3.39623 37.9394 3.16981 37.8287 2.9434 37.8287C2.71698 37.8287 2.49057 37.8287 2.37736 37.9394C2.26415 38.05 2.26415 38.1606 2.15094 38.2712C2.03774 38.3818 1.92453 38.603 1.92453 38.8242C1.92453 39.0455 1.81132 39.1561 1.81132 39.3773C1.81132 39.4879 1.92453 39.5985 1.92453 39.5985C1.92453 39.7091 1.92453 39.8197 1.92453 39.9304C1.92453 40.041 2.15094 40.1516 2.26415 40.2622C2.37736 40.3728 2.49057 40.594 2.60377 40.7046C2.71698 40.9258 2.9434 41.0365 3.0566 41.2577C3.39623 41.3683 3.62264 41.4789 3.73585 41.5895C3.96226 41.8107 4.30189 42.1426 4.64151 42.3638C4.75472 42.4744 4.86792 42.6956 4.98113 42.8062C4.98113 42.8062 5.09434 42.8062 5.09434 42.9168C5.20755 43.0274 5.20755 43.0274 5.20755 43.1381C5.32075 43.2487 5.54717 43.4699 5.66038 43.5805C5.77358 43.6911 5.77358 43.9123 5.88679 44.1336C6 44.2442 6 44.4654 6 44.576C6 44.6866 6 44.6866 6 44.7972C6 44.9078 6 45.0184 5.88679 45.1291C5.88679 45.2397 5.88679 45.2397 5.88679 45.3503Z" fill="white"/>
<path d="M13.5616 37.5249C13.6712 37.5249 14 37.5249 14 37.7554C14 37.8707 14 37.9859 13.8904 37.9859C13.8904 38.1012 13.7808 38.1012 13.6712 38.1012C13.5616 38.1012 13.4521 38.1012 13.4521 38.1012C13.4521 38.1012 13.2329 38.1012 13.0137 38.1012C13.0137 38.2165 13.0137 38.3317 13.0137 38.447C13.0137 38.6775 13.0137 38.7928 13.0137 39.0233C13.0137 39.3691 13.0137 39.5997 13.1233 39.9455C13.1233 40.2913 13.1233 40.5218 13.1233 40.8676C13.1233 41.0982 13.1233 41.3287 13.1233 41.5592C13.1233 41.7898 13.1233 42.1356 13.1233 42.3661C13.1233 42.5966 13.0137 42.8272 13.0137 43.173C13.0137 43.4035 13.0137 43.6341 13.0137 43.9799C13.0137 44.3257 13.0137 44.5562 13.0137 44.902C13.0137 45.1325 13.0137 45.3631 13.0137 45.5936C13.0137 45.8242 13.0137 46.0547 13.0137 46.2852C13.0137 46.5158 13.1233 46.8616 13.1233 47.0921C13.1233 47.3226 13.1233 47.4379 12.9041 47.5532C12.6849 47.7837 12.4658 47.7837 12.137 47.7837C11.9178 47.7837 11.6986 47.6684 11.4795 47.6684C11.2603 47.5532 11.0411 47.4379 10.9315 47.3226C10.6027 46.9768 10.3836 46.631 10.1644 46.17C9.94521 45.7089 9.72603 45.2478 9.61644 44.6715C9.50685 44.4409 9.39726 44.0951 9.28767 43.8646C9.17808 43.4035 8.9589 42.9425 8.84931 42.4814C8.73973 42.1356 8.63014 41.905 8.52055 41.5592C8.41096 41.3287 8.30137 41.0982 8.19178 40.8676C8.19178 40.7524 8.08219 40.7524 8.08219 40.7524C8.08219 40.7524 7.9726 40.8676 7.9726 40.9829C7.9726 41.0982 7.9726 41.0982 7.9726 41.2134C7.9726 41.444 7.9726 41.7898 7.9726 42.0203C7.9726 42.5966 7.9726 43.0577 8.08219 43.6341C8.08219 43.7493 8.08219 43.9799 8.08219 44.0951C8.08219 44.4409 8.08219 44.7867 8.08219 45.1325C8.08219 45.5936 8.08219 45.9394 8.08219 46.4005C8.08219 46.5158 8.08219 46.631 8.08219 46.7463C8.08219 46.8616 8.08219 47.0921 8.08219 47.2074C8.41096 47.2074 8.63014 47.2074 8.73973 47.2074C8.84932 47.2074 9.17808 47.2074 9.17808 47.4379C9.17808 47.5532 9.17808 47.6684 9.06849 47.6684C9.06849 47.7837 8.9589 47.7837 8.84931 47.7837C8.73973 47.7837 8.63014 47.7837 8.63014 47.7837C8.63014 47.7837 8.30137 47.7837 8.08219 47.7837C7.86301 47.7837 7.53425 47.7837 7.53425 47.7837C7.31507 47.7837 6.9863 47.7837 6.87671 47.7837C6.76712 47.7837 6.65753 47.7837 6.54795 47.7837C6.43836 47.7837 6.32877 47.7837 6.21918 47.6684C6.10959 47.6684 6 47.4379 6 47.4379V47.3226C6.10959 47.2074 6.21918 47.2074 6.21918 47.2074C6.43836 47.2074 6.87671 47.0921 6.87671 47.0921H6.9863C6.9863 46.4005 6.9863 45.7089 6.9863 45.0173C6.9863 44.7867 6.9863 44.5562 6.9863 44.4409C6.9863 43.7493 6.9863 42.9425 6.9863 42.2508C6.9863 41.7898 6.9863 41.444 6.9863 40.9829C6.9863 40.5218 6.9863 40.0608 6.9863 39.5997C6.9863 39.0233 6.9863 38.447 6.9863 37.8707H6.87671C6.76712 37.8707 6.65753 37.8707 6.54795 37.8707C6.43836 37.8707 6.32877 37.8707 6.21918 37.7554C6.10959 37.7554 6 37.5249 6 37.5249V37.4096C6.10959 37.2943 6.21918 37.2943 6.21918 37.2943C6.43836 37.2943 6.9863 37.1791 7.09589 37.1791C7.20548 37.1791 7.42466 37.1791 7.53425 37.1791C7.64384 37.0638 7.75343 37.0638 7.86301 36.9485C7.9726 36.8333 8.08219 36.8333 8.30137 36.8333C8.52055 36.8333 8.73973 36.9485 8.84931 37.1791C8.9589 37.4096 9.06849 37.5249 9.17808 37.6401C9.28767 37.8707 9.28767 38.1012 9.39726 38.3317C9.61644 38.9081 9.72603 39.1386 9.72603 39.2539C9.83562 39.4844 9.94521 39.715 9.94521 39.9455C10.0548 40.176 10.0548 40.4066 10.1644 40.6371C10.274 40.8676 10.1644 41.0982 10.3836 41.2134C10.6027 41.5592 10.8219 42.1356 10.9315 42.5966C10.9315 42.8272 11.0411 43.0577 11.1507 43.2883C11.2603 43.5188 11.2603 43.7493 11.3699 43.9799C11.3699 44.2104 11.4795 44.4409 11.589 44.6715C11.589 44.7867 11.6986 44.902 11.8082 44.902C11.8082 45.0173 11.8082 45.1325 11.9178 45.2478C11.9178 45.3631 12.0274 45.5936 12.0274 45.7089C12.0274 45.8242 12.137 45.8242 12.137 45.8242C12.137 45.8242 12.2466 45.8242 12.2466 45.7089V45.5936C12.2466 45.3631 12.2466 45.0173 12.2466 44.7867C12.2466 44.2104 12.2466 43.6341 12.2466 43.0577C12.2466 42.5967 12.137 42.0203 12.137 41.5592C12.137 41.2134 12.137 40.8676 12.137 40.4066C12.137 40.176 12.137 39.9455 12.137 39.715C12.137 39.3691 12.137 39.0233 12.137 38.6775C12.137 38.5623 12.137 38.3317 12.137 38.2165C12.0274 38.2165 11.8082 38.2165 11.6986 38.2165C11.589 38.2165 11.4795 38.2165 11.3699 38.2165C11.2603 38.2165 11.1507 38.2165 11.0411 38.1012C10.9315 38.1012 10.8219 37.8707 10.8219 37.8707V37.7554C10.9315 37.6401 11.0411 37.6401 11.0411 37.6401C11.2603 37.6401 11.8082 37.5249 11.9178 37.5249C12.0274 37.5249 12.137 37.5249 12.2466 37.5249C12.3562 37.4096 12.4658 37.4096 12.5753 37.4096C12.6849 37.4096 12.7945 37.4096 12.7945 37.5249C13.1233 37.5249 13.4521 37.5249 13.5616 37.5249Z" fill="white"/>
<path d="M22 47.35C22 47.4584 21.9014 47.4584 21.9014 47.5669C21.8028 47.6753 21.7042 47.6753 21.7042 47.6753C21.6056 47.6753 21.4084 47.6753 21.3099 47.6753C21.2113 47.6753 21.1127 47.6753 21.0141 47.6753H20.9155C20.8169 47.6753 20.8169 47.6753 20.7183 47.7837C20.6197 47.7837 20.5211 47.7837 20.5211 47.7837C20.3239 47.7837 20.1268 47.7837 20.0282 47.6753H19.7324C19.4366 47.6753 19.1408 47.6753 19.0423 47.6753C18.9437 47.6753 18.7465 47.6753 18.6479 47.5669C18.5493 47.5669 18.4507 47.4584 18.4507 47.35C18.4507 47.1332 18.6479 47.1332 18.8451 47.1332C18.9437 47.1332 19.0423 47.1332 19.2394 47.1332C19.2394 47.0248 19.2394 46.9163 19.2394 46.8079C19.2394 46.6995 19.2394 46.4827 19.2394 46.3742C19.2394 46.2658 19.2394 46.2658 19.2394 46.1574C19.2394 46.049 19.2394 45.9406 19.2394 45.9406C19.2394 45.8321 19.2394 45.8321 19.1408 45.7237C19.1408 45.5069 19.0423 45.3985 19.0423 45.1816C19.0423 45.0732 19.0423 44.8564 19.0423 44.7479C19.0423 44.5311 19.0423 44.4227 18.9437 44.2058C18.9437 44.0974 18.9437 44.0974 18.8451 44.0974H18.7465C18.5493 44.0974 18.4507 44.0974 18.2535 44.0974C18.0563 44.0974 17.9577 44.0974 17.7606 44.0974C17.662 44.0974 17.4648 44.0974 17.3662 44.0974C17.2676 44.0974 17.169 44.0974 17.0704 44.0974C16.9718 44.0974 16.9718 44.2058 16.9718 44.3143C16.9718 44.4227 16.8732 44.6395 16.8732 44.8564C16.7746 45.1816 16.7746 45.3985 16.6761 45.7237C16.5775 46.049 16.4789 46.5911 16.3803 46.9163C16.4789 46.9163 16.6761 46.9163 16.8732 46.9163C17.0704 46.9163 17.3662 46.9163 17.3662 47.1332C17.3662 47.2416 17.3662 47.2416 17.2676 47.35C17.169 47.4584 17.0704 47.4584 17.0704 47.4584C16.9718 47.4584 16.8732 47.4584 16.7746 47.4584C16.6761 47.4584 16.5775 47.4584 16.4789 47.4584C16.2817 47.4584 16.0845 47.4584 15.8873 47.4584C15.7887 47.4584 15.6901 47.4584 15.5915 47.4584C15.493 47.4584 15.2958 47.4584 15.1972 47.35C15.0986 47.35 15 47.1332 15 47.1332C15 47.1332 15 47.0248 15.0986 47.0248C15.1972 46.9163 15.2958 46.9163 15.3944 46.9163C15.5915 46.9163 15.7887 46.9163 15.9859 46.8079C15.9859 46.5911 15.9859 46.4827 16.0845 46.3742C16.1831 46.049 16.1831 45.7237 16.2817 45.29C16.2817 45.0732 16.3803 44.7479 16.3803 44.4227C16.3803 44.3143 16.4789 44.0974 16.4789 43.989C16.4789 43.8806 16.1831 43.8806 16.0845 43.7722C15.9859 43.7722 15.9859 43.6637 15.9859 43.5553C15.9859 43.4469 16.0845 43.3385 16.2817 43.3385C16.3803 43.3385 16.5775 43.3385 16.6761 43.2301C16.7746 43.1216 16.7746 42.9048 16.7746 42.7964C16.8732 42.4711 16.9718 42.1458 17.0704 41.8206C17.169 41.4953 17.2676 41.1701 17.3662 40.7364C17.4648 40.4111 17.4648 40.0859 17.5634 39.7606C17.662 39.4353 17.662 39.1101 17.7606 38.7848C17.8592 38.4596 17.9577 38.1343 18.1549 37.809L18.2535 37.4838C18.3521 37.3754 18.3521 37.1585 18.4507 37.0501C18.6479 36.8333 19.0423 36.8333 19.2394 36.8333C19.4366 36.8333 19.5352 36.8333 19.6338 36.9417C19.7324 37.0501 19.7324 37.1585 19.831 37.2669C19.9296 37.3754 20.0282 37.4838 20.0282 37.5922C20.0282 37.7006 20.0282 37.809 20.1268 37.9175C20.2254 38.1343 20.2254 38.4596 20.2254 38.6764C20.3239 38.8932 20.4225 39.2185 20.4225 39.4353C20.4225 39.7606 20.5211 40.0859 20.5211 40.3027C20.6197 40.628 20.6197 40.8448 20.6197 41.1701C20.6197 41.2785 20.6197 41.4953 20.7183 41.6037C20.7183 41.8206 20.8169 42.0374 20.8169 42.1458C20.8169 42.2543 20.8169 42.3627 20.9155 42.5795C20.9155 42.688 21.0141 42.7964 21.0141 42.9048C21.0141 42.9048 21.1127 42.9048 21.2113 42.9048C21.3099 42.9048 21.3099 42.9048 21.4085 42.9048C21.507 42.9048 21.7042 42.9048 21.8028 43.1216V43.2301C21.8028 43.2301 21.8028 43.3385 21.7042 43.3385C21.6056 43.4469 21.507 43.5553 21.4085 43.5553C21.4085 43.5553 21.3099 43.5553 21.2113 43.5553H21.1127C21.1127 43.5553 21.1127 43.5553 21.1127 43.6637C21.1127 43.6637 21.1127 43.7722 21.1127 43.8806C21.1127 43.989 21.1127 43.989 21.1127 44.0974V44.3143C21.1127 44.4227 21.1127 44.4227 21.1127 44.5311C21.1127 44.6395 21.2113 44.8564 21.2113 44.9648C21.2113 45.0732 21.3099 45.29 21.3099 45.3985C21.3099 45.6153 21.4085 45.7237 21.4085 45.8321C21.4085 46.049 21.4085 46.1574 21.507 46.3742C21.507 46.4827 21.507 46.4827 21.507 46.5911C21.6056 46.5911 21.7042 46.5911 21.9014 46.5911C21.8028 47.0248 22 47.2416 22 47.35ZM18.5493 43.2301C18.5493 43.1216 18.5493 43.0132 18.5493 42.9048C18.5493 42.6879 18.4507 42.5795 18.4507 42.3627C18.4507 41.929 18.4507 41.3869 18.4507 40.9532C18.4507 40.7364 18.4507 40.5195 18.3521 40.3027C18.3521 40.0859 18.2535 39.869 18.2535 39.5438C18.2535 39.4353 18.2535 39.1101 18.2535 38.8932C18.2535 38.6764 18.1549 38.568 18.1549 38.568C18.0563 38.568 17.8592 38.7848 17.8592 38.8932C17.8592 39.1101 17.7606 39.2185 17.7606 39.4353C17.7606 39.5438 17.7606 39.6522 17.7606 39.6522C17.7606 39.7606 17.7606 39.869 17.7606 39.869C17.662 40.0859 17.662 40.3027 17.662 40.4111C17.5634 40.8448 17.4648 41.1701 17.3662 41.4953C17.3662 41.7122 17.2676 41.8206 17.2676 42.0374C17.2676 42.2543 17.169 42.4711 17.169 42.6879C17.169 42.7964 17.0704 43.0132 17.0704 43.1216C17.0704 43.1216 17.0704 43.1216 17.169 43.1216C17.2676 43.1216 17.4648 43.1216 17.4648 43.1216C17.5634 43.1216 17.662 43.1216 17.7606 43.1216C17.8592 43.1216 17.9577 43.1216 18.0563 43.1216C18.1549 43.1216 18.2535 43.1216 18.4507 43.1216C18.3521 43.3385 18.3521 43.3385 18.5493 43.2301C18.5493 43.3385 18.4507 43.3385 18.5493 43.2301Z" fill="white"/>
<path d="M28 47.1133C28 47.3367 28 47.7837 27.7 47.7837C27.6 47.7837 27.5 47.7837 27.5 47.672C27.4 47.5602 27.4 47.4485 27.4 47.4485C27.3 47.1133 27.4 46.8898 27.4 46.6663C27.3 46.7781 27.1 47.1133 27 47.225C26.7 47.5602 26.3 47.7837 25.8 47.7837C25.7 47.7837 25.6 47.7837 25.5 47.7837C25.2 47.672 24.8 47.5602 24.5 47.4485C24.2 47.3368 24 47.1133 23.8 46.8898C23.6 46.6663 23.4 46.3311 23.3 45.9959C23.2 45.6607 23.1 45.3254 23.1 44.9902C23.1 44.5433 23 44.208 23 43.7611C23 43.3141 23 42.9789 23 42.6437C23 42.3085 23 41.8615 23.1 41.5263C23.2 41.1911 23.3 40.7441 23.4 40.4089C23.5 40.0737 23.6 39.6267 23.8 39.2915C23.9 38.9563 24.1 38.7328 24.3 38.3976C24.5 38.1741 24.7 37.8389 24.9 37.6154C25.1 37.3919 25.4 37.2802 25.7 37.1685C25.9 37.0567 26.1 37.0567 26.4 37.0567C26.5 37.0567 26.6 37.0567 26.7 37.0567C26.8 37.0567 26.9 37.1685 27 37.2802C27.1 37.3919 27.1 37.5037 27.2 37.6154C27.3 37.7272 27.3 37.8389 27.4 37.9506C27.4 37.8389 27.4 37.6154 27.4 37.5037C27.4 37.3919 27.4 37.1685 27.5 37.0567C27.5 36.945 27.5 36.945 27.6 36.945L27.7 36.8333L27.8 36.945C27.9 37.0567 27.9 37.1685 27.9 37.2802C27.9 37.3919 27.9 37.7272 27.9 37.9506C27.9 38.3976 27.9 38.8446 27.9 38.9563C27.9 39.2915 27.9 39.515 27.9 39.8502V39.962C27.9 40.0737 27.9 40.0737 27.9 40.1854C27.9 40.4089 27.8 40.5206 27.7 40.5206C27.6 40.5206 27.5 40.5206 27.5 40.4089C27.4 40.4089 27.4 40.2972 27.4 40.1854C27.3 39.8502 27.4 39.7385 27.4 39.515V39.4033C27.3 39.068 27.3 38.8446 27.2 38.5093C27.1 38.2859 26.8 37.8389 26.5 37.8389C26.3 37.8389 26.2 37.9506 26 38.0624C25.9 38.0624 25.9 38.1741 25.9 38.1741L25.8 38.2859C25.7 38.3976 25.8 38.6211 25.7 38.7328C25.6 38.9563 25.6 39.068 25.6 39.2915C25.5 39.6267 25.5 39.962 25.4 40.2972C25.3 40.6324 25.3 40.9676 25.3 41.3028C25.3 41.4146 25.3 41.4146 25.3 41.5263C25.3 41.638 25.3 41.638 25.3 41.7498C25.3 41.8615 25.3 41.9733 25.3 42.085V42.1967C25.3 42.3085 25.3 42.3085 25.3 42.4202V42.532C25.3 42.532 25.3 42.6437 25.3 42.7554C25.3 42.8672 25.3 42.9789 25.3 43.0907C25.3 43.4259 25.4 43.8728 25.4 44.208C25.4 44.5433 25.4 44.9902 25.5 45.3254C25.5 45.4372 25.5 45.6607 25.6 45.7724C25.6 45.8841 25.8 46.1076 25.8 46.2194C25.9 46.5546 26.1 46.7781 26.4 46.7781C26.7 46.7781 27.1 46.4428 27.2 46.1076C27.3 45.8841 27.4 45.7724 27.5 45.5489C27.5 45.102 27.5 44.5433 27.5 44.4315C27.5 44.3198 27.5 44.0963 27.6 43.9846C27.6 43.8728 27.6 43.8728 27.7 43.7611L27.8 43.6493L27.9 43.7611C28 43.8728 28 43.9846 28 44.0963C28 44.208 28 44.8785 28 45.2137C28 45.6607 28 46.1076 28 46.2194C28 46.6663 28 46.778 28 47.1133Z" fill="white"/>
<path d="M33.8451 41.5895C33.7324 41.8107 33.507 42.032 33.507 42.2532C33.507 42.3638 33.8451 42.3638 34.0704 42.585C34.4085 42.6956 34.7465 43.0274 34.9718 43.3593C35.0845 43.5805 35.1972 43.6911 35.1972 43.8017C35.3099 44.0229 35.3099 44.1336 35.4225 44.3548C35.4225 44.576 35.5352 44.6866 35.5352 44.9078C35.6479 45.1291 35.6479 45.3503 35.6479 45.4609C35.6479 45.5715 35.6479 45.7927 35.7606 45.9033C35.7606 46.0139 35.8732 46.0139 35.8732 46.1245C35.8732 46.2352 35.9859 46.3458 35.9859 46.3458C35.9859 46.567 36.0986 46.6776 36.2113 46.7882C36.3239 47.0094 36.4366 47.0094 36.5493 47.12C36.662 47.12 36.7747 47.3413 36.7747 47.4519V47.5625C36.662 47.6731 36.4366 47.7837 36.2113 47.7837C35.9859 47.7837 35.6479 47.7837 35.4225 47.6731C35.0845 47.5625 34.7465 47.2307 34.6338 47.12C34.5211 47.0094 34.4085 46.8988 34.2958 46.6776C34.1831 46.567 34.1831 46.3458 34.0704 46.1245C33.9577 45.7927 33.8451 45.5715 33.7324 45.1291C33.6197 44.9078 33.6197 44.576 33.507 44.3548C33.507 44.2442 33.3944 44.0229 33.3944 43.9123C33.3944 43.8017 33.2817 43.6911 33.2817 43.5805C33.169 43.3593 33.169 43.2487 32.9437 43.2487C32.9437 43.2487 32.831 43.2487 32.831 43.3593C32.7183 43.4699 32.6056 43.5805 32.493 43.6911C32.3803 43.8017 32.2676 44.0229 32.2676 44.2442C32.2676 44.3548 32.2676 44.4654 32.2676 44.576C32.2676 44.576 32.2676 44.576 32.2676 44.6866C32.2676 44.7972 32.2676 45.0184 32.2676 45.2397C32.2676 45.6821 32.2676 46.0139 32.2676 46.4564C32.2676 46.567 32.2676 46.7882 32.2676 46.8988C32.493 46.8988 32.6056 46.8988 32.7183 46.8988C32.9437 46.8988 33.3944 46.8988 33.3944 47.12C33.3944 47.2307 33.3944 47.3413 33.2817 47.3413C33.169 47.4519 33.0563 47.4519 32.9437 47.4519C32.831 47.4519 32.7183 47.4519 32.6056 47.4519C32.6056 47.4519 32.2676 47.4519 32.0423 47.4519C31.9296 47.5625 31.8169 47.5625 31.7042 47.5625C31.5915 47.5625 31.3662 47.5625 31.2535 47.4519H31.0282C30.8028 47.4519 30.3521 47.4519 30.1268 47.4519C30.0141 47.4519 29.9014 47.4519 29.6761 47.4519C29.5634 47.4519 29.338 47.4519 29.2254 47.3413C29.1127 47.3413 29 47.12 29 47.12C29 47.12 29 47.0094 29.1127 47.0094C29.2254 46.8988 29.338 46.8988 29.4507 46.8988C29.7887 46.8988 30.1268 46.7882 30.2394 46.7882C30.3521 46.7882 30.4648 46.7882 30.5775 46.7882V46.6776C30.3521 46.3458 30.3521 45.9033 30.3521 45.5715C30.3521 45.1291 30.3521 44.6866 30.3521 44.1336C30.3521 43.5805 30.3521 43.1381 30.3521 42.585C30.3521 42.1426 30.3521 41.7001 30.3521 41.2577C30.3521 40.8152 30.3521 40.4834 30.3521 40.041C30.3521 39.8197 30.3521 39.5985 30.3521 39.2667C30.3521 39.0455 30.3521 38.8242 30.3521 38.7136C30.3521 38.3818 30.3521 38.05 30.3521 37.7181C30.3521 37.7181 30.3521 37.7181 30.1268 37.7181C30.0141 37.7181 29.9014 37.7181 29.6761 37.7181C29.5634 37.7181 29.338 37.7181 29.2254 37.6075C29.1127 37.6075 29 37.3863 29 37.3863C29 37.3863 29 37.2757 29.1127 37.2757C29.2254 37.1651 29.338 37.1651 29.4507 37.1651C29.7887 37.1651 30.2394 37.0545 30.3521 37.0545H30.4648C30.5775 36.9439 30.6901 36.8333 30.9155 36.8333H31.0282C31.1408 36.8333 31.3662 36.9439 31.4789 36.9439C32.0423 36.9439 32.6056 36.9439 32.831 36.9439C33.0563 36.9439 33.507 36.9439 33.507 37.1651C33.507 37.2757 33.507 37.3863 33.3944 37.3863C33.2817 37.4969 33.169 37.4969 33.0563 37.4969C32.9437 37.4969 32.831 37.4969 32.7183 37.4969C32.6056 37.4969 32.2676 37.4969 31.9296 37.4969C32.0423 37.6075 32.0423 37.7181 32.0423 37.9394C32.0423 38.05 32.0423 38.05 32.0423 38.1606C32.0423 38.2712 32.0423 38.2712 32.0423 38.2712C32.0423 38.3818 32.0423 38.603 32.1549 38.8242V38.9349C32.1549 39.0455 32.1549 39.1561 32.1549 39.2667C32.1549 39.4879 32.1549 39.7091 32.2676 39.9304C32.2676 40.1516 32.3803 40.2622 32.3803 40.4834C32.3803 40.594 32.3803 40.8152 32.3803 40.9258V41.0365C32.3803 41.1471 32.3803 41.2577 32.3803 41.3683C32.3803 41.4789 32.3803 41.5895 32.3803 41.7001C32.3803 41.8107 32.3803 41.9213 32.493 41.9213C32.6056 41.9213 32.6056 41.8107 32.7183 41.7001C32.831 41.4789 32.9437 41.2577 33.0563 41.1471C33.169 41.0365 33.169 40.8152 33.2817 40.7046C33.3944 40.4834 33.6197 40.2622 33.7324 39.9304C33.8451 39.7091 33.9577 39.4879 34.0704 39.3773C34.1831 39.1561 34.4085 38.8242 34.5211 38.603C34.6338 38.2712 34.8592 37.9394 34.9718 37.7181C34.9718 37.7181 34.9718 37.7181 34.9718 37.6075C34.8592 37.6075 34.8592 37.6075 34.7465 37.6075C34.6338 37.6075 34.5211 37.6075 34.4085 37.4969C34.2958 37.4969 34.1831 37.2757 34.1831 37.2757V37.1651C34.1831 37.0545 34.4085 37.0545 34.4085 37.0545C34.6338 37.0545 34.8592 36.9439 34.9718 36.9439C35.0845 36.9439 35.0845 36.9439 35.1972 36.9439C35.1972 36.9439 35.1972 36.9439 35.3099 36.9439C35.4225 36.9439 35.4225 36.8333 35.5352 36.8333C35.6479 36.8333 35.6479 36.8333 35.7606 36.8333H35.8732C36.2113 36.8333 36.4366 36.8333 36.5493 36.8333C36.662 36.8333 37 36.8332 37 37.0545C37 37.1651 37 37.2757 36.8873 37.2757C36.8873 37.3863 36.7746 37.3863 36.662 37.3863C36.5493 37.3863 36.4366 37.3863 36.4366 37.3863C36.4366 37.3863 36.0986 37.3863 35.7606 37.3863C35.6479 37.4969 35.6479 37.6075 35.5352 37.7181C35.3099 38.05 35.1972 38.3818 35.0845 38.603C34.8592 38.9349 34.7465 39.3773 34.6338 39.7091C34.2958 40.9258 34.0704 41.2577 33.8451 41.5895Z" fill="white"/>
<path d="M41.4 47.2074C41.6 47.2074 42 47.2074 42 47.4379C42 47.5532 42 47.5532 41.9 47.6684C41.8 47.7837 41.7 47.7837 41.6 47.7837C41.5 47.7837 41.4 47.7837 41.3 47.7837C41.3 47.7837 41 47.7837 40.7 47.7837C40.3 47.7837 39.9 47.7837 39.9 47.7837C39.7 47.7837 39.3 47.7837 39.1 47.7837C39 47.7837 38.9 47.7837 38.7 47.7837C38.6 47.7837 38.4 47.7837 38.3 47.6684C38.2 47.6684 38.1 47.4379 38.1 47.4379C38.1 47.4379 38.1 47.3226 38.2 47.3226C38.3 47.2074 38.4 47.2074 38.5 47.2074C38.8 47.2074 39.1 47.0921 39.2 47.0921C39.2 47.0921 39.3 47.0921 39.4 47.0921C39.2 47.2074 39.1 47.0921 39.1 46.8616C39.1 46.7463 39.1 46.7463 39.1 46.631V46.5158V46.4005C39.1 46.2852 39.1 46.0547 39.1 45.9394C39.1 45.8242 39.1 45.8242 39.1 45.7089C39.1 44.902 39.1 44.0951 39.1 43.173C39.1 42.7119 39.1 42.2508 39.1 41.905C39.1 41.5592 39.1 41.0982 39.1 40.7524C39.1 40.5218 39.1 40.2913 39.1 40.176V39.3691C39.1 39.0233 39.1 38.6775 39.1 38.2165V38.1012H39C38.9 38.1012 38.8 38.1012 38.6 38.1012C38.5 38.1012 38.3 38.1012 38.2 37.9859C38.1 37.9859 38 37.7554 38 37.7554V37.6401C38.1 37.5249 38.2 37.5249 38.3 37.5249C38.6 37.5249 38.9 37.4096 39 37.4096V37.2943C39 37.1791 39 37.1791 39 37.0638C39 36.9485 39.2 36.9485 39.2 36.9485C39.3 36.9485 39.4 36.8333 39.4 36.8333C39.5 36.8333 39.5 36.8333 39.6 36.8333C39.7 36.8333 39.8 36.8333 39.9 36.8333C40.1 36.9485 40.3 37.0638 40.4 37.2943C40.7 37.2943 41 37.2943 41.1 37.2943C41.3 37.2943 41.7 37.2943 41.7 37.5249C41.7 37.6401 41.7 37.6401 41.6 37.7554C41.5 37.8707 41.4 37.8707 41.3 37.8707C41.2 37.8707 41.1 37.8707 41 37.8707C41 37.8707 40.8 37.8707 40.6 37.8707C40.6 38.1012 40.7 38.3317 40.7 38.447C40.7 38.6775 40.7 38.9081 40.7 39.0233C40.7 39.2539 40.7 39.3691 40.7 39.5997C40.7 39.715 40.7 39.8302 40.7 39.9455C40.7 40.0608 40.7 40.0608 40.7 40.176C40.8 40.6371 40.7 40.9829 40.8 41.444C40.8 41.905 40.8 42.3661 40.8 42.8272C40.8 43.173 40.8 43.6341 40.8 43.9799C40.8 44.4409 40.9 44.7867 40.9 45.2478C40.9 45.4783 40.9 45.7089 40.9 45.8242C40.9 46.0547 40.9 46.2852 40.9 46.5158C40.9 46.7463 40.9 46.8616 40.8 47.0921C41.2 47.2074 41.3 47.2074 41.4 47.2074Z" fill="white"/>
<path d="M49.5676 37.5249C49.6757 37.5249 50 37.5249 50 37.7554C50 37.8707 50 37.9859 49.8919 37.9859C49.8919 38.1012 49.7838 38.1012 49.6757 38.1012C49.5676 38.1012 49.4595 38.1012 49.4595 38.1012C49.4595 38.1012 49.2432 38.1012 48.9189 38.1012C48.9189 38.2165 48.9189 38.3317 48.9189 38.447C48.9189 38.6775 48.9189 38.7928 48.9189 39.0233C48.9189 39.3691 48.9189 39.5997 49.027 39.9455C49.027 40.2913 49.027 40.5218 49.027 40.8676C49.027 41.0982 49.027 41.3287 49.027 41.5592C49.027 41.7898 49.027 42.1356 49.027 42.3661C49.027 42.5966 48.9189 42.8272 48.9189 43.173C48.9189 43.4035 48.9189 43.6341 48.9189 43.9799C48.9189 44.3257 48.9189 44.5562 48.9189 44.902C48.9189 45.1325 48.9189 45.3631 48.9189 45.5936C48.9189 45.8242 48.9189 46.0547 48.9189 46.2852C48.9189 46.5158 49.027 46.8616 49.027 47.0921C49.027 47.3226 49.027 47.4379 48.8108 47.5532C48.5946 47.7837 48.3784 47.7837 48.0541 47.7837C47.8378 47.7837 47.6216 47.6684 47.4054 47.6684C47.1892 47.5532 46.973 47.4379 46.8649 47.3226C46.5405 46.9768 46.3243 46.631 46.1081 46.17C45.8919 45.7089 45.6757 45.2478 45.5676 44.6715C45.4595 44.4409 45.3514 44.0951 45.2432 43.8646C45.1351 43.4035 44.9189 42.9425 44.8108 42.4814C44.7027 42.1356 44.5946 41.905 44.4865 41.5592C44.3784 41.3287 44.2703 41.0982 44.1622 40.8676C44.1622 40.7524 44.0541 40.7524 44.0541 40.7524C44.0541 40.7524 43.9459 40.8676 43.9459 40.9829C43.9459 41.0982 43.9459 41.0982 43.9459 41.2134C43.9459 41.444 43.9459 41.7898 43.9459 42.0203C43.9459 42.5966 43.9459 43.0577 44.0541 43.6341C44.0541 43.7493 44.0541 43.9799 44.0541 44.0951C44.0541 44.4409 44.0541 44.7867 44.0541 45.1325C44.0541 45.5936 44.0541 45.9394 44.0541 46.4005C44.0541 46.5158 44.0541 46.631 44.0541 46.7463C44.0541 46.8616 44.0541 47.0921 44.0541 47.2074C44.3784 47.2074 44.5946 47.2074 44.7027 47.2074C44.8108 47.2074 45.1351 47.2074 45.1351 47.4379C45.1351 47.5532 45.1351 47.6684 45.027 47.6684C45.027 47.7837 44.9189 47.7837 44.8108 47.7837C44.7027 47.7837 44.5946 47.7837 44.5946 47.7837C44.5946 47.7837 44.2703 47.7837 44.0541 47.7837C43.8378 47.7837 43.5135 47.7837 43.5135 47.7837C43.2973 47.7837 42.973 47.7837 42.8649 47.7837C42.7568 47.7837 42.6486 47.7837 42.5405 47.7837C42.4324 47.7837 42.3243 47.7837 42.2162 47.6684C42.1081 47.6684 42 47.4379 42 47.4379V47.3226C42.1081 47.2074 42.2162 47.2074 42.2162 47.2074C42.4324 47.2074 42.8649 47.0921 42.8649 47.0921H42.973C42.973 46.4005 42.973 45.7089 42.973 45.0173C42.973 44.7867 42.973 44.5562 42.973 44.4409C42.973 43.7493 42.973 42.9425 42.973 42.2508C42.973 41.7898 42.973 41.444 42.973 40.9829C42.973 40.5218 42.973 40.0608 42.973 39.5997C42.973 39.0233 42.973 38.447 42.973 37.8707C42.8649 37.8707 42.7568 37.8707 42.6487 37.8707C42.5405 37.8707 42.4324 37.8707 42.3243 37.7554C42.2162 37.7554 42.1081 37.5249 42.1081 37.5249V37.4096C42.2162 37.2943 42.3243 37.2943 42.3243 37.2943C42.5405 37.2943 43.0811 37.1791 43.1892 37.1791C43.2973 37.1791 43.5135 37.1791 43.7297 37.1791C43.8378 37.0638 43.9459 37.0638 43.9459 36.9485C44.0541 36.8333 44.1622 36.8333 44.3784 36.8333C44.5946 36.8333 44.8108 36.9485 44.9189 37.1791C45.027 37.4096 45.1351 37.5249 45.2432 37.6401C45.3514 37.8707 45.3514 38.1012 45.4595 38.3317C45.5676 38.5623 45.5676 38.7928 45.6757 38.9081C45.7838 39.1386 45.8919 39.3691 45.8919 39.5997C46 39.8302 46 40.0608 46.1081 40.2913C46.2162 40.5218 46.1081 40.7524 46.3243 40.8676C46.5405 41.3287 46.7568 41.7898 46.8649 42.2508C46.8649 42.4814 46.973 42.7119 47.0811 42.9425C47.2973 43.5188 47.2973 43.7493 47.2973 43.9799C47.2973 44.2104 47.4054 44.4409 47.5135 44.6715C47.5135 44.7867 47.6216 44.902 47.7297 44.902C47.7297 45.0173 47.7297 45.1325 47.8378 45.2478C47.8378 45.3631 47.9459 45.5936 47.9459 45.7089C47.9459 45.8242 48.0541 45.8242 48.0541 45.8242C48.0541 45.8242 48.1622 45.8242 48.1622 45.7089V45.5936C48.1622 45.3631 48.1622 45.0173 48.1622 44.7867C48.1622 44.2104 48.1622 43.6341 48.1622 43.0577C48.1622 42.5967 48.0541 42.0203 48.0541 41.5592C48.0541 41.2134 48.0541 40.8676 48.0541 40.4066C48.0541 40.176 48.0541 39.9455 48.0541 39.715C48.0541 39.3691 48.0541 39.0233 48.0541 38.6775C48.0541 38.5623 48.0541 38.3317 48.0541 38.2165C47.9459 38.2165 47.7297 38.2165 47.6216 38.2165C47.5135 38.2165 47.4054 38.2165 47.2973 38.2165C47.1892 38.2165 47.0811 38.2165 46.973 38.1012C46.8649 38.1012 46.7568 37.8707 46.7568 37.8707V37.7554C46.8649 37.6401 46.973 37.6401 46.973 37.6401C47.1892 37.6401 47.7297 37.5249 47.8378 37.5249C47.9459 37.5249 48.0541 37.5249 48.1622 37.5249C48.2703 37.4096 48.3784 37.4096 48.4865 37.4096C48.5946 37.4096 48.7027 37.4096 48.7027 37.5249C49.1351 37.5249 49.3514 37.5249 49.5676 37.5249Z" fill="white"/>
<path d="M58 43.075C58 43.1845 57.7705 43.294 57.6557 43.4035C57.4262 43.513 57.1967 43.513 56.9672 43.513C56.7377 43.513 56.623 43.513 56.623 43.732C56.623 43.8415 56.623 44.1701 56.623 44.2796C56.623 44.3891 56.623 44.7176 56.623 44.8271C56.623 44.9366 56.623 45.0461 56.623 45.1556C56.623 45.5936 56.623 46.0316 56.623 46.1411C56.623 46.4697 56.623 46.6887 56.623 47.0172C56.623 47.2362 56.623 47.6742 56.2787 47.6742C56.1639 47.6742 56.0492 47.6742 56.0492 47.5647C55.9344 47.4552 55.9344 47.3457 55.9344 47.3457C55.9344 47.2362 55.9344 47.1267 55.9344 47.0172C55.9344 46.9077 55.9344 46.7982 55.9344 46.5792C55.8197 46.9077 55.5902 47.2362 55.3607 47.3457C54.9016 47.6742 54.5574 47.7837 54.0984 47.7837C53.7541 47.7837 53.4098 47.7837 53.1803 47.6742C52.8361 47.5647 52.4918 47.3457 52.2623 47.1267C51.918 46.7982 51.6885 46.3601 51.459 45.9221C51.2295 45.5936 51.2295 45.2651 51.1148 44.9366C51.1148 44.7176 51 44.4986 51 44.1701C51 43.951 51 43.732 51 43.513C51 42.637 51.2295 41.761 51.459 40.8849C51.5738 40.4469 51.6885 40.0089 51.8033 39.5709C51.918 39.1328 52.1475 38.6948 52.4918 38.2568C52.7213 37.9283 53.0656 37.5998 53.4098 37.2713C53.5246 37.1618 53.7541 37.0523 53.8689 37.0523C54.0984 36.9428 54.3279 36.8333 54.5574 36.8333H54.6721C54.7869 36.8333 54.9016 36.8333 55.0164 36.8333C55.2459 36.8333 55.4754 36.9428 55.5902 37.0523C55.7049 37.1618 55.8197 37.2713 55.9344 37.3808C55.9344 37.2713 55.9344 37.1618 56.0492 37.0523C56.0492 36.9428 56.0492 36.9428 56.1639 36.9428L56.2787 36.8333L56.3934 36.9428C56.5082 37.0523 56.5082 37.1618 56.5082 37.2713C56.5082 37.3808 56.5082 37.7093 56.5082 37.9283C56.5082 38.3663 56.5082 38.8043 56.5082 38.9138C56.5082 39.2423 56.5082 39.4614 56.5082 39.7899C56.5082 40.0089 56.5082 40.4469 56.1639 40.4469C56.0492 40.4469 55.9344 40.4469 55.9344 40.3374C55.8197 40.2279 55.8197 40.1184 55.8197 40.1184C55.8197 40.0089 55.8197 39.8994 55.8197 39.8994C55.8197 39.7899 55.8197 39.6804 55.8197 39.4614C55.8197 39.3519 55.8197 39.2424 55.8197 39.1328C55.8197 38.9138 55.7049 38.6948 55.7049 38.4758C55.7049 38.2568 55.5902 38.0378 55.4754 37.8188C55.3607 37.7093 55.1311 37.5998 55.0164 37.5998C54.7869 37.5998 54.6721 37.7093 54.5574 37.9283C54.4426 38.1473 54.3279 38.2568 54.2131 38.4758C54.0984 38.6948 54.0984 38.9138 54.0984 39.1328C54.0984 39.3519 53.9836 39.5709 53.9836 39.7899C53.8689 40.0089 53.8689 40.2279 53.8689 40.5564C53.8689 40.7754 53.7541 40.9944 53.7541 41.2134C53.7541 41.4324 53.6393 41.6515 53.6393 41.761C53.6393 41.98 53.6393 42.199 53.5246 42.418C53.5246 42.637 53.5246 42.856 53.4098 43.075C53.4098 43.294 53.4098 43.513 53.4098 43.6225C53.4098 43.951 53.4098 44.1701 53.4098 44.4986C53.4098 44.8271 53.5246 45.2651 53.6393 45.5936C53.6393 45.7031 53.7541 45.9221 53.7541 46.0316C53.7541 46.2506 53.8689 46.3601 53.9836 46.5792C54.0984 46.7982 54.4426 47.1267 54.7869 47.1267C55.0164 47.1267 55.2459 46.9077 55.3607 46.6887C55.5902 46.3601 55.7049 46.0316 55.8197 45.7031C55.9344 45.3746 55.9344 45.0461 55.9344 44.7176C55.9344 44.4986 55.9344 44.1701 55.9344 43.951V43.8415C55.9344 43.6225 55.9344 43.6225 55.7049 43.6225C55.4754 43.6225 55.2459 43.6225 55.0164 43.6225C54.7869 43.6225 54.6721 43.6225 54.4426 43.513C54.3279 43.513 54.3279 43.4035 54.3279 43.4035C54.3279 43.4035 54.3279 43.294 54.4426 43.294C54.5574 43.1845 54.6721 43.1845 54.7869 43.075C55.0164 42.9655 55.2459 42.9655 55.4754 42.856C55.7049 42.856 55.9344 42.856 56.1639 42.7465C56.3934 42.7465 56.5082 42.7465 56.7377 42.7465C56.9672 42.7465 57.4262 42.7465 57.6557 42.7465C57.7705 42.856 58 42.9655 58 43.075Z" fill="white"/>
<path d="M69.3407 47.0094C69.5604 47.0094 70 47.0094 70 47.2307C70 47.3413 70 47.4519 69.8901 47.4519C69.7802 47.5625 69.6703 47.5625 69.5604 47.5625C69.4505 47.5625 69.3407 47.5625 69.2308 47.5625C69.2308 47.5625 69.011 47.5625 68.6813 47.5625C68.4615 47.6731 68.2418 47.7837 67.9121 47.7837C67.8022 47.7837 67.5824 47.7837 67.4725 47.6731C67.3626 47.6731 67.3626 47.5625 67.2527 47.5625C67.033 47.5625 66.8132 47.5625 66.5934 47.5625C66.4835 47.5625 66.3736 47.5625 66.1538 47.5625C66.044 47.5625 65.8242 47.5625 65.7143 47.4519C65.6044 47.4519 65.4945 47.2307 65.4945 47.2307C65.4945 47.2307 65.4945 47.12 65.6044 47.12C65.7143 47.0094 65.8242 47.0094 65.9341 47.0094C66.2637 47.0094 66.7033 46.8988 66.8132 46.8988H66.9231C66.9231 46.7882 66.9231 46.7882 66.9231 46.6776C66.8132 46.2352 66.8132 45.7927 66.8132 45.2397C66.8132 44.6866 66.8132 44.1336 66.8132 43.5805C66.8132 43.1381 66.8132 42.585 66.8132 42.1426C66.8132 41.7001 66.8132 41.1471 66.8132 40.7046C66.8132 40.2622 66.8132 39.7091 66.8132 39.4879C66.8132 39.3773 66.8132 39.3773 66.8132 39.3773C66.8132 39.3773 66.8132 39.3773 66.8132 39.4879C66.8132 39.7091 66.7033 39.9304 66.7033 40.041C66.5934 40.4834 66.4835 40.9258 66.3736 41.3683C66.2637 41.8107 66.1538 42.2532 66.1538 42.585C66.1538 42.8062 66.044 43.0274 66.044 43.2487C66.044 43.4699 65.9341 43.6911 65.9341 43.9123C65.9341 44.1336 65.8242 44.3548 65.7143 44.576C65.6044 44.6866 65.3846 44.7972 65.1648 44.7972C64.8352 44.7972 64.5055 44.6866 64.2857 44.4654C63.956 44.1336 63.8462 43.6911 63.7363 43.3593C63.6264 42.9168 63.5165 42.4744 63.4066 42.032C63.4066 41.9213 63.2967 41.5895 63.1868 41.1471C63.0769 40.7046 62.967 40.2622 62.8571 39.8197C62.7473 39.4879 62.7473 39.2667 62.6374 39.1561C62.6374 39.0455 62.6374 39.0455 62.6374 39.0455C62.6374 39.0455 62.6374 39.1561 62.5275 39.2667C62.5275 39.3773 62.5275 39.5985 62.5275 39.7091C62.5275 39.9304 62.5275 40.1516 62.5275 40.2622C62.5275 40.3728 62.5275 40.7046 62.5275 40.9258C62.5275 41.1471 62.5275 41.4789 62.5275 41.7001C62.5275 41.9213 62.5275 42.1426 62.5275 42.3638C62.5275 42.585 62.5275 42.6956 62.5275 42.9168C62.5275 43.0274 62.5275 43.2487 62.5275 43.3593C62.5275 43.4699 62.5275 43.5805 62.5275 43.6911C62.5275 43.9123 62.4176 44.1336 62.4176 44.4654C62.3077 44.9078 62.3077 45.4609 62.1978 45.9033C62.1978 46.1245 62.1978 46.3458 62.1978 46.6776C62.1978 46.7882 62.1978 46.7882 62.1978 46.8988C62.5275 46.8988 62.8571 46.8988 63.0769 46.8988C63.2967 46.8988 63.6264 46.8988 63.6264 47.2307C63.6264 47.3413 63.5165 47.3413 63.5165 47.4519C63.5165 47.5625 63.4066 47.5625 63.2967 47.5625C63.1868 47.5625 63.0769 47.5625 62.967 47.5625C62.8571 47.5625 62.0879 47.5625 61.8681 47.5625C61.6484 47.5625 61.0989 47.5625 60.8791 47.5625C60.7692 47.5625 60.6593 47.5625 60.5495 47.5625C60.4396 47.5625 60.3297 47.5625 60.2198 47.4519C60.1099 47.3413 60 47.2307 60 47.2307C60 47.2307 60 47.12 60.1099 47.12C60.2198 47.0094 60.3297 47.0094 60.3297 47.0094C60.5495 47.0094 61.0989 46.8988 61.0989 46.8988C61.0989 46.8988 61.2088 46.8988 61.3187 46.8988C61.3187 46.4564 61.4286 46.0139 61.4286 45.6821C61.4286 45.1291 61.5385 44.6866 61.5385 44.1336C61.5385 43.6911 61.5385 43.2487 61.6484 42.8062C61.6484 42.1426 61.6484 41.5895 61.7582 40.9258C61.7582 40.594 61.7582 40.2622 61.8681 39.9303C61.8681 39.4879 61.978 39.1561 62.0879 38.603C62.0879 38.3818 62.0879 38.1606 62.1978 37.8287C62.1978 37.8287 62.1978 37.8287 62.1978 37.7181C62.0879 37.7181 61.978 37.7181 61.8681 37.7181C61.7582 37.7181 61.6484 37.7181 61.4286 37.7181C61.2088 37.7181 61.0989 37.7181 60.989 37.6075C60.8791 37.6075 60.7692 37.3863 60.7692 37.3863C60.7692 37.3863 60.7692 37.2757 60.8791 37.2757C60.989 37.1651 61.0989 37.1651 61.2088 37.1651C61.5385 37.1651 61.978 37.0545 62.0879 37.0545C62.4176 37.0545 62.7473 37.0545 63.0769 37.0545H63.1868C63.2967 37.0545 63.5165 37.0545 63.6264 37.1651C63.8462 37.2757 64.0659 37.4969 64.2857 37.9394C64.3956 38.3818 64.6154 38.8242 64.7253 39.2667C64.7253 39.4879 64.7253 39.7091 64.8352 39.8197C64.9451 40.041 64.9451 40.2622 65.0549 40.4834C65.0549 40.7046 65.0549 40.9258 65.1648 41.0365C65.2747 41.2577 65.2747 41.3683 65.2747 41.5895C65.2747 41.7001 65.3846 41.9213 65.4945 42.2532C65.6044 42.4744 65.6044 42.6956 65.7143 42.6956C65.8242 42.6956 65.8242 42.1426 65.8242 42.032C65.8242 41.8107 65.9341 41.5895 65.9341 41.2577C66.044 40.8152 66.1538 40.2622 66.2637 39.8197C66.3736 39.2667 66.4835 38.8242 66.5934 38.2712C66.7033 37.8287 66.8132 37.4969 67.1429 37.1651C67.3626 36.9439 67.5824 36.8333 67.9121 36.8333C68.022 36.8333 68.1319 36.8333 68.2418 36.9439H69.3407C69.5604 36.9439 70 36.9439 70 37.1651C70 37.2757 70 37.2757 69.8901 37.3863C69.7802 37.4969 69.6703 37.4969 69.5604 37.4969C69.4505 37.4969 69.3407 37.4969 69.2308 37.4969C69.1209 37.4969 69.011 37.4969 68.7912 37.4969V37.6075C68.7912 37.8287 68.9011 38.05 68.9011 38.2712C68.9011 38.4924 68.9011 38.7136 69.011 38.9349C69.011 39.0455 69.1209 39.2667 69.1209 39.3773C69.1209 39.3773 69.1209 39.3773 69.1209 39.4879V39.5985C69.1209 39.7091 69.1209 39.9304 69.1209 40.041C69.1209 40.2622 69.2308 40.4834 69.2308 40.7046C69.2308 40.8152 69.2308 40.8152 69.2308 40.9258C69.2308 41.0365 69.3407 41.1471 69.3407 41.2577C69.3407 41.3683 69.3407 41.3683 69.3407 41.4789C69.3407 41.5895 69.3407 41.7001 69.3407 41.9213C69.3407 42.032 69.3407 42.1426 69.3407 42.3638C69.3407 42.4744 69.3407 42.6956 69.4505 42.8062C69.4505 42.9168 69.4505 43.0274 69.4505 43.1381C69.4505 43.2487 69.4505 43.2487 69.4505 43.3593C69.4505 43.4699 69.4505 43.4699 69.4505 43.4699C69.4505 43.5805 69.5604 43.6911 69.5604 43.8017C69.5604 44.0229 69.5604 44.1336 69.6703 44.3548C69.6703 44.576 69.6703 44.7972 69.7802 45.1291V45.2397C69.7802 45.3503 69.7802 45.4609 69.7802 45.4609C69.7802 45.6821 69.7802 45.7927 69.7802 45.7927C69.7802 45.9033 69.7802 45.9033 69.7802 46.0139C69.7802 46.1245 69.7802 46.1245 69.7802 46.2352V46.3458C69.7802 46.4564 69.7802 46.567 69.7802 46.6776V46.7882C69.2308 47.0094 69.3407 47.0094 69.3407 47.0094Z" fill="white"/>
<path d="M79 47.35C79 47.4584 78.8873 47.4584 78.8873 47.5669C78.7747 47.6753 78.662 47.6753 78.662 47.6753C78.5493 47.6753 78.3239 47.6753 78.2113 47.6753C78.0986 47.6753 77.9859 47.6753 77.8732 47.6753H77.7606C77.6479 47.6753 77.6479 47.6753 77.5352 47.7837C77.4225 47.7837 77.3099 47.7837 77.3099 47.7837C77.0845 47.7837 76.8592 47.7837 76.7465 47.6753C76.6338 47.6753 76.5211 47.6753 76.4084 47.6753C76.0704 47.6753 75.7324 47.6753 75.6197 47.6753C75.507 47.6753 75.2817 47.6753 75.169 47.5669C75.0563 47.5669 74.9437 47.4584 74.9437 47.35C74.9437 47.1332 75.169 47.1332 75.3944 47.1332C75.507 47.1332 75.6197 47.1332 75.8451 47.1332C75.8451 47.0248 75.8451 46.9163 75.8451 46.8079C75.8451 46.6995 75.8451 46.4827 75.8451 46.3742C75.8451 46.2658 75.8451 46.2658 75.8451 46.1574C75.8451 46.049 75.8451 45.9406 75.8451 45.9406C75.8451 45.8321 75.8451 45.8321 75.7324 45.7237C75.7324 45.5069 75.6197 45.3985 75.6197 45.1816C75.6197 45.0732 75.6197 44.8564 75.6197 44.7479C75.6197 44.5311 75.6197 44.4227 75.507 44.2058C75.507 44.0974 75.507 44.0974 75.3944 44.0974H75.2817C75.0563 44.0974 74.9437 44.0974 74.7183 44.0974C74.493 44.0974 74.3803 44.0974 74.1549 44.0974C74.0423 44.0974 73.8169 44.0974 73.7042 44.0974C73.5915 44.0974 73.4789 44.0974 73.3662 44.0974C73.2535 44.0974 73.2535 44.2058 73.2535 44.3143C73.2535 44.4227 73.1408 44.6395 73.1408 44.8564C73.0282 45.1816 73.0282 45.3985 72.9155 45.7237C72.8028 46.049 72.6901 46.5911 72.5775 46.9163C72.6901 46.9163 72.9155 46.9163 73.1408 46.9163C73.3662 46.9163 73.7042 46.9163 73.7042 47.1332C73.7042 47.2416 73.7042 47.2416 73.5915 47.35C73.4789 47.4584 73.3662 47.4584 73.3662 47.4584C73.2535 47.4584 73.1408 47.4584 73.0282 47.4584C72.9155 47.4584 72.8028 47.4584 72.6901 47.4584C72.4648 47.4584 72.2394 47.4584 72.0141 47.4584C71.9014 47.4584 71.7887 47.4584 71.6761 47.4584C71.5634 47.4584 71.338 47.4584 71.2254 47.35C71.1127 47.35 71 47.1332 71 47.1332C71 47.1332 71 47.0248 71.1127 47.0248C71.2254 46.9163 71.338 46.9163 71.4507 46.9163C71.6761 46.9163 71.9014 46.9163 72.1268 46.8079C72.1268 46.5911 72.1268 46.4827 72.2394 46.3742C72.3521 46.049 72.3521 45.7237 72.4648 45.29C72.4648 45.0732 72.5775 44.7479 72.5775 44.4227C72.5775 44.3143 72.6901 44.0974 72.6901 43.989C72.6901 43.8806 72.3521 43.8806 72.2394 43.7722C72.1268 43.7722 72.1268 43.6637 72.1268 43.5553C72.1268 43.4469 72.2394 43.3385 72.4648 43.3385C72.5775 43.3385 72.8028 43.3385 72.9155 43.2301C73.0282 43.1216 73.0282 42.9048 73.0282 42.7964C73.1408 42.4711 73.2535 42.1458 73.3662 41.8206C73.4789 41.4953 73.5915 41.1701 73.7042 40.7364C73.8169 40.4111 73.8169 40.0859 73.9296 39.7606C74.0423 39.4353 74.0423 39.1101 74.1549 38.7848C74.2676 38.4596 74.3803 38.1343 74.6056 37.809L74.7183 37.4838C74.831 37.3754 74.831 37.1585 74.9437 37.0501C75.169 36.8333 75.6197 36.8333 75.8451 36.8333C76.0704 36.8333 76.1831 36.8333 76.4084 36.9417C76.5211 37.0501 76.5211 37.1585 76.6338 37.2669C76.7465 37.3754 76.8592 37.4838 76.8592 37.5922C76.8592 37.7006 76.8592 37.809 76.9718 37.9175C77.0845 38.1343 77.0845 38.4596 77.0845 38.6764C77.1972 38.8932 77.3099 39.2185 77.3099 39.4353C77.3099 39.7606 77.4225 40.0859 77.4225 40.3027C77.5352 40.628 77.5352 40.8448 77.5352 41.1701C77.5352 41.2785 77.5352 41.4953 77.6479 41.6037C77.6479 41.8206 77.7606 42.0374 77.7606 42.1458C77.7606 42.2543 77.7606 42.3627 77.8732 42.5795C77.8732 42.688 77.9859 42.7964 77.9859 42.9048C77.9859 42.9048 78.0986 42.9048 78.2113 42.9048C78.3239 42.9048 78.3239 42.9048 78.4366 42.9048C78.5493 42.9048 78.7747 42.9048 78.8873 43.1216V43.2301C78.8873 43.2301 78.8873 43.3385 78.7746 43.3385C78.662 43.4469 78.5493 43.5553 78.4366 43.5553C78.4366 43.5553 78.3239 43.5553 78.2113 43.5553H78.0986C78.0986 43.5553 78.0986 43.5553 78.0986 43.6637C78.0986 43.6637 78.0986 43.7722 78.0986 43.8806C78.0986 43.989 78.0986 43.989 78.0986 44.0974V44.3143C78.0986 44.4227 78.0986 44.4227 78.0986 44.5311C78.0986 44.6395 78.2113 44.8564 78.2113 44.9648C78.2113 45.0732 78.3239 45.29 78.3239 45.3985C78.3239 45.6153 78.4366 45.7237 78.4366 45.8321C78.4366 46.049 78.4366 46.1574 78.5493 46.3742C78.5493 46.4827 78.5493 46.4827 78.5493 46.5911C78.662 46.5911 78.7746 46.5911 79 46.5911C78.7746 47.1332 79 47.2416 79 47.35ZM75.0563 43.2301C75.0563 43.1216 75.0563 43.0132 75.0563 42.9048C75.0563 42.6879 74.9437 42.5795 74.9437 42.3627C74.9437 41.929 74.9437 41.3869 74.9437 40.9532C74.9437 40.7364 74.9437 40.5195 74.831 40.3027C74.831 40.0859 74.7183 39.869 74.7183 39.5438C74.7183 39.4353 74.7183 39.2185 74.7183 38.8932C74.7183 38.6764 74.6056 38.568 74.6056 38.568C74.493 38.568 74.2676 38.7848 74.2676 38.8932C74.2676 39.1101 74.1549 39.2185 74.1549 39.4353C74.1549 39.5438 74.1549 39.6522 74.1549 39.6522C74.1549 39.7606 74.1549 39.869 74.1549 39.869C74.0423 40.0859 74.0423 40.3027 74.0423 40.4111C73.9296 40.8448 73.8169 41.1701 73.7042 41.4953C73.7042 41.7122 73.5915 41.8206 73.5915 42.0374C73.5915 42.2543 73.4789 42.4711 73.4789 42.6879C73.4789 42.7964 73.3662 43.0132 73.3662 43.1216C73.3662 43.1216 73.3662 43.1216 73.4789 43.1216C73.5915 43.1216 73.8169 43.1216 73.8169 43.1216C73.9296 43.1216 74.0423 43.1216 74.1549 43.1216C74.2676 43.1216 74.3803 43.1216 74.493 43.1216C74.6056 43.1216 74.7183 43.1216 74.9437 43.1216C74.831 43.4469 74.831 43.4469 75.0563 43.2301C75.0563 43.3385 74.9437 43.3385 75.0563 43.2301Z" fill="white"/>
<path d="M86.8841 42.7379C86.8841 42.8453 86.8841 42.9526 86.8841 43.06C86.8841 43.1673 86.7681 43.2747 86.7681 43.4894C86.7681 43.5968 86.7681 43.8115 86.7681 43.9188C86.7681 44.0262 86.7681 44.1336 86.6522 44.2409C86.6522 44.3483 86.6522 44.4556 86.5362 44.563C86.4203 44.6703 86.4203 44.8851 86.4203 44.9924C86.4203 45.0998 86.3043 45.3145 86.3043 45.4218C86.3043 45.5292 86.1884 45.6366 86.0725 45.7439C85.9565 45.8513 85.9565 45.9586 85.9565 46.066C85.8406 46.1733 85.7246 46.4954 85.6087 46.4954C85.2609 46.9248 84.913 47.1396 84.6812 47.3543C84.5652 47.4616 84.3333 47.569 84.1014 47.569C83.8696 47.569 83.6377 47.6764 83.4058 47.6764C83.1739 47.6764 83.058 47.569 82.942 47.569C82.4783 47.569 82.5942 47.569 82.1304 47.569C82.0145 47.6763 82.0145 47.7837 81.8986 47.7837C81.7826 47.7837 81.6667 47.7837 81.6667 47.7837C81.5507 47.7837 81.4348 47.7837 81.4348 47.7837C81.4348 47.7837 81.3188 47.7837 81.2029 47.7837C81.087 47.7837 80.8551 47.6764 80.8551 47.6764C80.7391 47.569 80.6232 47.569 80.5072 47.4616C80.5072 47.4616 80.3913 47.4616 80.3913 47.3543C80.2754 47.3543 80.3913 47.3543 80.1594 47.3543C80.0435 47.3543 79.9275 47.3543 79.6957 47.3543C79.5797 47.3543 79.3478 47.3543 79.2319 47.2469C79.1159 47.2469 79 47.0322 79 47.0322C79 46.9248 79 46.9249 79.1159 46.8175C79.2319 46.7101 79.3478 46.7101 79.4638 46.7101C79.6956 46.7101 79.9275 46.7101 80.1594 46.6028C80.1594 46.4954 80.1594 46.2807 80.1594 46.1733C80.1594 45.5292 80.1594 44.7777 80.1594 44.1336C80.1594 43.9188 80.1594 43.1673 80.2754 42.2011C80.2754 41.4496 80.2754 40.8055 80.2754 40.054C80.2754 39.6245 80.2754 39.1951 80.2754 38.7657C80.2754 38.4436 80.2754 38.2289 80.2754 37.9068C80.2754 37.9068 80.2754 37.9068 80.1594 37.9068C80.0435 37.9068 79.9275 37.9068 79.6957 37.9068C79.5797 37.9068 79.3478 37.9068 79.2319 37.7995C79.1159 37.7995 79 37.5848 79 37.5848C79 37.5848 79 37.4774 79.1159 37.37C79.2319 37.2627 79.3478 37.2627 79.4638 37.2627C79.8116 37.2627 80.1594 37.1553 80.2754 37.1553L80.3913 37.048L80.6232 36.9406C80.7391 36.9406 80.8551 36.8333 80.8551 36.8333C80.971 36.8333 80.971 36.8333 81.087 36.8333C81.2029 36.8333 81.3188 36.8333 81.4348 36.8333C81.6667 36.8333 81.7826 36.9406 81.8986 37.1553C82.0145 37.1553 82.1304 37.1553 82.2464 37.1553C82.5942 37.1553 82.8261 37.2627 83.4058 37.2627C83.7536 37.2627 83.9855 37.37 84.3333 37.37C84.4493 37.37 84.6812 37.37 84.7971 37.4774C84.913 37.5848 85.029 37.6921 85.1449 37.7995C85.2609 37.9068 85.3768 37.9068 85.4928 38.0142C85.6087 38.1215 85.6087 38.2289 85.6087 38.3363C85.7246 38.4436 85.8406 38.551 86.0725 38.6583C86.1884 38.7657 86.1884 38.9804 86.3043 39.0878C86.5362 39.4098 86.7681 39.7319 86.8841 40.054C87 40.376 87 40.5908 87 40.9128C87 41.1276 87 41.3423 87 41.557C87 41.6643 87 41.8791 87 41.9864V42.0938C87 42.5232 86.8841 42.6306 86.8841 42.7379ZM84.7971 42.7379C84.7971 42.5232 84.7971 42.2011 84.7971 41.8791C84.7971 41.4496 84.6812 41.1275 84.6812 41.0202C84.5652 40.376 84.4493 39.8393 84.3333 39.3025C84.3333 39.1951 84.3333 38.873 83.7536 38.4436C83.6377 38.3363 83.058 38.2289 82.7101 38.2289C82.4783 38.2289 82.3623 38.2289 82.3623 38.3363C82.3623 38.4436 82.3623 38.7657 82.3623 39.1951C82.3623 40.1613 82.3623 41.4496 82.3623 41.6643C82.3623 41.7717 82.3623 41.8791 82.3623 41.9864C82.3623 42.2011 82.3623 42.4158 82.3623 42.6306C82.3623 42.9526 82.3623 43.1673 82.3623 43.4894C82.3623 43.7041 82.3623 44.0262 82.3623 44.2409C82.3623 44.563 82.3623 45.3145 82.3623 45.6366C82.3623 45.7439 82.3623 45.8513 82.3623 46.066C82.3623 46.1733 82.3623 46.6028 82.3623 46.8175C82.3623 46.9249 82.3623 46.9248 82.4783 46.9248C82.5942 46.9248 82.7101 46.9248 82.7101 46.9248C82.8261 46.9248 82.8261 46.9248 83.058 46.9248C83.1739 46.9248 83.4058 46.7101 83.5217 46.7101L83.7536 46.6028C83.8696 46.4954 83.9855 46.3881 83.9855 46.2807C84.1014 46.1733 84.2174 45.9586 84.2174 45.8513C84.3333 45.5292 84.4493 45.5292 84.5652 44.8851C84.5652 44.4556 84.6812 44.1336 84.7971 43.8115C84.7971 43.3821 84.7971 43.06 84.7971 42.7379Z" fill="white"/>
<path d="M93.8814 46.7781L94 46.8898C94 47.0015 93.8814 47.1133 93.7627 47.225C93.6441 47.3367 93.5254 47.3368 93.2881 47.3368C92.9322 47.3368 92.5763 47.4485 92.2203 47.4485C92.1017 47.4485 91.8644 47.4485 91.7458 47.5602C91.6271 47.5602 91.2712 47.5602 91.0339 47.5602C90.9153 47.5602 90.9152 47.5602 90.7966 47.5602H90.5593C90.5593 47.672 90.4407 47.672 90.322 47.7837C90.2034 47.7837 90.0847 47.7837 89.9661 47.7837C89.8475 47.7837 89.7288 47.7837 89.6102 47.7837C89.4915 47.7837 89.3729 47.7837 89.3729 47.7837C89.2542 47.7837 89.0169 47.672 89.0169 47.672C88.8983 47.5602 88.7797 47.5602 88.661 47.4485C88.5424 47.4485 88.4237 47.4485 88.4237 47.4485C88.1864 47.4485 88.3051 47.4485 88.0678 47.4485C87.9492 47.4485 87.8305 47.4485 87.7119 47.4485C87.5932 47.4485 87.3559 47.4485 87.2373 47.3368C87.1186 47.3368 87 47.1133 87 47.0015C87 47.0015 87 46.8898 87.1186 46.8898C87.2373 46.7781 87.3559 46.7781 87.4746 46.7781C87.7119 46.7781 87.9492 46.6663 88.3051 46.6663C88.3051 46.4428 88.3051 45.9959 88.3051 45.6607C88.3051 45.102 88.3051 44.5433 88.3051 44.3198C88.3051 44.208 88.3051 43.7611 88.3051 43.4259C88.3051 43.0907 88.3051 42.7554 88.3051 42.4202C88.3051 42.3085 88.3051 42.1967 88.3051 42.085C88.3051 41.8615 88.3051 41.7498 88.3051 41.5263C88.3051 41.4146 88.3051 41.1911 88.3051 41.0793C88.3051 40.8559 88.3051 40.7441 88.3051 40.5206C88.3051 40.1854 88.4237 39.8502 88.4237 39.6267C88.4237 39.2915 88.4237 38.9563 88.4237 38.6211C88.4237 38.3976 88.4237 38.0624 88.4237 37.8389C88.3051 37.8389 88.4237 37.8389 88.1864 37.8389C88.0678 37.8389 87.9491 37.8389 87.8305 37.8389C87.7119 37.8389 87.4746 37.8389 87.3559 37.7272C87.2373 37.7272 87.1186 37.5037 87.1186 37.3919C87.1186 37.3919 87.1186 37.2802 87.2373 37.2802C87.3559 37.1685 87.4746 37.1685 87.5932 37.1685C87.9492 37.1685 88.4237 37.0567 88.661 37.0567C88.661 36.945 88.7797 36.945 88.7797 36.945C88.8983 36.8333 89.017 36.8333 89.2542 36.8333C89.3729 36.8333 89.4915 36.8333 89.6102 36.8333H89.7288C89.8475 36.8333 89.8475 36.8333 89.9661 36.945C90.0847 36.945 90.0847 36.945 90.2034 37.0567C90.322 37.0567 90.5593 37.1685 90.678 37.1685H90.7966C90.9152 37.1685 91.0339 37.1685 91.1525 37.1685C91.2712 37.1685 91.8644 37.1685 92.1017 37.1685C92.2203 37.1685 92.4576 37.1685 92.5763 37.1685C92.8136 37.1685 92.9322 37.1685 93.1695 37.2802C93.2881 37.2802 93.4068 37.2802 93.5254 37.3919C93.6441 37.2802 93.6441 37.2802 93.6441 37.2802C93.6441 37.2802 93.7627 37.2802 93.7627 37.3919C93.8814 37.5037 93.8814 37.6154 93.8814 37.7272C93.8814 38.1741 93.8814 37.9506 93.8814 38.2859C93.8814 38.6211 93.8814 38.6211 93.8814 39.068C93.8814 39.2915 93.8814 39.6267 93.6441 39.6267C93.5254 39.6267 93.4068 39.6267 93.4068 39.515C93.2881 39.4033 93.2881 39.2915 93.2881 39.2915C93.2881 39.1798 93.2881 39.068 93.2881 38.9563C93.2881 38.8446 93.2881 38.7328 93.2881 38.6211C93.2881 38.5093 93.2881 38.2859 93.2881 38.1741C93.1695 38.1741 92.9322 38.1741 92.8136 38.1741C92.5763 38.1741 92.4576 38.1741 92.2203 38.1741C92.1017 38.1741 91.8644 38.1741 91.2712 38.2859C91.1525 38.2859 91.1525 38.2859 91.0339 38.2859C90.9153 38.2859 90.9152 38.2859 90.7966 38.3976C90.7966 38.3976 90.7966 38.5093 90.7966 38.6211C90.7966 38.7328 90.7966 38.7328 90.7966 38.8446C90.7966 38.9563 90.7966 39.1798 90.7966 39.2915C90.7966 39.4033 90.7966 39.515 90.7966 39.6267C90.7966 39.8502 90.7966 40.0737 90.7966 40.1854C90.7966 40.2972 90.7966 40.5207 90.7966 40.6324C90.7966 40.7441 90.7966 40.9676 90.7966 41.0793C90.7966 41.1911 90.7966 41.1911 90.7966 41.3028C90.7966 41.3028 90.7966 41.4146 90.7966 41.5263H90.9153C91.0339 41.5263 91.0339 41.5263 91.1525 41.5263C91.6271 41.5263 91.8644 41.5263 91.983 41.5263C92.1017 41.5263 92.339 41.5263 92.4576 41.5263V41.4146C92.4576 41.3028 92.4576 41.1911 92.4576 41.0793C92.4576 40.9676 92.4576 40.7441 92.5763 40.6324C92.5763 40.5207 92.8136 40.4089 92.8136 40.4089C92.8136 40.4089 92.9322 40.4089 92.9322 40.5206C93.0508 40.6324 93.0508 40.7441 93.0508 40.8559C93.0508 41.1911 93.0508 41.4146 93.1695 41.7498C93.1695 42.085 93.1695 42.3085 93.1695 42.6437C93.1695 42.8672 93.1695 43.2024 92.9322 43.2024C92.8136 43.2024 92.6949 43.2024 92.6949 43.0907C92.5763 42.9789 92.5763 42.8672 92.5763 42.8672C92.5763 42.7554 92.5763 42.6437 92.5763 42.532C92.5763 42.4202 92.5763 42.3085 92.5763 42.1967C92.2203 42.1967 91.7458 42.1967 91.0339 42.1967C90.9153 42.1967 90.7966 42.3085 90.7966 42.4202C90.7966 42.532 90.7966 42.7554 90.7966 42.8672C90.7966 42.9789 90.7966 42.9789 90.7966 43.0907C90.7966 43.2024 90.7966 43.3141 90.7966 43.3141C90.7966 43.4259 90.7966 43.5376 90.7966 43.7611C90.7966 43.8728 90.7966 43.9846 90.7966 44.0963C90.7966 44.3198 90.7966 44.5433 90.7966 44.7667C90.7966 45.102 90.7966 45.4372 90.7966 45.6607C90.7966 45.7724 90.7966 45.9959 90.9153 46.1076C90.9153 46.2194 90.9153 46.5546 91.0339 46.5546C91.0339 46.5546 91.1525 46.5546 91.5085 46.5546C91.7458 46.5546 91.9831 46.5546 92.1017 46.5546C92.339 46.5546 92.5763 46.5546 92.6949 46.5546C92.9322 46.5546 93.0508 46.4428 93.2881 46.4428C93.2881 46.3311 93.2881 46.1076 93.2881 45.9959C93.2881 45.8841 93.2881 45.7724 93.2881 45.6607C93.2881 45.5489 93.2881 45.4372 93.2881 45.3254C93.2881 45.2137 93.4068 45.102 93.4068 45.102C93.5254 44.9902 93.5254 44.9902 93.6441 44.9902C93.8814 44.9902 93.8814 45.4372 93.8814 45.5489C94 46.1076 93.8814 46.3311 93.8814 46.7781C93.8814 46.7781 93.8814 46.6663 93.8814 46.7781Z" fill="white"/>
<path d="M103.778 47.3274C103.889 47.4415 104 47.4415 104 47.5556V47.6696C103.889 47.7837 103.778 47.7837 103.556 47.7837C103.111 47.7837 102.556 47.4415 102.222 47.2134C101.889 46.8712 101.778 46.529 101.556 46.1868C101.444 45.9586 101.333 45.8446 101.222 45.6164C101.111 45.3883 101.111 45.2742 101 45.0461C101 44.818 100.889 44.5898 100.778 44.4758C100.667 44.2476 100.667 44.0195 100.556 43.9054C100.444 43.7914 100.444 43.5632 100.333 43.3351C100.222 43.1069 100.222 42.9929 100 42.8788C99.8889 42.7648 99.7778 42.7647 99.6667 42.7647C99.5556 42.7647 99.4444 42.7647 99.3333 42.7647C99.3333 42.7647 99.3333 42.7648 99.3333 42.8788C99.3333 42.9929 99.3333 43.221 99.3333 43.221C99.3333 43.4492 99.3333 43.6773 99.3333 43.9054C99.3333 44.2476 99.4444 44.3617 99.4444 44.7039C99.4444 45.1602 99.3333 45.5024 99.3333 45.9586C99.3333 46.0727 99.3333 46.1868 99.3333 46.4149C99.3333 46.529 99.3333 46.529 99.3333 46.643C99.5556 46.643 99.7778 46.643 99.8889 46.643C100.111 46.643 100.556 46.643 100.556 46.9852C100.556 47.0993 100.556 47.2134 100.444 47.2134C100.333 47.3274 100.222 47.3274 100.111 47.3274C100 47.3274 99.8889 47.3274 99.7778 47.3274C99.6667 47.3274 99.4444 47.3274 99.1111 47.3274C98.8889 47.4415 98.6667 47.5556 98.5556 47.5556C98.4444 47.5556 98.3333 47.5556 98.2222 47.5556C98.1111 47.5556 98.1111 47.5556 98 47.5556C97.8889 47.5556 97.6667 47.4415 97.5556 47.3274C97.4444 47.3274 97.2222 47.3274 97.1111 47.3274C97 47.3274 96.8889 47.3274 96.6667 47.3274C96.5556 47.3274 96.3333 47.2134 96.2222 47.2134C96.1111 47.2134 96 46.9852 96 46.9852C96 46.9852 96 46.8712 96.1111 46.8712C96.2222 46.7571 96.3333 46.7571 96.4444 46.7571C96.6667 46.7571 97 46.643 97.2222 46.643C97.2222 46.529 97.2222 46.4149 97.2222 46.3008C97.2222 46.1868 97.2222 45.3883 97.2222 45.0461C97.2222 44.7039 97.2222 44.3617 97.2222 44.0195C97.2222 43.6773 97.2222 43.221 97.2222 42.8788C97.2222 42.4225 97.2222 41.9663 97.2222 41.6241C97.2222 41.1678 97.2222 40.7115 97.2222 40.2553C97.2222 39.799 97.2222 39.6849 97.2222 39.3427C97.2222 39.1146 97.2222 39.0005 97.2222 38.7724C97.2222 38.5443 97.2222 38.3161 97.2222 38.2021C97.2222 38.088 97.2222 37.9739 97.2222 37.8599C97.2222 37.8599 97.2222 37.8599 97.1111 37.8599C97 37.8599 96.8889 37.8599 96.6667 37.8599C96.5556 37.8599 96.3333 37.8599 96.2222 37.7458C96.1111 37.7458 96 37.5177 96 37.5177C96 37.5177 96 37.4036 96.1111 37.4036C96.2222 37.2895 96.3333 37.2895 96.4444 37.2895C96.7778 37.2895 97 37.1755 97.2222 37.1755C97.2222 37.1755 97.2222 37.0614 97.3333 37.0614C97.4444 37.0614 97.4444 36.9473 97.6667 36.9473C97.7778 36.9473 97.8889 36.8333 97.8889 36.8333H98.1111C98.2222 36.8333 98.4444 36.8333 98.5556 36.9473C98.7778 37.0614 98.8889 37.0614 98.8889 37.1755C99.1111 37.1755 99.2222 37.1755 99.4444 37.1755C99.6667 37.1755 99.7778 37.1755 100.111 37.1755C100.222 37.1755 100.333 37.1755 100.444 37.1755C100.667 37.1755 100.889 37.2895 101.222 37.4036C101.333 37.4036 101.444 37.5177 101.667 37.6317C101.778 37.6317 101.889 37.7458 102.111 37.8599C102.333 37.9739 102.444 38.088 102.444 38.2021C102.556 38.4302 102.778 38.5443 102.778 38.6583C102.889 38.8865 102.889 39.1146 102.889 39.3427C102.889 39.5709 103 39.6849 103 39.6849V39.799C103 39.9131 103 40.0271 103 40.0271C103 40.1412 103 40.2553 103 40.3693C103 40.4834 103 40.5975 102.889 40.8256C102.889 41.0537 102.778 41.1678 102.667 41.3959C102.667 41.51 102.556 41.51 102.556 41.6241C102.556 41.7381 102.556 41.7381 102.444 41.8522C102.333 41.9663 102.222 42.0803 102.111 42.1944C102 42.1944 102 42.1944 101.889 42.3085C101.778 42.4225 101.778 42.4225 101.667 42.5366C101.556 42.6507 101.444 42.7648 101.333 42.8788C101.222 42.9929 101.111 42.9929 101.111 43.1069C101.111 43.221 101.444 43.4492 101.556 43.5632C101.667 43.7914 101.778 44.0195 101.889 44.2476C102 44.4758 102 44.7039 102.111 44.932C102.222 45.2742 102.333 45.5024 102.333 45.8446C102.444 46.1868 102.556 46.4149 102.667 46.7571C102.778 46.9852 102.778 47.0993 102.889 47.2134C103.444 47.0993 103.556 47.2134 103.778 47.3274ZM101.444 39.0005C101.444 39.0005 101.444 38.8865 101.444 38.7724C101.444 38.5443 101.333 38.3161 101.111 38.088C101 37.9739 101 37.9739 100.889 37.8599C100.778 37.7458 100.667 37.7458 100.556 37.7458C100.333 37.6317 100.111 37.6317 99.8889 37.6317H99.4444C99.4444 37.8599 99.4444 38.2021 99.4444 38.5443C99.4444 39.0005 99.5556 39.5709 99.5556 40.1412C99.5556 40.8256 99.5556 41.2819 99.5556 41.3959C99.5556 41.6241 99.5556 41.7381 99.5556 41.9663V42.0803C99.5556 42.1944 99.5556 42.1944 99.6667 42.1944C99.6667 42.1944 99.7778 42.1944 99.8889 42.1944C100 42.1944 100 42.1944 100.111 42.1944C100.333 42.1944 100.667 42.0803 100.778 41.9663C100.889 41.8522 101 41.7381 101 41.51C101 41.3959 101.111 41.1678 101.111 41.0537C101.222 40.8256 101.222 40.7115 101.222 40.4834C101.222 40.2553 101.222 40.2553 101.222 40.0271C101.222 39.6849 101.222 39.799 101.222 39.5709C101.444 39.3427 101.444 39.3427 101.444 39.0005Z" fill="white"/>
<path d="M108.385 47.2134C108.59 47.2134 109 47.2134 109 47.4415C109 47.5556 109 47.5556 108.897 47.6696C108.795 47.7837 108.692 47.7837 108.59 47.7837C108.487 47.7837 108.385 47.7837 108.282 47.7837C108.282 47.7837 107.974 47.7837 107.667 47.7837C107.256 47.7837 106.846 47.7837 106.846 47.7837C106.641 47.7837 106.231 47.7837 106.026 47.7837C105.923 47.7837 105.821 47.7837 105.615 47.7837C105.513 47.7837 105.308 47.7837 105.205 47.6696C105.103 47.6696 105 47.4415 105 47.4415C105 47.4415 105 47.3274 105.103 47.3274C105.205 47.2134 105.308 47.2134 105.41 47.2134C105.718 47.2134 106.026 47.0993 106.128 47.0993C106.128 47.0993 106.231 47.0993 106.333 47.0993C106.231 46.9852 106.128 46.8712 106.128 46.7571C106.128 46.643 106.128 46.643 106.128 46.529V46.4149V46.3008C106.128 46.1868 106.128 45.9586 106.128 45.8446C106.128 45.7305 106.128 45.7305 106.128 45.6164C106.128 44.818 106.128 44.0195 106.128 43.107C106.128 42.6507 106.128 42.1944 106.128 41.8522C106.128 41.51 106.128 41.0537 106.128 40.7115C106.128 40.4834 106.128 40.2553 106.128 40.1412V39.3427C106.128 39.0005 106.128 38.6583 106.128 38.2021V38.088H106.026C105.923 38.088 105.821 38.088 105.615 38.088C105.513 38.088 105.308 38.088 105.205 37.9739C105.103 37.9739 105 37.7458 105 37.7458V37.6317C105.103 37.5177 105.205 37.5177 105.308 37.5177C105.615 37.5177 105.923 37.4036 106.026 37.4036V37.2895C106.026 37.1755 106.026 37.1755 106.026 37.0614L106.231 36.9473C106.333 36.9473 106.436 36.8333 106.436 36.8333C106.538 36.8333 106.538 36.8333 106.641 36.8333C106.744 36.8333 106.846 36.8333 106.949 36.8333C107.154 36.9473 107.359 37.0614 107.462 37.2895C107.769 37.2895 108.077 37.2895 108.179 37.2895C108.385 37.2895 108.795 37.2895 108.795 37.5177C108.795 37.6317 108.795 37.6317 108.692 37.7458C108.795 37.9739 108.692 38.088 108.59 38.088C108.487 38.088 108.385 38.088 108.282 38.088C108.282 38.088 108.077 38.088 107.872 38.088C107.872 38.3161 107.974 38.5443 107.974 38.6583C107.974 38.8865 107.974 39.1146 107.974 39.2287C107.974 39.4568 107.974 39.5709 107.974 39.799C107.974 39.9131 107.974 40.0271 107.974 40.1412C107.974 40.2553 107.974 40.2553 107.974 40.3693C108.077 40.8256 107.974 41.1678 108.077 41.6241C108.077 42.0803 108.077 42.5366 108.077 42.9929C108.077 43.3351 108.077 43.7914 108.077 44.1336C108.077 44.5898 108.179 44.932 108.179 45.3883C108.179 45.6164 108.179 45.8446 108.179 45.9586C108.179 46.1868 108.179 46.4149 108.179 46.643C108.179 46.8712 108.179 46.9852 108.077 47.2134C108.179 47.2134 108.282 47.2134 108.385 47.2134Z" fill="white"/>
<path d="M116 43.075C116 43.1845 115.803 43.294 115.705 43.4035C115.508 43.513 115.311 43.513 115.115 43.513C114.918 43.513 114.82 43.513 114.82 43.732C114.82 43.8415 114.82 44.1701 114.82 44.2796C114.82 44.3891 114.82 44.7176 114.82 44.8271C114.82 44.9366 114.82 45.0461 114.82 45.1556C114.82 45.5936 114.82 46.0316 114.82 46.1411C114.82 46.4697 114.82 46.6887 114.82 47.0172C114.82 47.2362 114.82 47.6742 114.525 47.6742C114.426 47.6742 114.328 47.6742 114.328 47.5647C114.23 47.4552 114.23 47.3457 114.23 47.3457C114.23 47.2362 114.23 47.1267 114.23 47.0172C114.23 46.9077 114.23 46.7982 114.23 46.5792C114.131 46.9077 113.934 47.2362 113.738 47.3457C113.344 47.6742 113.049 47.7837 112.656 47.7837C112.361 47.7837 112.066 47.7837 111.869 47.6742C111.574 47.5647 111.279 47.3457 111.082 47.1267C110.787 46.7982 110.59 46.3601 110.393 45.9221C110.197 45.5936 110.197 45.2651 110.098 44.9366C110.098 44.7176 110 44.4986 110 44.1701C110 43.951 110 43.732 110 43.513C110 42.637 110.197 41.761 110.393 40.8849C110.492 40.4469 110.59 40.0089 110.689 39.5709C110.787 39.1328 110.984 38.6948 111.279 38.2568C111.475 37.9283 111.77 37.5998 112.066 37.2713C112.164 37.1618 112.361 37.0523 112.459 37.0523C112.656 36.9428 112.852 36.8333 113.049 36.8333H113.148C113.246 36.8333 113.344 36.8333 113.443 36.8333C113.639 36.8333 113.836 36.9428 113.934 37.0523C114.033 37.1618 114.131 37.2713 114.23 37.3808C114.23 37.2713 114.23 37.1618 114.328 37.0523C114.328 36.9428 114.328 36.9428 114.426 36.9428L114.525 36.8333C114.623 36.8333 114.623 36.9428 114.623 36.9428C114.721 37.0523 114.721 37.1618 114.721 37.2713C114.721 37.3808 114.721 37.7093 114.721 37.9283C114.721 38.3663 114.721 38.8043 114.721 38.9138C114.721 39.2423 114.721 39.4614 114.721 39.7899C114.721 40.0089 114.721 40.4469 114.426 40.4469C114.328 40.4469 114.23 40.4469 114.23 40.3374C114.131 40.2279 114.131 40.1184 114.131 40.1184C114.131 40.0089 114.131 39.8994 114.131 39.8994C114.131 39.7899 114.131 39.6804 114.131 39.4614C114.131 39.3519 114.131 39.2424 114.131 39.1328C114.131 38.9138 114.033 38.6948 114.033 38.4758C114.033 38.2568 113.934 38.0378 113.836 37.8188C113.738 37.7093 113.541 37.5998 113.443 37.5998C113.246 37.5998 113.148 37.7093 113.049 37.9283C112.951 38.1473 112.852 38.2568 112.754 38.4758C112.656 38.6948 112.656 38.9138 112.656 39.1328C112.656 39.3519 112.557 39.5709 112.557 39.7899C112.459 40.0089 112.459 40.2279 112.459 40.5564C112.459 40.7754 112.361 40.9944 112.361 41.2134C112.361 41.4324 112.262 41.6515 112.262 41.761C112.262 41.98 112.262 42.199 112.164 42.418C112.164 42.637 112.164 42.856 112.066 43.075C112.066 43.294 112.066 43.513 112.066 43.6225C112.066 43.951 112.066 44.1701 112.066 44.4986C112.066 44.8271 112.164 45.2651 112.262 45.5936C112.262 45.7031 112.361 45.9221 112.361 46.0316C112.459 46.2506 112.459 46.3601 112.557 46.5792C112.656 46.7982 112.951 47.1267 113.246 47.1267C113.443 47.1267 113.639 46.9077 113.738 46.6887C113.934 46.3601 114.033 46.0316 114.131 45.7031C114.23 45.3746 114.23 45.0461 114.23 44.7176C114.23 44.4986 114.23 44.1701 114.23 43.951V43.8415C114.23 43.6225 114.23 43.6225 114.033 43.6225C113.836 43.6225 113.639 43.6225 113.443 43.6225C113.246 43.6225 113.148 43.6225 112.951 43.513C112.852 43.513 112.852 43.4035 112.852 43.4035C112.852 43.4035 112.852 43.294 112.951 43.294C113.049 43.1845 113.148 43.1845 113.246 43.075C113.443 42.9655 113.639 42.9655 113.836 42.856C114.033 42.856 114.23 42.856 114.426 42.7465C114.623 42.7465 114.721 42.7465 114.918 42.7465C115.115 42.7465 115.508 42.7465 115.705 42.7465C115.803 42.856 116 42.9655 116 43.075Z" fill="white"/>
<path d="M124.299 46.9852C124.532 46.9852 125 46.9852 125 47.2134C125 47.3274 125 47.4415 124.883 47.4415C124.766 47.5556 124.649 47.5556 124.532 47.5556C124.416 47.5556 124.299 47.5556 124.182 47.5556C123.948 47.5556 122.429 47.5556 122.195 47.5556C121.961 47.5556 122.078 47.5556 121.844 47.5556C121.727 47.5556 121.61 47.5556 121.377 47.5556C121.26 47.5556 121.026 47.5556 120.909 47.4415C120.792 47.4415 120.675 47.2134 120.675 47.2134C120.675 47.2134 120.675 47.0993 120.792 47.0993C120.909 46.9852 121.026 46.9852 121.143 46.9852C121.377 46.9852 121.727 46.8712 121.844 46.8712C121.727 46.7571 121.61 46.643 121.61 46.4149C121.61 46.0727 121.61 45.6164 121.61 45.2742C121.61 44.932 121.61 44.4758 121.61 44.1336C121.61 43.9054 121.61 43.6773 121.61 43.4492C121.61 43.221 121.61 42.9929 121.61 42.6507C121.61 42.5366 121.61 42.4225 121.61 42.3085C121.61 42.1944 121.61 42.1944 121.61 42.0803H121.494C121.26 42.0803 121.026 42.1944 120.909 42.1944C120.792 42.1944 120.558 42.1944 120.091 42.1944C119.857 42.1944 119.74 42.1944 119.623 42.1944C119.623 42.1944 119.506 42.1944 119.506 42.3085C119.506 42.4225 119.506 42.5366 119.506 42.6507C119.506 42.7647 119.506 42.8788 119.506 43.1069C119.506 43.221 119.506 43.3351 119.506 43.4492C119.506 43.6773 119.506 43.7914 119.506 44.0195C119.506 44.0195 119.506 44.0195 119.506 44.1336C119.506 44.3617 119.506 44.4758 119.506 44.7039C119.506 44.932 119.506 45.0461 119.506 45.2742C119.506 45.5024 119.506 45.6164 119.506 45.8446C119.506 46.0727 119.506 46.3008 119.506 46.643C119.506 46.7571 119.506 46.8712 119.506 46.9852C119.74 46.9852 120.091 46.9852 120.091 47.2134C120.091 47.3274 120.091 47.4415 119.974 47.4415C119.857 47.5556 119.74 47.5556 119.623 47.5556C119.506 47.5556 119.39 47.5556 119.273 47.5556C119.156 47.5556 119.156 47.5556 119.039 47.6696C118.922 47.6696 119.039 47.7837 118.922 47.7837C118.922 47.7837 118.805 47.7837 118.688 47.7837C118.455 47.7837 118.221 47.6696 118.104 47.6696L117.987 47.5556C117.753 47.5556 117.519 47.5556 117.519 47.5556C117.286 47.5556 117.403 47.5556 117.169 47.5556C117.052 47.5556 116.935 47.5556 116.701 47.5556C116.584 47.5556 116.351 47.5556 116.234 47.4415C116.117 47.4415 116 47.2134 116 47.2134C116 47.2134 116 47.0993 116.117 47.0993C116.234 46.9852 116.351 46.9852 116.468 46.9852C116.701 46.9852 117.052 46.8712 117.286 46.8712V46.7571C117.286 46.643 117.286 46.529 117.286 46.529C117.286 46.3008 117.286 46.1868 117.286 45.9586C117.286 45.7305 117.286 45.5024 117.286 45.2742V44.7039C117.286 44.3617 117.286 44.0195 117.286 43.5632C117.286 43.3351 117.286 43.107 117.286 42.8788C117.286 42.7648 117.286 42.7647 117.286 42.6507C117.286 42.5366 117.286 42.4225 117.286 42.4225C117.286 42.3085 117.286 42.3085 117.169 42.3085C117.169 42.3085 116.935 42.3085 116.701 42.3085C116.468 42.3085 116.234 42.1944 116.234 42.0803C116.234 42.0803 116.234 41.9663 116.351 41.9663C116.468 41.8522 116.584 41.8522 116.584 41.8522C116.701 41.8522 116.818 41.8522 116.935 41.8522C117.052 41.8522 117.052 41.8522 117.169 41.7381V41.6241C117.169 41.1678 117.169 40.8256 117.169 40.3693C117.169 39.6849 117.169 38.8865 117.286 38.2021C117.286 38.088 117.286 37.9739 117.286 37.8599C117.169 37.8599 117.169 37.8599 117.052 37.8599H116.935C116.818 37.8599 116.818 37.8599 116.701 37.8599C116.584 37.8599 116.351 37.8599 116.234 37.7458C116.117 37.7458 116 37.5177 116 37.5177C116 37.5177 116 37.4036 116.117 37.4036C116.234 37.2895 116.351 37.2895 116.468 37.2895C116.818 37.2895 117.286 37.1755 117.403 37.1755H117.519C117.636 36.9473 117.753 36.8333 118.221 36.8333C118.455 36.8333 118.688 36.9473 118.922 37.1755C119.156 37.1755 119.273 37.1755 119.39 37.1755C119.623 37.1755 120.091 37.1755 120.091 37.4036C120.091 37.5177 119.974 37.6317 119.857 37.6317C119.74 37.7458 119.623 37.7458 119.506 37.7458C119.39 37.7458 119.273 37.7458 119.156 37.7458H119.039C119.039 37.7458 119.039 37.7458 119.039 37.8599C119.156 38.088 119.156 38.4302 119.156 38.6583C119.156 38.8865 119.156 39.2287 119.273 39.4568C119.273 39.6849 119.39 39.9131 119.39 40.2553C119.39 40.3693 119.39 40.4834 119.39 40.4834V40.5975C119.39 40.7115 119.39 40.8256 119.39 41.0537C119.39 41.1678 119.506 41.1678 119.506 41.2819V41.3959C119.506 41.51 119.506 41.51 119.623 41.51C119.857 41.51 120.558 41.3959 120.675 41.3959C120.792 41.3959 121.026 41.3959 121.143 41.3959C121.26 41.3959 121.377 41.3959 121.494 41.3959C121.61 41.3959 121.727 41.3959 121.727 41.1678C121.727 41.0537 121.727 40.8256 121.727 40.7115C121.727 40.3693 121.727 40.1412 121.727 39.799C121.727 39.799 121.727 39.4568 121.727 39.1146C121.727 38.8865 121.727 38.5443 121.727 38.3161C121.727 38.2021 121.727 37.9739 121.727 37.8599C121.727 37.7458 121.727 37.6317 121.727 37.6317C121.61 37.6317 121.494 37.6317 121.494 37.6317C121.377 37.6317 121.143 37.6317 121.026 37.5177C120.909 37.5177 120.792 37.2895 120.792 37.2895C120.792 37.2895 120.792 37.1755 120.909 37.1755C121.026 37.0614 121.143 37.0614 121.26 37.0614C121.494 37.0614 121.727 37.0614 121.844 37.0614L121.961 36.9473C122.078 36.9473 122.312 36.9473 122.312 36.9473C122.312 36.9473 122.312 36.9473 122.429 36.9473C122.545 36.9473 122.662 36.9473 122.779 36.9473C122.896 36.9473 122.896 36.9473 122.896 37.0614C123.364 37.0614 123.831 37.0614 124.065 37.0614C124.299 37.0614 124.649 37.0614 124.649 37.2895C124.649 37.4036 124.649 37.5177 124.532 37.5177C124.416 37.6317 124.299 37.6317 124.182 37.6317C124.065 37.6317 123.948 37.6317 123.831 37.6317C123.831 37.6317 123.481 37.6317 123.13 37.6317C123.13 37.7458 123.247 37.8599 123.247 38.088C123.247 38.3161 123.364 38.6583 123.481 38.8865C123.481 39.1146 123.481 39.3427 123.597 39.5709C123.714 39.799 123.714 40.0271 123.714 40.2553C123.714 40.4834 123.714 40.5975 123.714 40.8256C123.714 40.9397 123.714 41.0537 123.714 41.1678C123.714 41.1678 123.714 41.1678 123.714 41.2819C123.714 41.3959 123.831 41.3959 123.831 41.3959C123.831 41.3959 123.948 41.3959 124.065 41.3959C124.182 41.3959 124.416 41.3959 124.416 41.51V41.6241C124.416 41.7381 124.299 41.9663 124.065 41.9663C123.948 41.9663 123.831 41.9663 123.831 42.0803C123.714 42.0803 123.714 42.0803 123.714 42.1944C123.714 42.1944 123.714 42.3085 123.714 42.4225C123.714 42.4225 123.714 42.4225 123.714 42.5366C123.714 42.6507 123.714 42.7647 123.714 42.9929C123.714 43.3351 123.714 43.6773 123.714 44.1336C123.714 44.4758 123.831 44.932 123.831 45.2742C123.831 45.5024 123.831 45.6164 123.831 45.8446C123.831 46.1868 123.714 46.529 123.714 46.7571L123.597 46.8712C123.597 46.9852 123.597 46.9852 123.597 47.0993V47.2134C124.065 46.9852 124.182 46.9852 124.299 46.9852Z" fill="white"/>
<path d="M131.887 39.7151C131.887 39.9246 131.887 40.239 131.661 40.239C131.548 40.239 131.435 40.239 131.435 40.1342C131.323 40.0294 131.323 40.0294 131.323 39.9246C131.323 39.8198 131.323 39.7151 131.323 39.6103C131.323 39.5055 131.323 38.9815 131.323 38.8767C131.323 38.772 131.323 38.6672 131.323 38.5624C131.21 38.5624 130.984 38.5624 130.871 38.5624C130.758 38.5624 130.645 38.5624 130.419 38.5624C130.306 38.5624 130.081 38.5624 129.968 38.5624H129.855C129.742 38.5624 129.629 38.5624 129.629 38.6672V38.772C129.629 38.8767 129.629 39.1911 129.629 39.2959C129.629 39.4007 129.629 39.6103 129.629 39.7151C129.629 39.8198 129.629 39.9246 129.629 40.1342C129.629 40.239 129.742 40.4486 129.629 40.5534C129.629 40.6582 129.629 40.8677 129.629 40.9725C129.629 41.2869 129.629 41.4965 129.629 41.8108C129.629 41.9156 129.629 42.0204 129.629 42.23C129.629 42.3348 129.629 42.3348 129.629 42.4396C129.629 42.5444 129.629 42.6492 129.629 42.7539C129.629 43.0683 129.629 43.1731 129.629 43.4875C129.629 43.8018 129.629 44.0114 129.629 44.3258C129.629 44.4306 129.629 44.5354 129.629 44.7449C129.629 44.8497 129.629 45.0593 129.629 45.1641C129.629 45.4785 129.629 45.688 129.629 46.0024C129.629 46.212 129.629 46.6311 129.629 46.8407V46.9455C129.855 46.9455 129.968 46.9455 130.081 46.9455C130.306 46.9455 130.758 47.0503 130.758 47.2599C130.758 47.3647 130.758 47.4694 130.645 47.4694C130.532 47.5742 130.419 47.5742 130.306 47.5742C130.194 47.5742 130.081 47.5742 129.968 47.5742C129.968 47.5742 129.742 47.5742 129.403 47.5742C129.403 47.5742 129.29 47.5742 129.29 47.679C129.177 47.7838 129.065 47.7838 128.952 47.7838C128.839 47.7838 128.726 47.7838 128.613 47.7838C128.387 47.7838 128.274 47.679 128.161 47.679C128.161 47.679 128.048 47.679 128.048 47.5742C127.823 47.5742 127.597 47.5742 127.371 47.5742C127.258 47.5742 127.145 47.5742 126.919 47.5742C126.694 47.5742 126.581 47.5742 126.468 47.4694C126.355 47.4694 126.242 47.2599 126.242 47.1551C126.242 47.1551 126.242 47.0503 126.355 47.0503C126.468 46.9455 126.581 46.9455 126.694 46.9455C126.919 46.9455 127.258 46.9455 127.371 46.8407C127.371 46.7359 127.371 46.5263 127.371 46.4216C127.371 46.212 127.371 45.8976 127.371 45.5832C127.371 45.2689 127.371 45.0593 127.371 44.7449C127.371 44.4306 127.371 44.1162 127.371 43.8018C127.371 43.5923 127.371 43.3827 127.371 43.0683C127.371 42.9635 127.371 42.8587 127.371 42.6491C127.371 42.5444 127.371 42.4396 127.371 42.23C127.371 41.9156 127.371 41.706 127.371 41.3917C127.371 41.0773 127.371 40.8677 127.371 40.5534C127.371 40.3438 127.371 40.0294 127.371 39.8198C127.371 39.5055 127.371 39.0863 127.371 38.772C127.371 38.6672 127.371 38.6672 127.371 38.5624C127.371 38.4576 127.258 38.4576 127.258 38.4576C127.145 38.4576 126.581 38.4576 126.581 38.4576C126.355 38.4576 126.016 38.4576 125.79 38.4576H125.677C125.677 38.772 125.677 39.2959 125.677 39.6103C125.677 39.8198 125.677 40.1342 125.452 40.1342C125.339 40.1342 125.226 40.1342 125.226 40.0294C125.113 39.9246 125.113 39.9246 125.113 39.8198C125.113 39.7151 125.113 39.6103 125.113 39.5055C125.113 39.4007 125.113 38.9815 125.113 38.8767C125.113 38.6672 125.113 38.5624 125.113 38.3528C125.113 38.248 125 38.248 125 38.1432C125 38.0384 125 38.0384 125.113 38.0384C125.226 37.9336 125.339 37.9336 125.565 37.9336C125.677 37.9336 125.79 37.9336 125.903 37.9336C126.242 37.9336 126.468 37.9336 126.806 37.9336C126.919 37.9336 127.145 37.9336 127.258 37.9336C127.371 37.9336 127.371 37.9336 127.484 37.9336C127.597 37.9336 127.597 37.9336 127.597 37.9336C127.71 37.9336 127.823 37.8289 127.935 37.8289C128.048 37.8289 128.161 37.8289 128.274 37.8289C128.5 37.8289 128.613 37.8289 128.839 37.8289C128.952 37.8289 128.952 37.8289 129.065 37.9336C129.177 37.9336 129.177 38.0384 129.29 38.0384H129.403C129.516 38.0384 129.516 38.0384 129.629 38.0384C129.742 38.0384 129.968 38.0384 130.081 38.0384C130.419 38.0384 130.871 38.0384 131.21 38.0384C131.435 38.0384 131.661 38.0384 131.774 38.1432C131.887 38.248 132 38.3528 132 38.4576C132 38.5624 132 38.5624 131.887 38.6672C131.887 38.6672 131.887 38.6672 131.887 38.8767C131.887 38.9815 131.887 39.4007 131.887 39.7151Z" fill="white"/>
</svg>
