<svg width="152" height="36" viewBox="0 0 152 36" fill="none" xmlns="http://www.w3.org/2000/svg">
<g filter="url(#filter0_d)">
<g clip-path="url(#clip0)">
<rect y="0.238525" width="151.757" height="31.1297" rx="15.5649" fill="white"/>
<path d="M37.4815 10.8284V10.6034H33.7315L31.9765 13.5884L30.2215 10.6034H26.4715V10.8284L29.6515 15.7184L26.4715 20.5634V20.8034H30.2515L31.9765 17.8634L33.7015 20.8034H37.4815V20.5634L34.2865 15.7184L37.4815 10.8284ZM49.328 10.8284V10.6034H45.578L43.823 13.5884L42.068 10.6034H38.318V10.8284L41.498 15.7184L38.318 20.5634V20.8034H42.098L43.823 17.8634L45.548 20.8034H49.328V20.5634L46.133 15.7184L49.328 10.8284ZM61.1744 10.8284V10.6034H57.4244L55.6694 13.5884L53.9144 10.6034H50.1644V10.8284L53.3444 15.7184L50.1644 20.5634V20.8034H53.9444L55.6694 17.8634L57.3944 20.8034H61.1744V20.5634L57.9794 15.7184L61.1744 10.8284ZM73.0209 10.8284V10.6034H69.2709L67.5159 13.5884L65.7609 10.6034H62.0109V10.8284L65.1909 15.7184L62.0109 20.5634V20.8034H65.7909L67.5159 17.8634L69.2409 20.8034H73.0209V20.5634L69.8259 15.7184L73.0209 10.8284ZM80.5869 14.9834H74.1069V17.5334H80.5869V14.9834ZM92.6856 10.8284V10.6034H88.9356L87.1806 13.5884L85.4256 10.6034H81.6756V10.8284L84.8556 15.7184L81.6756 20.5634V20.8034H85.4556L87.1806 17.8634L88.9056 20.8034H92.6856V20.5634L89.4906 15.7184L92.6856 10.8284ZM104.532 10.8284V10.6034H100.782L99.027 13.5884L97.272 10.6034H93.522V10.8284L96.702 15.7184L93.522 20.5634V20.8034H97.302L99.027 17.8634L100.752 20.8034H104.532V20.5634L101.337 15.7184L104.532 10.8284Z" fill="#0058C9"/>
</g>
</g>
<defs>
<filter id="filter0_d" x="0" y="0.238525" width="151.757" height="35.1297" filterUnits="userSpaceOnUse" color-interpolation-filters="sRGB">
<feFlood flood-opacity="0" result="BackgroundImageFix"/>
<feColorMatrix in="SourceAlpha" type="matrix" values="0 0 0 0 0 0 0 0 0 0 0 0 0 0 0 0 0 0 127 0"/>
<feOffset dy="4"/>
<feColorMatrix type="matrix" values="0 0 0 0 0 0 0 0 0 0 0 0 0 0 0 0 0 0 0.15 0"/>
<feBlend mode="normal" in2="BackgroundImageFix" result="effect1_dropShadow"/>
<feBlend mode="normal" in="SourceGraphic" in2="effect1_dropShadow" result="shape"/>
</filter>
<clipPath id="clip0">
<rect y="0.238525" width="151.757" height="31.1297" rx="15.5649" fill="white"/>
</clipPath>
</defs>
</svg>
