<svg width="29" height="30" viewBox="0 0 29 30" fill="none" xmlns="http://www.w3.org/2000/svg">
<path d="M28.4 15.2184C28.4 22.8565 22.1793 29.0531 14.5 29.0531C6.82069 29.0531 0.6 22.8565 0.6 15.2184C0.6 7.58024 6.82069 1.38369 14.5 1.38369C22.1793 1.38369 28.4 7.58024 28.4 15.2184Z" stroke="white" stroke-width="1.2"/>
<path d="M21.3722 11.1759L18.7758 11.1759C18.6698 11.1759 18.5658 11.2074 18.4749 11.267C18.3839 11.3267 18.3094 11.4123 18.2593 11.5147C18.2593 11.5147 17.2238 13.6059 16.8912 14.3102C15.9963 16.2051 15.4169 15.6102 15.4169 14.7308L15.4169 11.6986C15.4169 11.4452 15.3251 11.2022 15.1617 11.0231C14.9983 10.8439 14.7767 10.7432 14.5456 10.7432L12.5935 10.7432C12.3276 10.7216 12.0611 10.7748 11.8193 10.8978C11.5775 11.0209 11.3684 11.2097 11.2118 11.4463C11.2118 11.4463 12.2031 11.2705 12.2031 12.7351C12.2031 13.0983 12.2201 14.143 12.2357 15.0193C12.2386 15.1485 12.2053 15.2755 12.1404 15.3832C12.0754 15.4909 11.9818 15.5742 11.8723 15.6218C11.7628 15.6694 11.6426 15.6789 11.5279 15.6492C11.4133 15.6195 11.3097 15.552 11.2312 15.4557C10.4322 14.2371 9.7703 12.9171 9.25998 11.5244C9.21616 11.4202 9.146 11.332 9.05783 11.2702C8.96966 11.2084 8.86718 11.1757 8.76255 11.1759C8.19948 11.1759 7.07272 11.1759 6.40357 11.1759C6.33868 11.1754 6.27466 11.1922 6.217 11.2248C6.15934 11.2574 6.10976 11.3049 6.07253 11.3632C6.0353 11.4215 6.01154 11.4888 6.00327 11.5594C5.995 11.63 6.00248 11.7017 6.02507 11.7684C6.74137 13.9229 9.82696 20.6935 13.3489 20.6935L14.8312 20.6935C14.9865 20.6935 15.1355 20.6258 15.2453 20.5054C15.3552 20.385 15.4169 20.2216 15.4169 20.0513L15.4169 19.0698C15.4169 18.9467 15.4497 18.8262 15.5114 18.7233C15.573 18.6204 15.6608 18.5395 15.7638 18.4906C15.8669 18.4418 15.9808 18.427 16.0914 18.4482C16.202 18.4694 16.3045 18.5256 16.3864 18.6099L18.1606 20.4379C18.32 20.6021 18.5304 20.6935 18.7491 20.6935L21.079 20.6935C22.2027 20.6935 22.2027 19.8384 21.5901 19.1768C21.1589 18.7111 19.603 16.9128 19.603 16.9128C19.4697 16.7614 19.3902 16.5628 19.3789 16.3528C19.3676 16.1428 19.4251 15.9352 19.5411 15.7677C20.044 15.042 20.8666 13.854 21.2155 13.3451C21.6924 12.6495 22.5554 11.1759 21.3722 11.1759Z" fill="white"/>
</svg>
