<svg width="29" height="30" viewBox="0 0 29 30" fill="none" xmlns="http://www.w3.org/2000/svg">
<path d="M28.4 15.2184C28.4 22.8565 22.1793 29.0531 14.5 29.0531C6.82069 29.0531 0.6 22.8565 0.6 15.2184C0.6 7.58024 6.82069 1.38369 14.5 1.38369C22.1793 1.38369 28.4 7.58024 28.4 15.2184Z" stroke="white" stroke-width="1.2"/>
<path d="M14.4993 20.6936H14.4964C14.0443 20.6907 10.0434 20.6551 8.90735 20.3437C8.11479 20.1273 7.48954 19.4986 7.27526 18.698C6.97878 17.5713 6.99933 15.4067 6.99933 15.2317C6.99933 15.0598 6.97878 12.8774 7.27526 11.7417V11.7387C7.48661 10.947 8.12653 10.2977 8.90442 10.0812C8.90735 10.0812 8.90735 10.0812 8.91029 10.0782C10.0316 9.78171 14.0414 9.74613 14.4935 9.74316H14.5023C14.9573 9.74613 18.97 9.78171 20.0913 10.0931C20.8809 10.3066 21.5062 10.9381 21.7205 11.7387C22.0287 12.8744 21.9993 15.0627 21.9964 15.2466C21.9993 15.4274 22.0169 17.5742 21.7205 18.7069V18.7099C21.5062 19.5105 20.8809 20.1421 20.0884 20.3556H20.0854C18.9641 20.6521 14.9543 20.6907 14.5023 20.6936H14.4993ZM8.40833 12.0471C8.14708 13.0494 8.1735 15.205 8.1735 15.2258V15.2406C8.16469 15.8396 8.19404 17.5713 8.40833 18.3897C8.51401 18.7811 8.82222 19.0924 9.21264 19.1992C10.0492 19.4275 13.3075 19.4986 14.4993 19.5075C15.694 19.4986 18.9582 19.4304 19.789 19.211C20.1794 19.1043 20.4876 18.7929 20.5903 18.4015C20.8075 17.5683 20.834 15.8455 20.8252 15.2525C20.8252 15.2466 20.8252 15.2406 20.8252 15.2347C20.8369 14.6298 20.8134 12.8774 20.5903 12.0501V12.0471C20.4847 11.6527 20.1764 11.3414 19.786 11.2347C18.9582 11.0063 15.694 10.9352 14.4993 10.9263C13.3046 10.9352 10.0463 11.0034 9.21264 11.2228C8.8281 11.3325 8.51401 11.6527 8.40833 12.0471ZM13.0052 17.6157V12.821L17.106 15.2169L13.0052 17.6157Z" fill="white"/>
</svg>
