<svg width="32" height="32" viewBox="0 0 32 32" fill="none" xmlns="http://www.w3.org/2000/svg">
<path fill-rule="evenodd" clip-rule="evenodd" d="M16 0C7.17452 0 0 7.17452 0 16C0 24.8255 7.17452 32 16 32C24.8187 32 32 24.8255 32 16C32 7.17452 24.8187 0 16 0Z" fill="white"/>
<path fill-rule="evenodd" clip-rule="evenodd" d="M24.071 4.5249C22.8481 7.65696 20.0693 8.30919 16.0473 8.30919C15.6124 8.30919 15.1844 8.3024 14.7768 8.2956C14.3759 8.28881 14.0022 8.28202 13.6286 8.28202C13.3025 8.28202 12.9695 8.28881 12.6434 8.3024C13.2073 6.91641 14.1109 5.97883 15.3882 5.40813C17.1751 4.61323 19.4986 4.60643 21.5436 4.59964C22.4269 4.59284 23.2829 4.58605 24.071 4.5249Z" fill="#008F32"/>
<path fill-rule="evenodd" clip-rule="evenodd" d="M25.3216 5.5303C23.5143 9.46406 19.4923 9.85811 16.0409 9.85811C15.2867 9.85811 14.5598 9.83773 13.8872 9.83773L13.0175 13.2348C17.4676 9.60673 23.3513 13.2008 22.7262 18.6768C22.305 22.366 19.6757 24.7779 16.8901 25.4709C13.86 26.225 10.5037 25.0972 9.00225 22.0059C8.84598 21.6798 8.56743 21.0275 8.45872 20.6743L11.6519 19.8522C11.7063 20.0356 11.8014 20.2123 11.9033 20.3753C14.0434 23.8267 18.378 22.101 18.8672 18.5205C19.3632 14.8789 14.2608 12.9426 11.9305 17.1957L9.09736 15.9864L9.0498 15.966L10.4154 10.4832C10.4969 10.0959 10.7823 9.00206 10.8298 8.82542C12.3721 3.14559 17.3725 3.05726 21.3742 3.04368C19.7165 2.35748 17.9025 1.97021 15.9933 1.97021C8.24811 1.97021 1.9704 8.24792 1.9704 15.9931C1.9704 23.7384 8.24811 30.0161 15.9933 30.0161C23.7386 30.0161 30.0163 23.7384 30.0163 15.9931C30.0163 11.8352 28.2022 8.09845 25.3216 5.5303Z" fill="#EB2316"/>
</svg>
