<svg width="115" height="27" viewBox="0 0 115 27" fill="none" xmlns="http://www.w3.org/2000/svg">
<path fill-rule="evenodd" clip-rule="evenodd" d="M30.1212 19.4904V8.52991H38.9683V19.4904H36.8078V10.6223H32.2817V19.4904H30.1212ZM45.2957 13.1732H44.0701C43.0497 13.1732 42.5367 13.5401 42.5367 14.2567C42.5367 14.9618 43.0326 15.3114 44.0245 15.3114C44.4635 15.3114 44.8853 15.2828 45.2957 15.2083V13.1732ZM47.2966 11.4993V19.4904H45.2957V16.7216C44.9081 16.7904 44.4977 16.8879 44.0017 16.8993L42.3429 19.4904H40.0969L42.075 16.6184C41.0375 16.177 40.4903 15.4204 40.4903 14.2337C40.4903 12.6057 41.6702 11.5108 44.0074 11.5108C44.0074 11.4993 47.2966 11.4993 47.2966 11.4993ZM60.8179 12.1758C61.4279 12.7777 61.7357 13.5974 61.7357 14.6694V19.4904H59.6778V15.0477C59.6778 13.8325 59.0337 13.1847 58.0874 13.1847C57.05 13.1847 56.3374 13.9299 56.3374 15.1051V19.4904H54.2796V15.0649C54.2796 13.8783 53.6525 13.1904 52.672 13.1904C51.6631 13.1904 50.9334 13.9356 50.9334 15.128V19.4904H48.8756V11.4993H50.8935V12.6401C51.3438 11.8032 52.2787 11.2643 53.3162 11.2758C54.3081 11.2758 55.2315 11.7573 55.6534 12.6802C56.2405 11.8032 57.3179 11.2758 58.5036 11.2758C59.4441 11.2815 60.2194 11.5739 60.8179 12.1758ZM77.8622 17.1286C78.2726 16.6872 78.4778 16.1484 78.4778 15.5006C78.4778 14.8528 78.2726 14.314 77.8622 13.8726C77.4517 13.4312 76.9273 13.2133 76.2717 13.2133C75.6276 13.2133 75.1032 13.4312 74.6927 13.8726C74.2823 14.314 74.0771 14.8528 74.0771 15.5006C74.0771 16.1426 74.2823 16.6872 74.6927 17.1286C75.1032 17.57 75.6276 17.7879 76.2717 17.7879C76.9273 17.7879 77.4517 17.57 77.8622 17.1286ZM79.4355 12.514C80.1822 13.3223 80.5471 14.3197 80.5471 15.4891C80.5471 16.6586 80.1651 17.656 79.4241 18.4643C78.6773 19.2668 77.7425 19.6796 76.6195 19.6796C75.6447 19.6796 74.7383 19.2497 74.1227 18.493V22.7751H72.0648V11.4993H74.1056V12.5484C74.7611 11.7286 75.6219 11.2987 76.6309 11.2987C77.7595 11.2987 78.6944 11.7057 79.4355 12.514ZM85.5577 17.7764C86.1848 17.7764 86.6978 17.5586 87.1196 17.1172C87.5415 16.6643 87.7638 16.1197 87.7638 15.4891C87.7638 14.8586 87.5472 14.314 87.1196 13.8783C86.6921 13.4426 86.1848 13.2191 85.5577 13.2191C84.9307 13.2191 84.4062 13.4369 83.9787 13.8783C83.5569 14.3197 83.3517 14.8586 83.3517 15.4891C83.3517 16.1197 83.5569 16.6643 83.9787 17.1172C84.4005 17.5528 84.9307 17.7707 85.5577 17.7764ZM82.4909 12.514C83.2947 11.6942 84.315 11.2815 85.5577 11.2815C86.8004 11.2815 87.8208 11.6942 88.6245 12.514C89.4283 13.3223 89.8216 14.3197 89.8216 15.4891C89.8216 16.6758 89.4283 17.6732 88.6245 18.4815C87.8208 19.284 86.8004 19.6968 85.5577 19.6968C84.315 19.6968 83.2947 19.284 82.4909 18.4815C81.6871 17.6732 81.2938 16.6815 81.2938 15.4891C81.2938 14.314 81.6871 13.3165 82.4909 12.514ZM95.6189 11.4993H97.6768V19.4904H95.6189V16.8019C95.0147 17.1458 94.3648 17.3235 93.8518 17.3235C92.9055 17.3235 92.2044 17.1458 91.5716 16.7216C90.9446 16.2688 90.5969 15.4204 90.5969 14.1879V11.5051H92.6433V14.0388C92.6433 14.979 93.1279 15.4433 94.0912 15.4433C94.6328 15.4433 95.0945 15.3688 95.6246 15.1567L95.6189 11.4993ZM104.483 19.4904L101.314 15.8044V19.4904H99.2558V11.4879H101.314V14.6579L104.204 11.4993H106.803L103.257 15.1968L107.008 19.4847H104.483V19.4904Z" fill="#EB2316"/>
<path fill-rule="evenodd" clip-rule="evenodd" d="M112.435 13.8611C112.013 13.4082 111.483 13.1847 110.844 13.1847C110.189 13.1847 109.664 13.4025 109.237 13.8611C108.826 14.314 108.621 14.8586 108.621 15.4891C108.621 16.1312 108.826 16.6757 109.248 17.1286C109.67 17.5815 110.195 17.7993 110.839 17.7993C111.483 17.7993 112.007 17.5815 112.429 17.1286C112.851 16.6757 113.073 16.1312 113.073 15.4891C113.073 14.8586 112.857 14.314 112.435 13.8611ZM113.045 11.4993H115V19.4904H113.045V18.4356C112.361 19.2668 111.511 19.6796 110.502 19.6796C109.362 19.6796 108.416 19.284 107.669 18.4757C106.923 17.6675 106.558 16.6585 106.558 15.4547C106.558 14.2509 106.94 13.2592 107.681 12.4796C108.427 11.6885 109.374 11.2929 110.497 11.2929C111.489 11.2929 112.366 11.7458 113.039 12.5426L113.045 11.4993ZM67.4301 9.49294C67.4301 8.80505 67.9716 8.28912 68.6728 8.28912C69.3568 8.28912 69.887 8.83371 69.887 9.49294C69.887 10.2095 69.3625 10.7369 68.6728 10.7369C67.9716 10.7426 67.4301 10.2152 67.4301 9.49294ZM64.8934 14.6808H68.9407C68.7526 13.6375 68.0058 13.0127 66.957 13.0127C65.9138 13.0127 65.1385 13.6433 64.8934 14.6808ZM65.4919 8.29486C66.176 8.29486 66.7175 8.83944 66.7175 9.49868C66.7175 10.2152 66.1931 10.7426 65.4919 10.7426C64.7908 10.7426 64.2664 10.2152 64.2664 9.49868C64.2664 8.83371 64.8022 8.29486 65.4919 8.29486ZM70.8674 16.2229H64.8934C65.1841 17.3522 65.9594 17.9254 67.2135 17.9254C68.0742 17.9254 69.0319 17.5987 69.7616 17.0197L70.5881 18.3267C69.5848 19.2726 68.4391 19.6624 67.1223 19.6624C65.72 19.6624 64.654 19.2496 63.9072 18.4471C63.1605 17.6388 62.7957 16.6414 62.7957 15.4891C62.7957 14.2738 63.1776 13.2764 63.9471 12.4853C64.7224 11.6942 65.7143 11.2987 66.9399 11.2987C68.0913 11.2987 69.0547 11.6656 69.8015 12.3821C70.5482 13.0987 70.9244 14.0675 70.9244 15.3114C70.9358 15.5923 70.9073 15.8961 70.8674 16.2229Z" fill="#EB2316"/>
<path fill-rule="evenodd" clip-rule="evenodd" d="M13.4245 0C6.01963 0 0 6.0535 0 13.5C0 20.9465 6.01963 27 13.4245 27C20.8236 27 26.8489 20.9465 26.8489 13.5C26.8489 6.0535 20.8236 0 13.4245 0Z" fill="white"/>
<path fill-rule="evenodd" clip-rule="evenodd" d="M20.1962 3.81781C19.1702 6.46049 16.8387 7.0108 13.4641 7.0108C13.0992 7.0108 12.7401 7.00507 12.3981 6.99934C12.0618 6.99361 11.7482 6.98787 11.4347 6.98787C11.1611 6.98787 10.8818 6.99361 10.6082 7.00507C11.0813 5.83564 11.8394 5.04456 12.9111 4.56303C14.4103 3.89233 16.3599 3.8866 18.0757 3.88087C18.8167 3.87513 19.535 3.8694 20.1962 3.81781Z" fill="#008F32"/>
<path fill-rule="evenodd" clip-rule="evenodd" d="M21.2455 4.6663C19.7292 7.98541 16.3546 8.31789 13.4587 8.31789C12.826 8.31789 12.2161 8.30069 11.6517 8.30069L10.9221 11.1669C14.6558 8.10579 19.5924 11.1383 19.0679 15.7587C18.7145 18.8714 16.5085 20.9064 14.1713 21.4911C11.6289 22.1274 8.81291 21.1758 7.55312 18.5676C7.42201 18.2924 7.1883 17.7421 7.09709 17.444L9.77628 16.7504C9.82189 16.9052 9.90169 17.0542 9.9872 17.1918C11.7828 20.1039 15.4197 18.6478 15.8301 15.6268C16.2462 12.5542 11.9652 10.9204 10.01 14.509L7.63293 13.4886L7.59302 13.4714L8.73881 8.84528C8.80721 8.51853 9.04663 7.5956 9.08653 7.44655C10.3805 2.6542 14.576 2.57967 17.9336 2.56821C16.5427 1.98923 15.0207 1.66248 13.4188 1.66248C6.92038 1.66248 1.6532 6.95929 1.6532 13.4943C1.6532 20.0294 6.92038 25.3262 13.4188 25.3262C19.9173 25.3262 25.1845 20.0294 25.1845 13.4943C25.1845 9.98604 23.6625 6.83318 21.2455 4.6663Z" fill="#EB2316"/>
</svg>
