<svg width="132" height="26" viewBox="0 0 132 26" fill="none" xmlns="http://www.w3.org/2000/svg">
<path d="M104.552 17.5422H99.3328V18.976H101.191V23.3H102.705V18.976H104.552V17.5422Z" fill="#5FAF2D"/>
<path d="M32.4036 20.4212C32.4036 18.7073 33.7228 17.3855 35.5123 17.3855C36.6709 17.3855 37.6689 17.9792 38.1507 18.8754L36.843 19.6259C36.6021 19.1554 36.0973 18.853 35.5008 18.853C34.5946 18.853 33.9178 19.5139 33.9178 20.4324C33.9178 21.3398 34.5946 22.0007 35.5008 22.0007C36.1088 22.0007 36.625 21.7095 36.8544 21.239L38.1736 21.9783C37.6689 22.8745 36.6709 23.4682 35.5123 23.4682C33.7228 23.457 32.4036 22.1351 32.4036 20.4212Z" fill="#5FAF2D"/>
<path d="M44.4945 17.5423L42.3493 23.3001C41.7413 24.958 40.6516 25.6861 39.2406 25.5965V24.2187C40.0436 24.2299 40.468 23.9498 40.7433 23.2329L38.3688 17.5535H39.9862L41.5693 21.4182L42.877 17.5535H44.4945V17.5423Z" fill="#5FAF2D"/>
<path d="M50.5957 23.3H49.0701V18.9312H46.7299V23.3H45.2042V17.5422H50.5957V23.3Z" fill="#5FAF2D"/>
<path d="M54.6907 22.113C55.2758 22.113 55.7461 21.8666 56.0099 21.5417L57.2374 22.2362C56.6867 23.0204 55.8034 23.4684 54.6678 23.4684C52.6832 23.4684 51.4443 22.1466 51.4443 20.4327C51.4443 18.7188 52.7062 17.397 54.5531 17.397C56.2967 17.397 57.5356 18.7412 57.5356 20.4327C57.5356 20.6567 57.5127 20.8472 57.4783 21.0376H53.0388C53.2453 21.7881 53.8877 22.113 54.6907 22.113ZM56.0099 19.8838C55.8264 19.0549 55.184 18.7188 54.5531 18.7188C53.7386 18.7188 53.188 19.1445 53.0044 19.8838H56.0099Z" fill="#5FAF2D"/>
<path d="M64.6585 20.4212C64.6585 22.1351 63.3622 23.457 61.7792 23.457C60.9188 23.457 60.2994 23.1433 59.8749 22.6168V25.5965H58.3607V17.5423H59.8749V18.2256C60.2994 17.6992 60.9303 17.3855 61.7792 17.3855C63.3622 17.3855 64.6585 18.7073 64.6585 20.4212ZM63.1443 20.4212C63.1443 19.4579 62.4445 18.7969 61.5039 18.7969C60.5747 18.7969 59.8749 19.4579 59.8749 20.4212C59.8749 21.3846 60.5747 22.0455 61.5039 22.0455C62.4445 22.0455 63.1443 21.3846 63.1443 20.4212Z" fill="#5FAF2D"/>
<path d="M71.621 23.3H70.1527V19.9394L68.65 22.2358H68.4664L66.9522 19.917V23.3H65.4954V17.5422H66.9866L68.5582 19.9618L70.1298 17.5422H71.621V23.3Z" fill="#5FAF2D"/>
<path d="M78.7786 17.5423V23.3001H77.2529V22.6168C76.8285 23.1321 76.1975 23.457 75.3372 23.457C73.7656 23.457 72.4694 22.1351 72.4694 20.4212C72.4694 18.7073 73.7656 17.3855 75.3372 17.3855C76.1975 17.3855 76.8285 17.7104 77.2529 18.2256V17.5423H78.7786ZM77.2529 20.4212C77.2529 19.4579 76.5531 18.7969 75.6125 18.7969C74.6833 18.7969 73.9836 19.4579 73.9836 20.4212C73.9836 21.3846 74.6833 22.0455 75.6125 22.0455C76.5531 22.0455 77.2529 21.3846 77.2529 20.4212Z" fill="#5FAF2D"/>
<path d="M86.2228 20.4212C86.2228 22.1351 84.9265 23.457 83.3435 23.457C82.4832 23.457 81.8637 23.1433 81.4393 22.6168V25.5965H79.925V17.5423H81.4393V18.2256C81.8637 17.6992 82.4946 17.3855 83.3435 17.3855C84.9265 17.3855 86.2228 18.7073 86.2228 20.4212ZM84.6971 20.4212C84.6971 19.4579 83.9974 18.7969 83.0567 18.7969C82.1275 18.7969 81.4278 19.4579 81.4278 20.4212C81.4278 21.3846 82.1275 22.0455 83.0567 22.0455C83.9974 22.0455 84.6971 21.3846 84.6971 20.4212Z" fill="#5FAF2D"/>
<path d="M96.018 22.113C96.603 22.113 97.0734 21.8666 97.3372 21.5417L98.5646 22.2362C98.014 23.0204 97.1307 23.4684 95.995 23.4684C94.0105 23.4684 92.7716 22.1466 92.7716 20.4327C92.7716 18.7188 94.0334 17.397 95.8803 17.397C97.624 17.397 98.8629 18.7412 98.8629 20.4327C98.8629 20.6567 98.8399 20.8472 98.8055 21.0376H94.3661C94.5611 21.7881 95.215 22.113 96.018 22.113ZM97.3372 19.8838C97.1537 19.0549 96.5113 18.7188 95.8803 18.7188C95.0659 18.7188 94.5152 19.1445 94.3317 19.8838H97.3372Z" fill="#5FAF2D"/>
<path d="M90.9139 23.3H92.6805L90.4207 20.3875L92.6117 17.5422H90.7992L89.09 19.8834H88.5738V17.5422H87.0596V23.3H88.5738V21.026H89.2047L90.9139 23.3Z" fill="#5FAF2D"/>
<path d="M114.187 3.84259H107.178V5.75813H109.656V11.572H111.698V5.75813H114.187V3.84259Z" fill="#005A28"/>
<path d="M46.6151 9.98095C47.4065 9.98095 48.0374 9.65609 48.393 9.20801L50.0447 10.1378C49.2991 11.1908 48.1177 11.7957 46.5921 11.7957C43.931 11.7957 42.2563 10.0146 42.2563 7.71815C42.2563 5.41054 43.954 3.64062 46.4316 3.64062C48.7715 3.64062 50.4347 5.45535 50.4347 7.71815C50.4347 8.0094 50.4003 8.27825 50.3544 8.53589H44.3898C44.6651 9.54407 45.5369 9.98095 46.6151 9.98095ZM48.393 6.97882C48.1406 5.86982 47.2804 5.42174 46.4316 5.42174C45.3419 5.42174 44.5963 5.99304 44.3554 6.97882H48.393Z" fill="#005A28"/>
<path d="M60.3337 7.70725C60.3337 10.0149 58.5903 11.7848 56.4682 11.7848C55.3097 11.7848 54.4724 11.3703 53.8989 10.6534V14.6525H51.8572V3.84257H53.8989V4.74993C54.4724 4.033 55.3097 3.61853 56.4682 3.61853C58.5903 3.62973 60.3337 5.39965 60.3337 7.70725ZM58.292 7.70725C58.292 6.40782 57.3515 5.52287 56.0897 5.52287C54.8395 5.52287 53.9104 6.40782 53.9104 7.70725C53.9104 9.00669 54.8395 9.89164 56.0897 9.89164C57.3515 9.89164 58.292 9.00669 58.292 7.70725Z" fill="#005A28"/>
<path d="M65.7361 9.98095C66.5275 9.98095 67.1584 9.65609 67.514 9.20801L69.1657 10.1378C68.4201 11.1908 67.2387 11.7957 65.7131 11.7957C63.052 11.7957 61.3773 10.0146 61.3773 7.71815C61.3773 5.41054 63.0749 3.64062 65.5525 3.64062C67.8925 3.64062 69.5557 5.45535 69.5557 7.71815C69.5557 8.0094 69.5213 8.27825 69.4754 8.53589H63.5108C63.7861 9.54407 64.6578 9.98095 65.7361 9.98095ZM67.5025 6.97882C67.2501 5.86982 66.3899 5.42174 65.5411 5.42174C64.4514 5.42174 63.7058 5.99304 63.4649 6.97882H67.5025Z" fill="#005A28"/>
<path d="M88.3441 7.70725C88.3441 10.0149 86.6006 11.7848 84.4786 11.7848C83.3201 11.7848 82.4828 11.3703 81.9093 10.6534V14.6525H79.8676V3.84257H81.9093V4.74993C82.4828 4.033 83.3201 3.61853 84.4786 3.61853C86.6006 3.62973 88.3441 5.39965 88.3441 7.70725ZM86.3024 7.70725C86.3024 6.40782 85.3618 5.52287 84.1001 5.52287C82.8498 5.52287 81.9207 6.40782 81.9207 7.70725C81.9207 9.00669 82.8498 9.89164 84.1001 9.89164C85.3618 9.89164 86.3024 9.00669 86.3024 7.70725Z" fill="#005A28"/>
<path d="M93.7469 9.9815C94.5384 9.9815 95.1692 9.65664 95.5248 9.20856L97.1765 10.1383C96.431 11.1913 95.2495 11.7962 93.724 11.7962C91.0629 11.7962 89.3882 10.0151 89.3882 7.7187C89.3882 5.41109 91.0858 3.64118 93.5634 3.64118C95.9033 3.64118 97.5665 5.4559 97.5665 7.7187C97.5665 8.00995 97.5321 8.2788 97.4862 8.53644H91.5217C91.797 9.54462 92.6687 9.9815 93.7469 9.9815ZM90.8793 1.98328C90.8793 1.41198 91.3725 0.930298 91.9575 0.930298C92.5425 0.930298 93.0128 1.41198 93.0128 1.98328C93.0128 2.55459 92.5425 3.02507 91.9575 3.02507C91.3725 3.02507 90.8793 2.55459 90.8793 1.98328ZM95.5133 6.97937C95.261 5.87037 94.4007 5.42229 93.5519 5.42229C92.4622 5.42229 91.7167 5.99359 91.4758 6.97937H95.5133ZM93.8846 1.98328C93.8846 1.41198 94.3778 0.930298 94.9628 0.930298C95.5477 0.930298 96.0295 1.41198 96.0295 1.98328C96.0295 2.55459 95.5592 3.02507 94.9628 3.02507C94.3778 3.02507 93.8846 2.55459 93.8846 1.98328Z" fill="#005A28"/>
<path d="M98.5183 7.70734C98.5183 5.39974 100.296 3.62982 102.694 3.62982C104.242 3.62982 105.596 4.43636 106.238 5.62378L104.483 6.63195C104.162 5.99344 103.485 5.60137 102.682 5.60137C101.466 5.60137 100.56 6.48633 100.56 7.71855C100.56 8.93956 101.466 9.82452 102.682 9.82452C103.508 9.82452 104.185 9.43245 104.506 8.80514L106.284 9.79091C105.607 11.0007 104.253 11.7961 102.705 11.7961C100.285 11.7849 98.5183 10.015 98.5183 7.70734Z" fill="#005A28"/>
<path d="M114.852 7.70734C114.852 5.39974 116.699 3.62982 119.027 3.62982C121.355 3.62982 123.225 5.41094 123.225 7.70734C123.225 10.015 121.355 11.7849 119.027 11.7849C116.71 11.7849 114.852 10.015 114.852 7.70734ZM121.183 7.70734C121.183 6.45272 120.254 5.57897 119.027 5.57897C117.823 5.57897 116.894 6.46392 116.894 7.70734C116.894 8.96197 117.823 9.84692 119.027 9.84692C120.254 9.84692 121.183 8.96197 121.183 7.70734Z" fill="#005A28"/>
<path d="M76.1627 11.572H78.5371L75.4975 7.66247L78.4339 3.84259H76.0021L73.7196 6.97915H73.0199V3.84259H70.9781V11.572H73.0199V8.52502H73.8687L76.1627 11.572Z" fill="#005A28"/>
<path d="M129.465 3.84259L127.182 6.97915H126.483V3.84259H124.441V11.572H126.483V8.52502H127.343L129.626 11.572H132L128.972 7.66247L131.908 3.84259H129.465Z" fill="#005A28"/>
<path d="M40.9032 11.5722H38.7238V2.93545H34.8124V11.5722H32.6216V0.930298H40.9032V11.5722Z" fill="#005A28"/>
<path d="M16.804 8.21105L13.317 11.6165L9.83003 8.21105C7.90301 6.32912 7.90301 3.28218 9.83003 1.41145C11.757 -0.470483 14.877 -0.470483 16.804 1.41145C18.731 3.29338 18.731 6.34032 16.804 8.21105Z" fill="#5FAF2D"/>
<path d="M9.83 17.7777L13.317 14.3723L16.804 17.7777C18.731 19.6596 18.731 22.7066 16.804 24.5885C14.8769 26.4705 11.757 26.4705 9.84147 24.5885C7.91446 22.7066 7.91446 19.6596 9.83 17.7777Z" fill="#005A28"/>
<path d="M18.2148 16.3999L14.7278 12.9945L18.2148 9.58906C20.1418 7.70713 23.2617 7.70713 25.1887 9.58906C27.1157 11.471 27.1157 14.5179 25.1887 16.3999C23.2617 18.2818 20.1418 18.2818 18.2148 16.3999Z" fill="#1E8737"/>
<path d="M8.41922 9.58872L11.9062 12.9941L8.41922 16.3995C6.49221 18.2815 3.37228 18.2815 1.44526 16.3995C-0.481754 14.5176 -0.481754 11.4707 1.44526 9.58872C3.38375 7.71799 6.50368 7.71799 8.41922 9.58872Z" fill="#AAE641"/>
</svg>
