<svg width="28" height="28" viewBox="0 0 28 28" fill="none" xmlns="http://www.w3.org/2000/svg">
<circle cx="14" cy="14" r="13.4" stroke="#46248A" stroke-width="1.2"/>
<path d="M21 10.8975C21 13.1285 21 15.3038 21 17.5349V17.5907C21 17.758 20.944 17.9254 20.944 18.0927C20.832 18.762 20.496 19.3755 20.048 19.9333C19.432 20.6584 18.592 21.0489 17.64 21.1604C17.528 21.1604 17.416 21.1604 17.36 21.2162C15.12 21.2162 12.936 21.2162 10.696 21.2162H10.64C10.36 21.2162 10.08 21.1604 9.8 21.0489C9.24 20.8815 8.736 20.6026 8.288 20.2122C7.56 19.5987 7.168 18.762 7.056 17.8138C7.056 17.7022 7.056 17.5907 7 17.5349C7 15.3038 7 13.1285 7 10.8975V10.8417C7 10.6744 7 10.5628 7.056 10.3955C7.224 9.50304 7.672 8.77794 8.344 8.16439C8.904 7.6624 9.632 7.32774 10.36 7.27196C10.472 7.21619 10.584 7.21619 10.696 7.21619C12.936 7.21619 15.12 7.21619 17.36 7.21619H17.416C17.584 7.21619 17.808 7.27196 17.976 7.27196C18.648 7.43929 19.208 7.71818 19.712 8.16439C20.44 8.77794 20.832 9.61459 21 10.5628C21 10.6744 21 10.7859 21 10.8975ZM14 18.4831C16.352 18.4831 18.256 16.5867 18.312 14.2441C18.312 11.9014 16.408 10.005 14.056 9.94925C11.648 9.89348 9.688 11.8457 9.744 14.2441C9.744 16.5309 11.648 18.4831 14 18.4831ZM19.432 9.61459C19.432 9.05682 18.984 8.61061 18.424 8.61061C17.864 8.61061 17.416 9.05682 17.416 9.61459C17.416 10.1724 17.864 10.6186 18.424 10.6744C18.984 10.6186 19.432 10.1724 19.432 9.61459Z" fill="#46248A"/>
<path d="M13.9999 16.5309C12.7119 16.5309 11.6479 15.4711 11.6479 14.1882C11.6479 12.9054 12.7119 11.8456 13.9999 11.8456C15.2879 11.8456 16.3519 12.9054 16.3519 14.1882C16.3519 15.4711 15.2879 16.5309 13.9999 16.5309Z" fill="#46248A"/>
</svg>
