<svg width="112" height="55" viewBox="0 0 112 55" fill="none" xmlns="http://www.w3.org/2000/svg">
<g filter="url(#filter0_d)">
<path fill-rule="evenodd" clip-rule="evenodd" d="M70.5192 39.9958L57.9461 37.5414L47.2367 44.575L45.7774 31.9905L35.7514 24.1365L47.4233 18.8127L51.9357 6.92496L60.609 16.2193L73.4234 16.7266L67.1106 27.7945L70.5192 39.9958Z" fill="url(#paint0_linear)"/>
<path fill-rule="evenodd" clip-rule="evenodd" d="M70.5192 39.9958L57.9461 37.5414L47.2367 44.575L45.7774 31.9905L35.7514 24.1365L47.4233 18.8127L51.9357 6.92496L60.609 16.2193L73.4234 16.7266L67.1106 27.7945L70.5192 39.9958Z" stroke="#C4B100"/>
</g>
<path d="M3.10912 24.4405C3.11602 24.7818 3.13956 25.2716 3.17975 25.9099C3.18958 26.066 3.20342 26.2858 3.22129 26.5695C3.25279 26.8381 3.27212 27.0292 3.27927 27.1426L3.31276 27.6746C3.3333 28.0008 3.35575 28.2415 3.38012 28.3966L3.40691 28.8221C3.41674 28.9782 3.43115 29.0912 3.45015 29.1612L3.47561 29.5654C3.7981 29.5879 4.73709 29.5501 6.29256 29.4522C6.35071 29.4485 6.40114 29.4382 6.44386 29.4213C6.36169 28.1163 6.31899 26.8587 6.31575 25.6484L6.20858 23.9462C6.19875 23.7902 6.21979 23.6607 6.27168 23.5578C6.33812 23.4539 6.43586 23.3837 6.5649 23.3471C6.69306 23.2963 6.80075 23.2681 6.88797 23.2626C6.98884 23.242 7.11967 23.2338 7.28047 23.2379C7.44127 23.242 7.53621 23.2432 7.56529 23.2413L8.32849 23.1933C8.63377 23.1741 8.79668 23.3276 8.81722 23.6538L8.89224 24.8453C8.92261 25.3276 8.95221 25.6818 8.98104 25.9078L9.03061 26.695L9.03888 27.8694C9.05049 28.0538 9.04508 28.4315 9.02266 29.0026C9.01477 29.5727 9.03316 30.2124 9.07782 30.9216C9.08229 30.9925 9.09434 31.184 9.11399 31.4961C9.13275 31.7939 9.16247 32.0342 9.20316 32.2167L9.30475 32.7871L9.4213 34.6382C9.44274 34.9786 9.4511 35.2273 9.44639 35.3842L9.4772 35.8736C9.49864 36.214 9.52198 36.4689 9.54724 36.6382C9.54992 36.6808 9.54712 36.7521 9.53883 36.8523C9.54508 36.9516 9.54955 37.0226 9.55223 37.0651C9.55491 37.1077 9.55803 37.1573 9.56161 37.2141C9.57972 37.2699 9.58922 37.3049 9.59011 37.3191C9.61333 37.6879 9.45777 37.8828 9.12341 37.9038C9.0798 37.9066 9.01394 37.9036 8.92582 37.8949C8.8386 37.9004 8.78045 37.9041 8.75138 37.9059L7.57387 37.9801C7.23326 37.9018 7.05314 37.7067 7.03349 37.3946C7.01562 37.1109 6.98736 36.778 6.94871 36.396C6.9237 35.9988 6.90629 35.7222 6.89646 35.5662L6.87235 35.1832C6.80983 34.1903 6.74929 33.4607 6.69074 32.9944L6.67734 32.7816C6.6577 32.4696 6.64755 32.1925 6.6469 31.9505C6.64244 31.8795 6.63159 31.8233 6.61438 31.7816C5.99017 31.8352 5.05298 31.9013 3.80278 31.98C3.89552 32.7574 3.97806 33.7206 4.05041 34.8696C4.08881 35.4795 4.11 36.0478 4.11397 36.5745C4.13159 37.086 4.14576 37.4269 4.15648 37.5971L4.16719 37.7673C4.16963 38.0378 4.01183 38.1972 3.6938 38.2457L3.01782 38.2883C2.91606 38.2947 2.72708 38.3066 2.45087 38.324C2.1901 38.3547 2.00112 38.3666 1.88393 38.3597C1.78127 38.3519 1.66778 38.2879 1.54344 38.1675C1.43364 38.0463 1.37026 37.8509 1.35329 37.5814C1.35061 37.5388 1.34659 37.475 1.34123 37.3899C1.35041 37.3039 1.35411 37.2467 1.35232 37.2183C1.34696 37.1332 1.33165 37.006 1.3064 36.8367C1.29568 36.6665 1.2872 36.5317 1.28094 36.4324C1.26755 36.2197 1.24745 35.9005 1.22066 35.475C1.2075 35.0343 1.19423 34.7076 1.18083 34.4949C1.1585 34.1402 1.13471 33.8783 1.10946 33.709L0.773182 28.3685C0.762464 28.1983 0.743585 28.0143 0.716543 27.8167C0.704039 27.6181 0.682926 27.3987 0.653205 27.1585C0.623485 26.9182 0.604158 26.7272 0.595227 26.5854L0.463192 25.1838C0.461406 25.1555 0.45828 25.1058 0.453814 25.0349C0.463886 24.9631 0.468028 24.9129 0.466242 24.8846C0.463562 24.842 0.450935 24.7574 0.428359 24.6306C0.420321 24.503 0.414069 24.4037 0.409603 24.3328C0.398885 24.1625 0.426743 24.0255 0.493176 23.9216C0.574147 23.8168 0.700962 23.7448 0.873621 23.7054C1.05992 23.651 1.21849 23.6196 1.34933 23.6114C1.47927 23.589 1.68279 23.5761 1.95989 23.5729C2.23698 23.5697 2.42641 23.5649 2.52817 23.5585C2.86253 23.5375 3.05618 23.8314 3.10912 24.4405Z" fill="#EF4581"/>
<path d="M19.702 28.1379C19.719 28.4074 19.7553 28.8679 19.8109 29.5195C19.8665 30.1711 19.9064 30.6883 19.9305 31.0713C19.9913 32.0359 19.9794 32.8911 19.895 33.6369C19.8098 34.3686 19.6647 34.9616 19.4598 35.4159C19.254 35.8561 19.0701 36.181 18.9082 36.3906C18.7462 36.6001 18.5552 36.8115 18.3351 37.0248L18.1674 37.1421C17.7444 37.6102 16.9878 37.8786 15.8975 37.9472C15.1997 37.9912 14.5712 37.8599 14.0119 37.5533C13.4662 37.2316 13.0224 36.7896 12.6805 36.2273C12.3522 35.6499 12.0627 34.9916 11.8118 34.2527C11.5755 33.5128 11.4246 32.7391 11.3592 31.9314C11.3074 31.1087 11.2778 30.2918 11.2705 29.4805C11.3148 27.1707 11.6574 25.426 12.2983 24.2464C12.9528 23.0516 14.036 22.4067 15.5478 22.3115C16.2165 22.2694 16.8092 22.4101 17.3258 22.7336C17.8569 23.0561 18.2725 23.5142 18.5726 24.1076C18.8726 24.7011 19.1082 25.3128 19.2792 25.9429C19.4494 26.5588 19.579 27.2271 19.6682 27.9477C19.6726 28.0187 19.6839 28.082 19.702 28.1379ZM16.9474 28.5463C16.8036 26.2626 16.2666 25.15 15.3362 25.2086C15.0309 25.2278 14.7358 25.5241 14.4508 26.0974C14.1658 26.6708 14.0108 27.2217 13.9857 27.7502C13.9955 27.9062 13.9933 28.2196 13.9792 28.6905C13.9796 29.1604 13.9919 29.5868 14.016 29.9698C14.0615 30.6932 14.1176 31.3519 14.1842 31.9458C14.406 34.3101 15.0257 35.4602 16.0433 35.3961C16.1596 35.3888 16.2664 35.3464 16.3637 35.2691C16.4601 35.1776 16.5398 35.0515 16.6026 34.8909C16.6646 34.7161 16.7138 34.5706 16.7503 34.4544C16.7867 34.3382 16.8278 34.1789 16.8734 33.9767C16.9182 33.7603 16.9469 33.6374 16.9597 33.6081C17.1449 32.8417 17.1951 31.7847 17.1103 30.4372C17.0719 29.8272 17.0176 29.1969 16.9474 28.5463Z" fill="#EF4581"/>
<path d="M22.1997 35.6065L21.7817 28.9682C21.7719 28.8121 21.7725 28.7053 21.7834 28.6476L21.6816 27.0306C21.6798 27.0022 21.6763 26.9455 21.6709 26.8604C21.6792 26.7602 21.682 26.6888 21.6793 26.6462C21.6731 26.5469 21.6573 26.4126 21.632 26.2433C21.6204 26.0589 21.6115 25.9171 21.6053 25.8178C21.5791 25.6343 21.5508 25.3014 21.5205 24.8192C21.5187 24.7908 21.516 24.7482 21.5124 24.6915C21.5234 24.6339 21.5275 24.5838 21.5249 24.5412L21.49 23.988C21.4865 23.9313 21.4743 23.8537 21.4535 23.7553C21.4463 23.6418 21.4419 23.5709 21.4401 23.5426C21.4178 23.1879 21.4431 22.8944 21.516 22.662C21.5889 22.4295 21.6954 22.2662 21.8354 22.1719C21.9891 22.0625 22.1304 21.9896 22.2595 21.953C22.4031 21.9154 22.5693 21.8907 22.7583 21.8788C22.8892 21.8706 23.0867 21.8795 23.3511 21.9056L23.9697 21.9948C26.5904 22.3567 27.9645 23.5518 28.0923 25.5802C28.1289 26.1618 28.017 26.7029 27.7566 27.2035C27.4954 27.6899 27.1366 28.0186 26.6803 28.1898C27.4099 28.1865 28.0373 28.5315 28.5626 29.2247C29.0878 29.918 29.3799 30.7327 29.4389 31.6688C29.5479 33.3994 29.089 34.6886 28.0624 35.5364C27.0494 36.3692 25.6852 36.8396 23.9699 36.9476C23.3448 36.987 22.9011 36.8939 22.6388 36.6683C22.3755 36.4286 22.2292 36.0746 22.1997 35.6065ZM26.8098 31.9839C26.7857 31.6009 26.6997 31.2788 26.5519 31.0175C26.4041 30.7563 26.2094 30.562 25.9679 30.4348C25.7255 30.2934 25.493 30.1942 25.2705 30.137C25.0625 30.0789 24.8191 30.0372 24.5402 30.0121L24.8148 34.3738C25.4892 34.1889 25.9928 33.8439 26.3259 33.3388C26.6735 32.8327 26.8348 32.3811 26.8098 31.9839ZM25.4987 25.7649C25.4098 24.8164 24.9561 24.3323 24.1375 24.3126L24.3674 27.2673L24.4328 27.2632C24.8336 27.1383 25.1191 26.921 25.2893 26.6112C25.4586 26.2872 25.5284 26.0051 25.4987 25.7649Z" fill="#EF4581"/>
<path d="M33.1782 28.4428C33.2196 28.8674 33.2908 29.7672 33.392 31.1422C33.4923 32.503 33.5828 33.5939 33.6637 34.4147C34.1707 34.3543 34.654 34.032 35.1134 33.4476C35.5719 32.8491 35.7735 32.1102 35.7181 31.2307C35.6976 30.9045 35.6493 30.6013 35.5733 30.3213C35.4964 30.0271 35.375 29.7214 35.2091 29.4044C35.0432 29.0873 34.7795 28.8404 34.4181 28.6638C34.0712 28.4863 33.658 28.4126 33.1782 28.4428ZM31.3116 35.6523L30.4527 23.4023L30.3951 22.4874C30.3692 22.076 30.5961 21.8552 31.0758 21.825L32.3188 21.7468C32.7694 21.7184 33.0063 21.8886 33.0296 22.2574L33.0363 22.3638C33.0407 22.4347 33.0488 22.5624 33.0604 22.7468C33.0865 22.9303 33.1027 23.0717 33.109 23.1709L33.3113 26.3838C34.7858 26.3906 35.9641 26.7935 36.8463 27.5924C37.7431 28.3903 38.2392 29.5482 38.3348 31.066C38.3911 31.9596 38.2671 32.772 37.9629 33.5032C37.6723 34.2193 37.256 34.7938 36.7141 35.2266C36.1721 35.6595 35.588 36.0025 34.9618 36.2555C34.3347 36.4944 33.6868 36.6349 33.0181 36.677C32.393 36.7163 31.9588 36.6582 31.7154 36.5027C31.473 36.3613 31.3384 36.0778 31.3116 35.6523ZM39.7241 32.9651C39.7235 32.723 39.7029 32.3968 39.6625 31.9863C39.6221 31.5759 39.5987 31.321 39.5925 31.2217L39.4411 28.8175C39.3527 27.4132 39.2289 25.9114 39.0698 24.3123L38.9592 23.2512C38.9376 23.1386 38.9273 22.9755 38.9284 22.7618C38.9296 22.5481 38.9279 22.4058 38.9234 22.3349C38.9074 22.0796 38.888 21.8885 38.8655 21.7618C38.8449 21.4355 38.9873 21.2628 39.2926 21.2436L41.1024 21.1296C41.3932 21.1113 41.5493 21.2724 41.5707 21.6128C41.5761 21.6979 41.5777 21.8402 41.5757 22.0397C41.5882 22.2383 41.598 22.3943 41.6052 22.5078C41.6186 22.7206 41.6382 23.0326 41.6641 23.444C41.7037 23.8402 41.7292 24.1306 41.7408 24.315L41.8453 25.9746L41.9137 27.0597C42.0235 28.8044 42.1472 30.42 42.2845 31.9067C42.421 33.3791 42.5014 34.3068 42.5255 34.6898C42.5469 35.0303 42.5412 35.287 42.5083 35.4599C42.4745 35.6187 42.4294 35.7141 42.3731 35.7461C42.3312 35.7772 42.2522 35.7965 42.1359 35.8038L40.3696 35.915C40.0643 35.9342 39.901 35.7736 39.8795 35.4332C39.8706 35.2913 39.8577 35.0857 39.8407 34.8162C39.8374 34.5316 39.8317 34.3254 39.8236 34.1978C39.8156 34.0701 39.7958 33.872 39.7643 33.6034C39.7465 33.3197 39.7331 33.1069 39.7241 32.9651Z" fill="#EF4581"/>
<path d="M48.0739 18.8108C47.2726 18.8328 46.6246 18.6244 46.1299 18.1856C45.6353 17.7468 45.3656 17.1728 45.321 16.4636C45.3111 16.3075 45.3472 16.1842 45.429 16.0936C45.5109 16.003 45.595 15.9479 45.6813 15.9282C45.7822 15.9076 45.9198 15.8918 46.0943 15.8808C46.2824 15.8548 46.4269 15.8314 46.5277 15.8108L46.6149 15.8053C46.7921 15.8369 46.8924 15.9232 46.9158 16.0641C47.037 16.5976 47.1829 16.9444 47.3535 17.1046C47.5387 17.2638 47.7984 17.3329 48.1328 17.3119C48.4235 17.2935 48.6349 17.1734 48.7669 16.9515C48.9125 16.7145 48.9773 16.4683 48.9612 16.213C48.9469 15.986 48.9743 15.8419 49.0434 15.7806C49.1125 15.7193 49.2343 15.6831 49.4087 15.6721L50.281 15.6172C50.3537 15.6126 50.4286 15.6435 50.5057 15.7099C50.582 15.762 50.6224 15.8236 50.6268 15.8945C50.6822 16.7739 50.5061 17.4544 50.0986 17.9357C49.6902 18.4029 49.0153 18.6946 48.0739 18.8108ZM53.0009 33.4321C53.0044 33.4889 53.0021 33.5673 52.9938 33.6675C52.9991 33.7526 53.0032 33.8165 53.0058 33.859L53.0434 34.4548C53.0369 34.5834 53.0145 34.6916 52.9762 34.7794C52.9525 34.8664 52.9206 34.9396 52.8806 34.9991C52.8542 35.0434 52.7837 35.0835 52.6692 35.1192C52.5684 35.1398 52.4961 35.1514 52.4525 35.1542C52.4098 35.1711 52.2935 35.1784 52.1036 35.1761C51.9292 35.1871 51.8202 35.194 51.7765 35.1967C51.4277 35.2187 51.1428 35.2153 50.9221 35.1865C50.7159 35.1567 50.5733 35.0945 50.4944 34.9998C50.4146 34.8909 50.3656 34.8085 50.3475 34.7527C50.3285 34.6827 50.3132 34.5555 50.3016 34.3711L49.952 27.4293C48.982 30.5664 48.1498 33.111 47.4554 35.063C47.3925 35.2236 47.2765 35.3519 47.1075 35.448C46.952 35.529 46.8016 35.5741 46.6562 35.5832C46.5109 35.5924 46.2996 35.5986 46.0225 35.6018C45.7454 35.605 45.5705 35.6089 45.4978 35.6135C45.1053 35.6382 44.8966 35.4519 44.8716 35.0548L44.8635 34.9271L44.7966 33.8633L44.7269 32.7569C44.6867 32.1186 44.6569 31.5294 44.6375 30.9895L44.5609 28.7301C44.5656 28.5731 44.5432 28.3324 44.4935 28.008C44.4439 27.6836 44.4215 27.4429 44.4262 27.286L44.3233 26.6943C44.3125 26.5241 44.2819 26.2697 44.2314 25.9311L44.135 24.3992C44.1269 24.2715 44.1022 23.9954 44.0609 23.5708C44.0196 23.1461 43.999 22.8199 43.9993 22.592L43.9296 21.4856C43.9426 21.2285 44.005 21.0608 44.1168 20.9825C44.2278 20.8901 44.4868 20.8311 44.8938 20.8054L44.981 20.7999C45.8097 20.7478 46.278 20.7681 46.386 20.861C46.4777 20.9264 46.5311 21.0797 46.5463 21.3209C46.5516 21.406 46.5524 21.5341 46.5486 21.7052C46.5584 21.8612 46.5647 21.9605 46.5674 22.0031L46.566 21.9818C46.5955 22.4499 46.6856 23.5337 46.8364 25.2331C47.0017 26.9315 47.109 28.1709 47.1581 28.951L49.9795 20.9124C50.0296 20.7811 50.082 20.6852 50.1366 20.6248C50.2057 20.5635 50.2548 20.532 50.2838 20.5301C50.3275 20.5274 50.4219 20.5214 50.5673 20.5123L51.7666 20.4368C51.8975 20.4285 52.0001 20.4363 52.0746 20.4601C52.1627 20.4688 52.224 20.5148 52.2584 20.598C52.2919 20.6671 52.3101 20.723 52.3127 20.7655C52.3291 20.793 52.334 20.871 52.3275 20.9996C52.3355 21.1272 52.3409 21.2123 52.3436 21.2549C52.4221 22.5031 52.4812 23.7882 52.5206 25.1101C52.5697 25.8903 52.6371 27.0751 52.7226 28.6647C52.8072 30.2401 52.8727 31.3966 52.9191 32.1342L53.0009 33.4321Z" fill="#EF4581"/>
<path d="M67.1409 29.1453C67.2051 29.4688 67.259 29.9781 67.3028 30.6731L67.3215 30.971C67.3403 31.2689 67.3464 31.4821 67.3399 31.6107C67.3658 32.022 67.3923 32.3266 67.4193 32.5242C67.4229 32.581 67.4237 32.7091 67.4217 32.9086C67.4333 33.093 67.4418 33.2277 67.4471 33.3128C67.4498 33.3554 67.4534 33.4121 67.4578 33.4831C67.4768 33.5531 67.4868 33.5952 67.4877 33.6093C67.5127 34.0065 67.358 34.2156 67.0237 34.2367C66.9219 34.2431 66.7479 34.2612 66.5017 34.2909C66.2554 34.3207 66.0596 34.3401 65.9143 34.3493C65.7689 34.3584 65.6081 34.3543 65.4318 34.3369C65.2547 34.3053 65.1194 34.2427 65.0259 34.1489C64.9316 34.0409 64.8786 33.8947 64.867 33.7103L64.7946 32.5613L64.6633 30.4762C64.5896 29.7688 64.5411 29.2307 64.5179 28.8619C64.2705 24.9328 64.1326 22.6273 64.1043 21.9455L64.0976 21.8392C64.094 21.7824 64.0841 21.7403 64.0678 21.7129C63.6325 21.7545 62.9715 21.8033 62.0848 21.8591C62.1385 23.408 62.0691 26.2463 61.8766 30.374C61.8957 32.0674 61.6704 33.2422 61.2009 33.8984C60.7305 34.5404 60.0084 34.892 59.0344 34.9534C58.6564 34.9771 58.3781 34.8451 58.1994 34.5573C58.0199 34.2553 57.9493 33.9465 57.9878 33.6308C58.0263 33.315 58.1246 33.138 58.2828 33.0995C58.4127 33.0771 58.5277 33.0485 58.6276 33.0137C58.7413 32.9639 58.8399 32.9078 58.9235 32.8456C59.0063 32.7692 59.0754 32.7078 59.1309 32.6616C59.1863 32.6154 59.2323 32.5342 59.2688 32.418C59.3053 32.3017 59.329 32.2148 59.3399 32.1572C59.3645 32.0844 59.3792 31.9695 59.3839 31.8126C59.4023 31.6406 59.4092 31.5191 59.4047 31.4481C59.4148 31.3763 59.4204 31.2335 59.4216 31.0199C59.4227 30.8062 59.4279 30.6563 59.437 30.5703C59.5756 25.1216 59.6047 21.7589 59.5243 20.4823C59.5028 20.1419 59.6448 19.9621 59.95 19.9428L61.5418 19.8426C61.6581 19.8353 61.8689 19.822 62.1742 19.8028C62.4786 19.7694 62.6817 19.7495 62.7834 19.7431C62.8125 19.7412 62.842 19.7465 62.872 19.7588L62.9156 19.7561C63.0464 19.7479 63.1768 19.7325 63.3068 19.7101C64.4134 19.6689 65.3519 19.6241 66.1224 19.5755L66.1878 19.5714C66.5076 19.5513 66.6773 19.6972 66.697 20.0093C66.6914 20.1521 66.6975 20.3653 66.7154 20.649L66.7542 21.266C66.7632 21.4079 66.7829 21.606 66.8136 21.8604C66.8442 22.1148 66.8635 22.3058 66.8715 22.4335C66.8867 22.6746 66.8954 23.0443 66.8976 23.5426C66.8989 24.0267 66.9035 24.3326 66.9116 24.4603L66.9283 25.4205L66.9007 25.6786L66.9251 27.1082C66.9537 27.5621 67.0256 28.2412 67.1409 29.1453Z" fill="#EF4581"/>
<path d="M78.0007 31.8579C78.0043 31.9147 78.0019 31.9932 77.9937 32.0934C77.999 32.1785 78.003 32.2423 78.0057 32.2849L78.0432 32.8806C78.0367 33.0092 78.0144 33.1174 77.9761 33.2053C77.9524 33.2922 77.9205 33.3654 77.8805 33.4249C77.8541 33.4693 77.7836 33.5093 77.6691 33.545C77.5683 33.5656 77.496 33.5773 77.4524 33.58C77.4097 33.5969 77.2934 33.6043 77.1035 33.602C76.9291 33.613 76.82 33.6198 76.7764 33.6226C76.4275 33.6445 76.1427 33.6411 75.922 33.6123C75.7158 33.5826 75.5732 33.5203 75.4943 33.4256C75.4144 33.3167 75.3655 33.2343 75.3474 33.1785C75.3284 33.1085 75.3131 32.9813 75.3014 32.7969L74.9519 25.8552C73.9819 28.9923 73.1496 31.5368 72.4552 33.4888C72.3924 33.6494 72.2764 33.7778 72.1073 33.8738C71.9519 33.9548 71.8015 33.9999 71.6561 34.0091C71.5107 34.0182 71.2995 34.0244 71.0224 34.0276C70.7453 34.0308 70.5704 34.0347 70.4977 34.0393C70.1052 34.064 69.8965 33.8778 69.8715 33.4806L69.8634 33.3529L69.7964 32.2891L69.7268 31.1827C69.6866 30.5444 69.6568 29.9553 69.6374 29.4154L69.5608 27.1559C69.5655 26.9989 69.543 26.7583 69.4934 26.4338C69.4438 26.1094 69.4213 25.8687 69.4261 25.7118L69.3231 25.1202C69.3124 24.95 69.2818 24.6955 69.2313 24.3569L69.1348 22.825C69.1268 22.6974 69.1021 22.4212 69.0608 21.9966C69.0194 21.572 68.9989 21.2457 68.9991 21.0179L68.9295 19.9115C68.9425 19.6543 69.0049 19.4866 69.1167 19.4084C69.2277 19.3159 69.4867 19.2569 69.8937 19.2313L69.9809 19.2258C70.8095 19.1736 71.2778 19.194 71.3859 19.2868C71.4775 19.3523 71.531 19.5056 71.5462 19.7467C71.5515 19.8318 71.5523 19.9599 71.5485 20.131C71.5583 20.2871 71.5645 20.3864 71.5672 20.4289L71.5659 20.4076C71.5954 20.8757 71.6855 21.9595 71.8363 23.6589C72.0016 25.3574 72.1088 26.5967 72.158 27.3768L74.9794 19.3383C75.0295 19.2069 75.0819 19.1111 75.1364 19.0507C75.2055 18.9894 75.2546 18.9578 75.2837 18.956C75.3273 18.9532 75.4218 18.9473 75.5672 18.9381L76.7665 18.8626C76.8973 18.8544 77 18.8621 77.0745 18.8859C77.1626 18.8946 77.2238 18.9406 77.2583 19.0239C77.2918 19.093 77.3099 19.1488 77.3126 19.1913C77.3289 19.2188 77.3338 19.2968 77.3273 19.4254C77.3354 19.5531 77.3407 19.6382 77.3434 19.6807C77.422 20.929 77.481 22.214 77.5205 23.5359C77.5696 24.3161 77.6369 25.501 77.7224 27.0906C77.807 28.666 77.8726 29.8225 77.919 30.5601L78.0007 31.8579Z" fill="#EF4581"/>
<path d="M89.846 32.821C89.8639 33.1047 89.8718 33.3463 89.8698 33.5458C89.8832 33.7585 89.8907 33.8791 89.8925 33.9075L89.9233 34.3968C89.9358 34.5954 89.8798 34.7485 89.7552 34.856C89.6315 34.9777 89.5188 35.0418 89.4171 35.0482C89.3307 35.0679 89.1931 35.0837 89.0041 35.0956L88.3281 35.1381L88.2422 35.1649C88.1695 35.1695 88.1109 35.166 88.0664 35.1546C88.0374 35.1564 87.986 35.1525 87.9125 35.1429C87.8398 35.1475 87.7735 35.1375 87.7135 35.1127C87.6681 35.0871 87.615 35.0549 87.5542 35.016C87.5079 34.9762 87.4675 34.9146 87.4331 34.8313C87.3996 34.7623 87.3797 34.6781 87.3734 34.5788C87.369 34.5078 87.3064 33.9778 87.1857 32.9885L86.4225 33.0365C86.2917 33.0448 86.015 33.0551 85.5926 33.0674C85.1701 33.0798 84.8357 33.1009 84.5895 33.1306L84.1316 33.1594C83.8699 33.1759 83.521 33.1979 83.0849 33.2253C82.6497 33.267 82.3158 33.2951 82.0832 33.3098L81.7561 33.3304L81.8566 34.9261C81.8807 35.3091 81.7265 35.5253 81.3939 35.5748C81.2631 35.583 81.0741 35.5949 80.827 35.6105C80.5807 35.6402 80.3772 35.653 80.2164 35.6489C80.071 35.6581 79.9098 35.6468 79.7326 35.6153C79.5701 35.5828 79.4489 35.5121 79.369 35.4032C79.2747 35.2952 79.2212 35.1419 79.2087 34.9433L79.135 33.7731C79.1279 33.6596 79.1262 33.5173 79.13 33.3462C79.1184 33.1618 79.1073 32.9845 79.0965 32.8143L79.0698 32.3887C79.051 32.0909 79.0885 31.8749 79.1822 31.7408C79.2759 31.6068 79.49 31.5292 79.8243 31.5081C80.4235 31.0574 80.7381 29.5637 80.7681 27.0269C80.8126 22.8658 80.8462 20.3858 80.8688 19.5869L80.8434 19.1826C80.8638 18.8111 81.092 18.6116 81.5281 18.5841L82.1605 18.5443C82.2477 18.5388 82.3858 18.5301 82.5748 18.5182C82.7774 18.4912 82.9369 18.4741 83.0532 18.4667C83.0822 18.4649 83.1336 18.4688 83.2072 18.4784C83.2944 18.4729 83.3671 18.4683 83.4252 18.4647C83.5415 18.4573 83.6942 18.4477 83.8831 18.4358C84.0858 18.4088 84.2089 18.394 84.2525 18.3912C84.267 18.3903 84.282 18.3965 84.2974 18.4097L84.3192 18.4084C84.3919 18.4038 84.4642 18.3921 84.536 18.3734C84.6959 18.3633 85.0379 18.3489 85.5622 18.3301C86.1009 18.3104 86.4866 18.2933 86.7192 18.2786L87.0899 18.2553C87.308 18.2415 87.4615 18.2461 87.5505 18.269C87.6395 18.2919 87.7271 18.4074 87.8132 18.6156C87.9129 18.8087 87.9761 19.118 88.0029 19.5435L88.0311 19.9904L88.0833 20.8202C88.1056 21.1748 88.1149 21.4376 88.1111 21.6088L88.4803 29.2115C88.4937 29.4243 88.5266 29.7141 88.5789 30.0811C88.5807 30.1095 88.5765 30.1596 88.5665 30.2314C88.57 30.2881 88.5723 30.3236 88.5731 30.3378L88.6066 30.8697L89.2172 30.8313L89.3262 30.8244C89.4135 30.8189 89.5029 30.8489 89.5946 30.9143C89.6863 30.9797 89.7375 31.0976 89.7482 31.2678C89.7518 31.3245 89.7499 31.4101 89.7425 31.5245C89.7496 31.6379 89.7554 31.7301 89.7599 31.8011C89.767 31.9145 89.7782 32.0919 89.7934 32.333C89.8222 32.559 89.8398 32.7217 89.846 32.821ZM82.9433 30.6282C82.8739 30.9174 82.8142 31.1276 82.7641 31.259L86.0131 31.0544C85.9997 30.8416 85.9714 30.5087 85.9283 30.0557C85.8843 29.5886 85.8552 29.2415 85.8409 29.0145L85.7672 27.8443C85.7529 27.6174 85.7345 27.4405 85.7119 27.3138C85.65 26.5629 85.5737 25.3501 85.4828 23.6754C85.3919 22.0007 85.342 21.0925 85.3331 20.9506L85.3117 20.6102C85.3054 20.5109 85.2933 20.4333 85.2751 20.3775C84.8545 20.4182 84.2298 20.4647 83.4012 20.5169C83.4502 22.2227 83.4145 24.2044 83.2939 26.462C83.1879 28.7188 83.071 30.1075 82.9433 30.6282Z" fill="#EF4581"/>
<path d="M96.0308 25.9805C95.0859 26.04 94.2364 26.1077 93.4822 26.1837C93.4876 26.2688 93.4884 26.3969 93.4845 26.568C93.4944 26.724 93.502 26.8446 93.5073 26.9297C93.56 27.7666 93.607 28.3974 93.6484 28.822C93.6528 28.8929 93.6549 29.0423 93.6547 29.2702C93.669 29.4971 93.6801 29.6744 93.6882 29.8021C93.6917 29.8588 93.6971 29.9439 93.7043 30.0574C93.7259 30.17 93.7386 30.2546 93.7421 30.3114C94.3082 30.2615 94.9101 30.2022 95.548 30.1336C96.2004 30.064 96.6356 30.0224 96.8537 30.0086L97.0499 29.9963C97.1226 29.9917 97.2098 29.9862 97.3116 29.9798C97.427 29.9583 97.5065 29.9462 97.5501 29.9434C97.7972 29.9279 97.9612 29.9816 98.0419 30.1047C98.1217 30.2136 98.1723 30.4383 98.1938 30.7787L98.2125 31.0766C98.2465 31.6156 98.217 31.9592 98.1242 32.1075C98.045 32.2406 97.7801 32.3214 97.3294 32.3498C97.1405 32.3617 97.0019 32.3633 96.9138 32.3546L96.3032 32.393C96.0852 32.4068 95.7799 32.426 95.3874 32.4507C95.0085 32.4603 94.7392 32.4702 94.5793 32.4802C94.303 32.4976 93.9473 32.5271 93.5121 32.5688C93.0905 32.5953 92.7998 32.6136 92.6399 32.6237C92.5817 32.6274 92.509 32.6319 92.4218 32.6374C92.0729 32.6594 91.8254 32.6679 91.6791 32.6628C91.5474 32.6569 91.4275 32.6075 91.3195 32.5146C91.2115 32.4217 91.1508 32.2689 91.1374 32.0561L91.0155 30.1199C91.0038 29.9355 90.9901 29.6017 90.9743 29.1185C90.9585 28.6353 90.9357 28.2736 90.906 28.0334L90.8752 27.544C90.86 27.3029 90.8331 26.9913 90.7944 26.6092C90.7703 26.2262 90.7529 25.9496 90.7421 25.7794C90.7368 25.6943 90.7292 25.5738 90.7194 25.4177C90.7241 25.2608 90.7247 25.1539 90.7211 25.0972L90.488 21.395L90.3634 19.4163C90.3598 19.3595 90.3454 19.2465 90.3201 19.0772C90.294 18.8937 90.2782 18.7594 90.2729 18.6743C90.263 18.5183 90.2918 18.3954 90.3591 18.3058C90.4401 18.201 90.5887 18.1275 90.805 18.0854C91.0349 18.0282 91.2225 17.9951 91.3679 17.9859C91.5124 17.9626 91.7663 17.9395 92.1298 17.9166L92.0644 17.9207C92.4124 17.8845 93.0152 17.8395 93.8729 17.7855L94.1127 17.7703C94.1273 17.7694 94.2295 17.7701 94.4194 17.7724C94.6084 17.7605 94.7755 17.75 94.9209 17.7408C95.1535 17.7262 95.4588 17.707 95.8367 17.6832C96.2138 17.6452 96.4169 17.6253 96.446 17.6234C96.9693 17.5905 97.2394 17.7088 97.2564 17.9783C97.2725 18.2336 97.289 18.496 97.306 18.7655C97.3366 19.0199 97.3541 19.1826 97.3586 19.2535C97.3783 19.5656 97.1791 19.7632 96.7611 19.8465C96.3576 19.9289 95.4944 20.0117 94.1716 20.095C93.6482 20.128 93.2989 20.1428 93.1235 20.1396L93.2528 22.8871L93.3171 23.9084C93.326 24.0502 93.345 24.1203 93.3741 24.1184L93.9628 24.0813L96.187 23.9413C96.5795 23.9166 96.8089 23.9662 96.875 24.0902C96.9549 24.1991 97.0131 24.5444 97.0497 25.1259C97.0685 25.4238 97.0233 25.6331 96.9141 25.7539C96.805 25.8747 96.6123 25.9438 96.3361 25.9612L96.0308 25.9805Z" fill="#EF4581"/>
<path d="M101.674 19.2167C101.656 19.3888 101.649 19.5174 101.655 19.6025C101.655 19.6167 101.658 19.6521 101.661 19.7089C101.678 19.7505 101.688 19.7855 101.69 19.8139C101.832 22.5391 101.938 24.6828 102.007 26.245C102.487 26.2148 102.888 26.0899 103.209 25.8702C103.53 25.6364 103.76 25.3442 103.899 24.9937C104.036 24.629 104.124 24.2818 104.161 23.9518C104.213 23.6068 104.227 23.2499 104.203 22.8811C104.127 21.6754 103.815 20.7624 103.265 20.1419C102.715 19.5215 102.185 19.2131 101.674 19.2167ZM102.602 31.5264C102.624 31.8669 102.395 32.0522 101.915 32.0824L100.694 32.1593C100.258 32.1867 100.024 31.9593 99.9941 31.4771L99.9793 31.243C99.8891 29.8104 99.7547 27.6756 99.5761 24.8387C99.4111 21.9867 99.2839 19.8514 99.1946 18.433C99.1455 17.6528 99.5934 17.233 100.538 17.1735C102.152 17.0719 103.586 17.4729 104.839 18.3766C106.107 19.2652 106.795 20.5818 106.905 22.3265C106.976 23.4471 106.841 24.4453 106.502 25.3211C106.177 26.1818 105.679 26.8469 105.008 27.3163C104.393 27.7396 103.525 27.9865 102.406 28.0569C102.427 28.3974 102.456 28.9723 102.492 29.7817C102.543 30.5903 102.58 31.1718 102.602 31.5264Z" fill="#EF4581"/>
<path d="M110.964 17.2219L111.014 20.1025C111.011 20.2737 111.013 20.537 111.02 20.8925C111.028 21.2481 111.031 21.5185 111.028 21.7038L111.018 22.2385C111.027 22.3803 111.029 22.5368 111.025 22.7079C111.035 22.864 111.039 23.0417 111.037 23.2412C111.035 23.4407 111.037 23.5972 111.045 23.7107L111.072 25.8878C111.059 26.6007 111.017 26.9878 110.948 27.0491C110.907 27.0944 110.756 27.1253 110.494 27.1418L109.775 27.1871C109.411 27.21 109.215 26.9874 109.186 26.5193C108.857 23.8484 108.579 21.1744 108.352 18.4972C108.349 18.4546 108.339 18.4055 108.321 18.3496C108.317 18.2929 108.315 18.2503 108.313 18.222C108.299 18.0092 108.297 17.8598 108.306 17.7738C108.305 17.7454 108.293 17.682 108.273 17.5837C108.266 17.4844 108.262 17.4135 108.259 17.3709C108.239 17.0447 108.381 16.8719 108.686 16.8527L110.474 16.7401C110.78 16.7209 110.943 16.8815 110.964 17.2219ZM108.963 30.6346C108.897 29.585 109.336 29.0304 110.281 28.9709C110.746 28.9416 111.091 29.0766 111.314 29.3758C111.551 29.6742 111.684 30.0361 111.711 30.4616C111.585 31.2528 111.166 31.6708 110.454 31.7156C110.076 31.7394 109.735 31.6612 109.432 31.4809C109.144 31.2997 108.987 31.0176 108.963 30.6346Z" fill="#EF4581"/>
<defs>
<filter id="filter0_d" x="27.7955" y="0.996582" width="53.4699" height="53.4414" filterUnits="userSpaceOnUse" color-interpolation-filters="sRGB">
<feFlood flood-opacity="0" result="BackgroundImageFix"/>
<feColorMatrix in="SourceAlpha" type="matrix" values="0 0 0 0 0 0 0 0 0 0 0 0 0 0 0 0 0 0 127 0"/>
<feOffset dy="2"/>
<feGaussianBlur stdDeviation="3.5"/>
<feColorMatrix type="matrix" values="0 0 0 0 0 0 0 0 0 0 0 0 0 0 0 0 0 0 0.1 0"/>
<feBlend mode="normal" in2="BackgroundImageFix" result="effect1_dropShadow"/>
<feBlend mode="normal" in="SourceGraphic" in2="effect1_dropShadow" result="shape"/>
</filter>
<linearGradient id="paint0_linear" x1="39.4023" y1="9.57123" x2="71.027" y2="39.8886" gradientUnits="userSpaceOnUse">
<stop stop-color="#FCEC4D"/>
<stop offset="1" stop-color="#F0D909"/>
</linearGradient>
</defs>
</svg>
