<svg width="10" height="16" viewBox="0 0 10 16" fill="none" xmlns="http://www.w3.org/2000/svg">
<path fill-rule="evenodd" clip-rule="evenodd" d="M2 4.17959C2 5.96468 3.34315 7.41178 5 7.41178C6.65685 7.41178 8 5.96468 8 4.17959C8 2.39449 6.65685 0.947388 5 0.947388C3.34315 0.947388 2 2.39449 2 4.17959ZM3.50668 15.0101C3.97826 14.9827 4.47986 14.9536 5 14.9536C5.52014 14.9536 6.02174 14.9827 6.49332 15.0101C8.52532 15.128 10 15.2135 10 12.7988C10 9.82364 7.76142 8.48919 5 8.48919C2.23858 8.48919 0 9.82364 0 12.7988C0 15.2135 1.47468 15.128 3.50668 15.0101Z" fill="white"/>
</svg>
