<svg width="32" height="32" viewBox="0 0 32 32" fill="none" xmlns="http://www.w3.org/2000/svg">
<path d="M20.1895 10.1059L16 14.2972L11.8105 10.1059C9.49522 7.78969 9.49522 4.03961 11.8105 1.73717C14.1257 -0.579056 17.8743 -0.579056 20.1895 1.73717C22.5048 4.05339 22.5048 7.80347 20.1895 10.1059Z" fill="#5FAF2D"/>
<path d="M11.8104 21.8803L16 17.689L20.1895 21.8803C22.5047 24.1965 22.5047 27.9466 20.1895 30.2628C17.8742 32.579 14.1257 32.579 11.8242 30.2628C9.50897 27.9466 9.50897 24.1965 11.8104 21.8803Z" fill="#005A28"/>
<path d="M21.8846 20.1844L17.6951 15.9931L21.8846 11.8019C24.1998 9.48564 27.9484 9.48564 30.2636 11.8019C32.5789 14.1181 32.5789 17.8682 30.2636 20.1844C27.9484 22.5006 24.1998 22.5006 21.8846 20.1844Z" fill="#1E8737"/>
<path d="M10.1155 11.8015L14.305 15.9928L10.1155 20.1841C7.80022 22.5003 4.0517 22.5003 1.73644 20.1841C-0.578815 17.8678 -0.578815 14.1178 1.73644 11.8015C4.06548 9.4991 7.814 9.4991 10.1155 11.8015Z" fill="#AAE641"/>
</svg>
