<svg width="28" height="28" viewBox="0 0 28 28" fill="none" xmlns="http://www.w3.org/2000/svg">
<circle cx="14" cy="14" r="13.4" stroke="#46248A" stroke-width="1.2"/>
<path d="M20.3722 9.43734L17.7758 9.43734C17.6698 9.43734 17.5658 9.46884 17.4749 9.5285C17.3839 9.58816 17.3094 9.67374 17.2593 9.77613C17.2593 9.77613 16.2238 11.8674 15.8912 12.5717C14.9963 14.4665 14.4169 13.8717 14.4169 12.9923L14.4169 9.96009C14.4169 9.70671 14.3251 9.46371 14.1617 9.28454C13.9983 9.10538 13.7767 9.00472 13.5456 9.00472L11.5935 9.00472C11.3276 8.98305 11.0611 9.03626 10.8193 9.1593C10.5775 9.28234 10.3684 9.47112 10.2118 9.70773C10.2118 9.70773 11.2031 9.53198 11.2031 10.9966C11.2031 11.3597 11.2201 12.4045 11.2357 13.2808C11.2386 13.4099 11.2053 13.5369 11.1404 13.6447C11.0754 13.7524 10.9818 13.8357 10.8723 13.8833C10.7628 13.9308 10.6426 13.9404 10.5279 13.9107C10.4133 13.881 10.3097 13.8134 10.2312 13.7171C9.43218 12.4985 8.7703 11.1785 8.25998 9.78586C8.21616 9.68168 8.146 9.59347 8.05783 9.53169C7.96966 9.46992 7.86718 9.43717 7.76255 9.43734C7.19948 9.43734 6.07272 9.43734 5.40357 9.43734C5.33868 9.43686 5.27466 9.45365 5.217 9.48629C5.15934 9.51892 5.10976 9.56642 5.07253 9.6247C5.0353 9.68297 5.01154 9.75029 5.00327 9.82087C4.995 9.89144 5.00248 9.96316 5.02507 10.0299C5.74137 12.1844 8.82696 18.955 12.3489 18.955L13.8312 18.955C13.9865 18.955 14.1355 18.8873 14.2453 18.7669C14.3552 18.6464 14.4169 18.4831 14.4169 18.3128L14.4169 17.3313C14.4169 17.2081 14.4497 17.0877 14.5114 16.9848C14.573 16.8819 14.6608 16.801 14.7638 16.7521C14.8669 16.7032 14.9808 16.6885 15.0914 16.7097C15.202 16.7309 15.3045 16.7871 15.3864 16.8714L17.1606 18.6994C17.32 18.8635 17.5304 18.9549 17.7491 18.955L20.079 18.955C21.2027 18.955 21.2027 18.0999 20.5901 17.4382C20.1589 16.9726 18.603 15.1742 18.603 15.1742C18.4697 15.0229 18.3902 14.8242 18.3789 14.6142C18.3676 14.4042 18.4251 14.1967 18.5411 14.0292C19.044 13.3034 19.8666 12.1155 20.2155 11.6066C20.6924 10.911 21.5554 9.43734 20.3722 9.43734Z" fill="#46248A"/>
</svg>
