<svg width="28" height="28" viewBox="0 0 28 28" fill="none" xmlns="http://www.w3.org/2000/svg">
<circle cx="14" cy="14" r="13.4" stroke="#46248A" stroke-width="1.2"/>
<g clip-path="url(#clip0)">
<path d="M20.9067 11.2815C20.9067 10.0951 20.02 9.09126 18.9 9.09126C17.36 9.04563 15.82 9 14.2333 9H14H13.7667C12.18 9 10.64 9.04563 9.14667 9.09126C7.98 9.09126 7.09333 10.0495 7.09333 11.2815C7.04667 12.2397 7 13.1979 7 14.1105C7 15.0687 7.04667 16.027 7.09333 16.9852C7.09333 18.1716 7.98 19.1754 9.1 19.1754C10.6867 19.2667 12.32 19.2667 14 19.2667C15.68 19.2667 17.3133 19.221 18.9 19.1754C20.02 19.1754 20.9067 18.2172 20.9067 16.9852C20.9533 16.027 21 15.0687 21 14.1105C21 13.1523 20.9533 12.2397 20.9067 11.2815ZM12.6467 16.757V11.5096L16.6133 14.1561L12.6467 16.757Z" fill="#46248A"/>
</g>
<defs>
<clipPath id="clip0">
<rect width="14" height="10.2667" fill="white" transform="translate(7 9)"/>
</clipPath>
</defs>
</svg>
